<?xml version="1.0" standalone="no"?>
<!DOCTYPE svg PUBLIC "-//W3C//DTD SVG 1.1//EN" "http://www.w3.org/Graphics/SVG/1.1/DTD/svg11.dtd" >
<svg xmlns="http://www.w3.org/2000/svg" xmlns:xlink="http://www.w3.org/1999/xlink" version="1.1">
<metadata></metadata>
<defs>
<font id="merriweatherlight_italic" horiz-adv-x="1157" >
<font-face units-per-em="2048" ascent="1638" descent="-410" />
<missing-glyph horiz-adv-x="485" />
<glyph horiz-adv-x="0" />
<glyph unicode="&#xd;" horiz-adv-x="485" />
<glyph horiz-adv-x="0" />
<glyph horiz-adv-x="0" />
<glyph unicode=" "  horiz-adv-x="485" />
<glyph unicode="&#x09;" horiz-adv-x="485" />
<glyph unicode="&#xa0;" horiz-adv-x="485" />
<glyph unicode="!" horiz-adv-x="688" d="M164 74q0 59 38 102t89 43q47 0 70.5 -24.5t23.5 -65.5q0 -66 -40 -106.5t-95 -40.5q-39 0 -62.5 24.5t-23.5 67.5zM270 489l148 1289h194l-229 -1289h-113z" />
<glyph unicode="&#x22;" horiz-adv-x="1009" d="M264 967l88 721h178l-151 -721h-115zM746 967l88 721h178l-151 -721h-115z" />
<glyph unicode="#" horiz-adv-x="1404" d="M111 365l6 108h225l70 445h-222l7 106h229l53 334h133l-51 -334h379l57 334h133l-55 -334h232l-7 -106h-239l-74 -445h227l-6 -108h-237l-56 -365h-131l54 365h-381l-64 -365h-129l60 365h-213zM473 473h381l72 445h-381z" />
<glyph unicode="$" horiz-adv-x="1204" d="M119 66l43 278h102l10 -203q45 -37 124 -57.5t155 -20.5q88 0 169 33t132 99.5t51 164.5q0 78 -38 137.5t-93 99.5t-151 97q-16 10 -128 77t-172.5 155t-60.5 190q0 121 58.5 214t159 146.5t222.5 63.5l29 180h139l-28 -182q98 -8 171.5 -31.5t110.5 -50.5l-41 -246h-96 l-22 183q-37 27 -103.5 43t-142.5 16q-66 0 -137.5 -27.5t-121.5 -90t-50 -160.5q0 -78 43 -137.5t98 -97.5t166 -101q117 -70 180.5 -117t112.5 -121t49 -172q0 -127 -61.5 -225.5t-169 -155.5t-242.5 -67l-35 -209h-139l34 209q-111 8 -203.5 33.5t-123.5 52.5z" />
<glyph unicode="%" horiz-adv-x="1910" d="M201 1055q0 106 54 203.5t147.5 158t207.5 60.5q143 0 211 -78t68 -213q0 -111 -51.5 -212.5t-145.5 -163.5t-213 -62q-133 0 -205.5 86t-72.5 221zM332 1057q0 -104 42 -167t126 -63q80 0 137 55.5t86 137.5t29 160q0 104 -40 161.5t-122 57.5q-80 0 -138.5 -53.5 t-89 -133t-30.5 -155.5zM412 0l946 1530h127l-948 -1530h-125zM1034 375q0 106 54.5 203.5t150.5 159t211 61.5q141 0 210 -80t69 -215q0 -111 -51.5 -213.5t-145.5 -165t-217 -62.5q-133 0 -207 87.5t-74 224.5zM1169 377q0 -105 43 -166t125 -61q80 0 136.5 55t84 136 t27.5 157q0 104 -39 161.5t-119 57.5t-138 -53.5t-89 -132t-31 -154.5z" />
<glyph unicode="&#x26;" horiz-adv-x="1566" d="M61 365q0 137 93.5 229t263.5 180q-39 88 -64.5 192.5t-25.5 182.5q0 121 57 211t158.5 139t228.5 49q168 0 245 -82t77 -198q0 -104 -60.5 -185.5t-146.5 -138.5t-236 -137l-61 -33q90 -164 200.5 -307t229.5 -250q100 115 100 332q0 70 -24 135q-20 2 -72 2 q-37 0 -77 -10t-58 -23v115q16 16 52 30.5t87 14.5q41 0 127 -12q80 -14 139 -15q90 0 131 37t56 131h65q-2 -145 -51 -221t-162 -76q-27 0 -76 5q8 -41 9 -78q0 -131 -46 -237.5t-133 -184.5q57 -45 130 -66q86 -29 161 -22l-6 -72q-51 -14 -89 -18t-83 -4q-141 0 -246 90 q-170 -88 -385 -88q-137 0 -251.5 40.5t-185.5 127t-71 215.5zM227 369q0 -141 97.5 -218t261.5 -77q186 0 303 53q-143 133 -232.5 258t-199.5 313q-111 -72 -170.5 -149.5t-59.5 -179.5zM477 1174q0 -90 22.5 -178.5t55.5 -153.5q121 61 200 114.5t130 127t51 167.5 q0 88 -42 150.5t-142 62.5q-125 0 -200 -80.5t-75 -209.5z" />
<glyph unicode="'" horiz-adv-x="528" d="M254 967l88 721h178l-151 -721h-115z" />
<glyph unicode="(" horiz-adv-x="856" d="M201 498q0 86 14 219q37 262 158 482t253 359.5t201 178.5l72 -51q-61 -39 -166.5 -164t-205 -324t-140.5 -442q-20 -137 -20 -252q0 -205 48 -368t111.5 -265t116.5 -145l-84 -54h-16q-55 37 -134 139.5t-143.5 278.5t-64.5 408z" />
<glyph unicode=")" horiz-adv-x="856" d="M-25 -259q61 39 166.5 164t205 324t140.5 442q20 137 20 252q0 205 -48 368t-111.5 265t-116.5 145l84 54h16q55 -37 134 -139.5t143.5 -278.5t64.5 -408q0 -86 -14 -219q-37 -262 -158 -482t-253 -359.5t-201 -178.5z" />
<glyph unicode="*" horiz-adv-x="1366" d="M279 961l321 137l123 45l-111 49l-295 143l93 140l254 -205l90 -78l-6 125l-5 336h156l-63 -336l-25 -123l107 76l296 200l64 -139l-324 -139l-120 -49l106 -47l289 -142l-92 -139l-248 203l-88 78l4 -119l4 -336h-156l64 336l26 119l-106 -78l-297 -197z" />
<glyph unicode="+" horiz-adv-x="1363" d="M254 707l14 131h226l155 -9l17 179l28 229h140l-25 -229l-31 -179l133 9h254l-12 -131h-256l-129 6q0 -20 -8 -86l-8 -92l-29 -242h-143l28 242l29 178l-160 -6h-223z" />
<glyph unicode="," horiz-adv-x="569" d="M-6 -438l4 18q90 47 156.5 137t66.5 211q0 74 -33.5 129.5t-81.5 69.5l3 39l118 100q84 -33 126 -113.5t42 -177.5q0 -164 -101 -294t-251 -185z" />
<glyph unicode="-" horiz-adv-x="1271" d="M225 592l19 129h827l-18 -129h-828z" />
<glyph unicode="." horiz-adv-x="456" d="M49 74q0 61 39 103t90 42q47 0 71.5 -24.5t24.5 -65.5q0 -66 -40.5 -106.5t-94.5 -40.5q-39 0 -64.5 24.5t-25.5 67.5z" />
<glyph unicode="/" horiz-adv-x="854" d="M-115 -362l863 1959h139l-862 -1959h-140z" />
<glyph unicode="0" horiz-adv-x="1277" d="M127 453q0 197 83 359.5t224 255.5t307 93q420 0 420 -467q0 -186 -80 -350t-220 -262t-312 -98q-217 0 -319.5 131t-102.5 338zM293 463q0 -170 67.5 -278.5t206.5 -108.5q135 0 231.5 89t146.5 228t50 289q0 182 -68.5 285.5t-211.5 103.5q-139 0 -234.5 -93 t-141.5 -233.5t-46 -281.5z" />
<glyph unicode="1" horiz-adv-x="919" d="M115 0l8 72l221 20l127 871q-92 -31 -155.5 -50.5t-133.5 -31.5l-12 80q96 20 210 77.5t210 122.5l72 -20l-152 -1047l235 -22l-8 -72h-622z" />
<glyph unicode="2" horiz-adv-x="1191" d="M49 70q197 96 374 242.5t286.5 305t109.5 289.5q0 119 -71.5 200t-200.5 81q-106 0 -191.5 -45t-169.5 -113l-43 74q74 78 195 138.5t268 60.5q135 0 222 -60.5t126 -153t39 -186.5q0 -135 -108.5 -287.5t-278.5 -290t-354 -229.5l633 39l94 176l82 -30l-80 -281h-918z " />
<glyph unicode="3" horiz-adv-x="1085" d="M27 -313l14 94q82 -10 143 -10q141 0 272.5 66.5t213.5 175t82 227.5t-74 187.5t-232 68.5q-16 -8 -106 -29q-68 -18 -66 -18l11 98q209 47 345 146.5t136 238.5q0 113 -52 181.5t-177 68.5q-102 0 -181.5 -35t-165.5 -98l-32 84q68 66 177 115.5t253 49.5 q166 0 261 -82.5t95 -230.5q0 -86 -52 -171t-137 -152.5t-180 -102.5q186 8 271.5 -75t85.5 -218q0 -150 -108.5 -288t-279.5 -222t-345 -84q-61 1 -172 15z" />
<glyph unicode="4" horiz-adv-x="1253" d="M35 76q145 195 348 558t348 714h31l127 -76l-78 -150q-150 -289 -270.5 -502.5t-243.5 -373.5q-8 -12 -20.5 -26.5t-24.5 -31.5q-66 -84 -80 -104l561 22l55 435l158 49l-57 -471l256 12l-19 -131h-256l-47 -375h-153l49 375h-653z" />
<glyph unicode="5" horiz-adv-x="1112" d="M82 -242l8 78q47 -8 94 -8q154 0 299.5 65.5t235.5 177t90 240.5q0 143 -72.5 221t-222.5 78q-109 0 -285 -67l-41 32l166 705h604l19 14h108l-45 -155h-573l-125 -480q53 20 125 36t133 16q174 0 283.5 -100.5t109.5 -280.5q0 -172 -115.5 -306.5t-297 -208 t-365.5 -73.5q-84 0 -133 16z" />
<glyph unicode="6" horiz-adv-x="1249" d="M133 471q0 240 111.5 468t307.5 396t437 236l27 -74q-229 -80 -410.5 -269.5t-257.5 -410.5q63 68 158.5 115t228.5 47q186 0 280.5 -109.5t94.5 -275.5q0 -156 -71.5 -298t-198.5 -229t-289 -87q-199 0 -308.5 138t-109.5 353zM299 451q0 -174 72.5 -277.5t212.5 -103.5 q114 0 194 73.5t120 186t40 225.5q0 150 -64.5 234.5t-181.5 84.5q-139 0 -220 -53t-142 -127q-31 -129 -31 -243z" />
<glyph unicode="7" horiz-adv-x="1095" d="M96 811l66 336h893l26 -37l-608 -1429l-168 55l649 1284h-669l-82 -213z" />
<glyph unicode="8" horiz-adv-x="1206" d="M115 334q-1 281 411 457q-104 84 -169.5 172t-65.5 194q0 113 59.5 200t165 135t236.5 48q168 0 271 -87t103 -234q0 -252 -366 -424q137 -96 219 -192.5t82 -211.5q0 -125 -73 -219t-191.5 -143t-251.5 -49q-109 0 -207 38.5t-160.5 118.5t-62.5 197zM283 360 q0 -131 75.5 -211.5t208.5 -80.5q88 0 163 37.5t120 106.5t45 157q0 70 -40 130t-102.5 111.5t-168.5 124.5q-127 -55 -213 -151.5t-88 -223.5zM442 1174q0 -96 65.5 -172t184.5 -160q129 55 204 149t75 215t-65.5 186.5t-168.5 65.5q-127 0 -211 -80t-84 -204z" />
<glyph unicode="9" horiz-adv-x="1245" d="M133 563q0 145 66.5 282.5t193.5 225.5t295 88q133 0 227.5 -62.5t142.5 -171t48 -245.5q0 -248 -111.5 -478.5t-307 -398.5t-437.5 -235l-27 74q154 53 289 159.5t234.5 242.5t148.5 280q-66 -68 -163 -115t-226 -47q-127 0 -211 57t-123 148.5t-39 195.5zM295 600 q0 -154 69.5 -245t182.5 -91q135 0 216 53.5t146 126.5q31 119 31 252q0 166 -72.5 270.5t-212.5 104.5q-114 0 -195 -72.5t-123 -182t-42 -216.5z" />
<glyph unicode=":" horiz-adv-x="528" d="M26 74q0 61 39 103t90 42q47 0 71.5 -24.5t24.5 -65.5q0 -66 -40.5 -106.5t-94.5 -40.5q-39 0 -64.5 24.5t-25.5 67.5zM135 883q0 61 39 103t90 42q47 0 71.5 -24.5t24.5 -65.5q0 -66 -40.5 -106.5t-94.5 -40.5q-39 0 -64.5 24.5t-25.5 67.5z" />
<glyph unicode=";" horiz-adv-x="528" d="M-20 -438l4 18q90 47 156.5 137t66.5 211q0 74 -33.5 129.5t-81.5 69.5l3 39l118 100q84 -33 126 -113.5t42 -177.5q0 -164 -101 -294t-251 -185zM127 883q0 61 39 103t90 42q47 0 71.5 -24.5t24.5 -65.5q0 -66 -40.5 -106.5t-94.5 -40.5q-39 0 -64.5 24.5t-25.5 67.5z " />
<glyph unicode="&#x3c;" horiz-adv-x="1368" d="M199 698l12 105l1010 520l-19 -162l-840 -409l742 -414l-19 -162z" />
<glyph unicode="=" horiz-adv-x="1062" d="M84 352l12 129h815l-14 -129h-813zM154 862l12 129h815l-14 -129h-813z" />
<glyph unicode="&#x3e;" horiz-adv-x="1368" d="M217 180l19 162l840 409l-742 414l19 162l886 -522l-12 -105z" />
<glyph unicode="?" horiz-adv-x="1015" d="M252 713q0 86 75.5 148.5t231.5 142.5q100 49 158.5 91t103.5 109q27 66 27 121q0 166 -96.5 260t-272.5 94q-127 0 -207 -37l23 117q25 23 93.5 39.5t135.5 16.5q252 0 356.5 -119t104.5 -301q0 -131 -61 -228q-47 -80 -116 -131t-187 -118q-86 -49 -125 -76t-70 -66 t-31 -90t9.5 -107.5t19.5 -86.5l-107 -33l-12 2q-22 37 -37.5 108.5t-15.5 143.5zM295 74q0 61 39 103t90 42q47 0 71.5 -24.5t24.5 -65.5q0 -66 -40 -106.5t-95 -40.5q-39 0 -64.5 24.5t-25.5 67.5z" />
<glyph unicode="@" horiz-adv-x="1968" d="M117 326q0 354 146.5 630.5t394 430t542.5 153.5q203 0 353.5 -77t233.5 -220t83 -342q0 -264 -91 -468t-229.5 -313.5t-275.5 -109.5q-63 0 -81.5 48t-18.5 143q0 39 12 119.5t35 166.5q-80 -195 -186.5 -342t-211.5 -147q-72 0 -136 46t-105 141.5t-41 234.5 q0 156 61.5 309.5t184 254.5t298.5 101q53 0 120 -13t106 -40l135 25q-33 -123 -66.5 -302.5t-48.5 -324.5q-20 -207 -16 -242q4 -57 41 -57q90 0 182 101.5t151.5 267.5t59.5 344q0 301 -173 444.5t-441 143.5q-266 0 -471 -145.5t-315.5 -386.5t-110.5 -515 q0 -246 91 -423t250.5 -268t360.5 -91q104 0 212 23.5t159 51.5l26 -71q-70 -55 -180 -86t-237 -31q-231 0 -413.5 102.5t-286 292t-103.5 441.5zM686 436q0 -139 45 -220t119 -81q63 0 146 119t159 299t117 348q-29 39 -88.5 59.5t-110.5 20.5q-137 0 -224 -81t-125 -205 t-38 -259z" />
<glyph unicode="A" horiz-adv-x="1341" d="M-123 0l8 72l140 22l704 1428h166l260 -1424l168 -26l-4 -72h-514l4 72l182 22l-59 365h-586l-172 -363l184 -24l-6 -72h-475zM393 557h520l-114 707l-15 122z" />
<glyph unicode="B" horiz-adv-x="1286" d="M25 0l8 72l149 24l166 1323l-137 21l8 82h246q41 0 71.5 2t51.5 4q106 8 164 8q225 0 334.5 -92t109.5 -236q0 -156 -84 -257t-235 -144q133 -16 222 -104.5t89 -219.5q0 -254 -188.5 -375.5t-483.5 -121.5q-43 0 -141 8q-29 2 -61.5 4t-67.5 2h-221zM344 104 q27 -8 95.5 -13t111.5 -5q213 0 339 90t126 287q0 272 -326 272q-166 0 -268 -4zM434 840h76h156q164 0 266 89t102 261q0 127 -75.5 189.5t-245.5 62.5q-41 0 -98.5 -3t-106.5 -9z" />
<glyph unicode="C" horiz-adv-x="1236" d="M88 649q0 262 101.5 464t272.5 313.5t372 111.5q119 0 193.5 -12.5t158.5 -34.5l43 -14l-62 -365h-100l-8 277q-41 24 -96.5 37.5t-149.5 13.5q-178 0 -303 -117t-186.5 -295t-61.5 -360q0 -242 93.5 -413t289.5 -171q84 0 172 25.5t125 70.5q37 119 66 223h100l-41 -329 q-119 -41 -218 -65.5t-235 -24.5q-182 0 -299.5 96t-172 247.5t-54.5 321.5z" />
<glyph unicode="D" horiz-adv-x="1425" d="M23 0l6 72l151 24l168 1323l-137 21l8 82h268q41 0 131 8q106 8 162 8q301 0 440.5 -168t139.5 -469q0 -260 -98.5 -472t-276.5 -332q-168 -113 -385 -113h-25q-106 8 -110 8q-90 8 -211 8h-231zM344 109q57 -13 137 -20t133 -7q188 8 319.5 125t196 299t64.5 389 q0 291 -106.5 419t-350.5 128q-88 0 -227 -19z" />
<glyph unicode="E" horiz-adv-x="1226" d="M23 0l6 72l153 22l166 1325l-139 21l10 82h930l-8 -314h-90l-35 213l-502 13l-76 -592l480 8l-11 -131l-479 14l-84 -635l610 19l113 233l88 -26l-88 -324h-1044z" />
<glyph unicode="F" horiz-adv-x="1155" d="M25 0l6 72l151 24l166 1323l-139 21l10 82h969l-21 -314h-102l-21 209l-534 15l-74 -592l508 8l-12 -133l-504 14l-84 -631l242 -26l-8 -72h-553z" />
<glyph unicode="G" horiz-adv-x="1345" d="M98 641q0 266 101.5 470t271.5 315.5t371 111.5q133 0 223 -15.5t178 -39.5l39 -13l-57 -296h-105l-4 202q-47 31 -113.5 48.5t-179.5 17.5q-178 0 -304 -119t-188.5 -301t-62.5 -371q0 -147 41 -276t128 -211t218 -82q94 0 189.5 24.5t148.5 71.5l62 436l-277 15l10 96 h449l-90 -631q-35 -4 -76 -16t-55 -17q-119 -37 -210 -57t-196 -20q-174 0 -289.5 95t-169 244.5t-53.5 317.5z" />
<glyph unicode="H" horiz-adv-x="1523" d="M25 0l8 72l149 24l166 1323l-137 21l10 82h451l-10 -82l-150 -21l-76 -590h715l74 590l-150 21l8 82h455l-10 -82l-144 -21l-163 -1323l155 -24l-8 -72h-477l6 72l164 24l76 627h-715l-78 -627l156 -24l-6 -72h-469z" />
<glyph unicode="I" horiz-adv-x="694" d="M43 0l6 72l150 24l168 1323l-138 21l11 82h450l-8 -82l-154 -21l-166 -1323l158 -24l-6 -72h-471z" />
<glyph unicode="J" horiz-adv-x="694" d="M-158 -272q137 37 240.5 138t130.5 224q37 162 63.5 376t69.5 621q14 158 35 334l-166 19l10 82h494l-8 -82l-172 -19q-9 -76 -15 -121q-66 -594 -100.5 -879.5t-52.5 -344.5q-55 -188 -189.5 -289.5t-308.5 -130.5z" />
<glyph unicode="K" horiz-adv-x="1355" d="M25 0l8 72l149 24l166 1323l-137 21l8 82h451l-8 -82l-152 -21l-98 -778l698 778l-137 21l10 82h414l-13 -82l-118 -19l-555 -596q22 -34 110 -184q23 -37 67 -111.5t70 -115.5q106 -172 145.5 -228.5t70.5 -72.5l133 -35l-11 -78h-252q-25 2 -61.5 61.5t-103.5 182.5 l-60 106q-68 115 -155 273q-55 100 -54 96l-219 -236l-47 -387l156 -24l-6 -72h-469z" />
<glyph unicode="L" horiz-adv-x="1173" d="M27 0l6 72l149 24l166 1323l-137 21l8 82h475l-6 -82l-178 -21l-168 -1323l535 8l131 353l94 -19l-96 -438h-979z" />
<glyph unicode="M" horiz-adv-x="1882" d="M-51 0l8 72l172 24l332 1323l-189 21l11 82h413l174 -1047l29 -219l100 215q60 152 248 545q182 391 230 506h389l-11 -82l-180 -21l-39 -1323l170 -24l-6 -72h-520l8 72l187 22l41 922l28 420l-155 -371l-490 -1069l-90 -14l-178 1058l-68 396l-84 -404l-219 -936 l199 -24l-6 -72h-504z" />
<glyph unicode="N" horiz-adv-x="1511" d="M29 0l6 72l139 22l174 1325l-145 21l12 82h309l508 -1137l80 -227l152 1263l-164 19l10 82h436l-6 -82l-154 -21l-194 -1419h-160l-504 1133l-79 227l-142 -1264l172 -24l-6 -72h-444z" />
<glyph unicode="O" horiz-adv-x="1386" d="M113 637q0 256 91 463t250.5 324.5t356.5 117.5q166 0 279.5 -87t169 -234.5t55.5 -329.5q0 -256 -89 -464t-248 -327.5t-357 -119.5q-164 0 -278 86t-172 234.5t-58 336.5zM279 659q0 -264 96 -422.5t268 -158.5q141 0 255 100.5t179.5 278.5t65.5 401q0 266 -91 424 t-266 158q-143 0 -258.5 -100.5t-182 -278.5t-66.5 -402z" />
<glyph unicode="P" horiz-adv-x="1228" d="M25 0l8 72l149 24l166 1323l-137 21l8 82h234q55 0 153 8t152 8q463 0 463 -401q0 -186 -83 -320.5t-224.5 -204t-313.5 -69.5q-55 0 -203 8l-51 -455l186 -24l-6 -72h-501zM412 657q94 -16 194 -16q221 2 332 129t111 373q0 150 -70 224.5t-229 74.5q-47 0 -117 -6 t-121 -15z" />
<glyph unicode="Q" horiz-adv-x="1390" d="M111 637q0 256 91 463t249.5 324.5t357.5 117.5q166 0 278.5 -88t168 -235.5t55.5 -331.5q0 -240 -80 -438.5t-221.5 -320.5t-321.5 -142q2 -117 82 -159t215 -42q51 0 116.5 14.5t110.5 36.5l2 -115q-40 -32 -121 -57.5t-163 -25.5q-147 0 -249.5 73.5t-102.5 208.5 q0 31 6 62q-154 8 -260.5 96t-159.5 233.5t-53 325.5zM276 662q0 -264 95.5 -423t267.5 -159q141 0 256 100.5t180.5 278.5t65.5 399q0 266 -92.5 424t-266.5 158q-141 0 -256.5 -100.5t-182.5 -277.5t-67 -400z" />
<glyph unicode="R" horiz-adv-x="1337" d="M39 0l6 72l137 24l166 1323l-137 21l8 82h246q43 0 129 8q90 8 135 8q252 0 365.5 -84t113.5 -268q0 -180 -107.5 -313.5t-287.5 -182.5q49 -37 101.5 -127t119.5 -223q10 -25 31 -66q43 -96 64.5 -132t51 -48t95.5 -12l-2 -82h-205q-35 0 -70.5 51t-93.5 195 q-84 201 -146.5 312.5t-119.5 113.5h-152h-81l-66 -576l186 -24l-6 -72h-481zM418 768q55 -2 129 -3h47q44 0 76 1q113 6 197.5 61.5t130.5 145.5t46 201q0 139 -76.5 203.5t-269.5 64.5q-35 0 -89 -5t-103 -12z" />
<glyph unicode="S" horiz-adv-x="1087" d="M51 66l41 280h98l13 -209q41 -29 113.5 -46t148.5 -17q86 0 167 31.5t132 96t51 160.5q0 111 -67.5 183.5t-196.5 150.5q-109 68 -179.5 123t-121.5 137t-51 189q0 115 64.5 206t173 141t237.5 50q131 0 224 -25.5t142 -60.5l-45 -262h-90l-10 195q-35 24 -96.5 40.5 t-139.5 16.5q-121 0 -211 -63.5t-90 -182.5q0 -84 40 -148.5t99.5 -110.5t151.5 -103q119 -78 177.5 -123t104.5 -120t46 -177q0 -133 -66.5 -233.5t-184.5 -154t-265 -53.5q-129 0 -249 29t-161 60z" />
<glyph unicode="T" horiz-adv-x="1236" d="M84 1067l72 455h1151l-62 -455l-88 -2l14 352l-372 17l-174 -1338l252 -18l-7 -78h-657l4 78l246 18l172 1338l-369 -17l-90 -348z" />
<glyph unicode="U" horiz-adv-x="1382" d="M131 1440l8 82h461l-8 -82l-156 -21l-108 -813q-12 -77 -12 -155q0 -17 1 -33q4 -164 81 -255t231 -91q190 0 296.5 136t141.5 419l104 792l-135 21l8 82h404l-8 -82l-131 -19l-105 -794q-45 -346 -190.5 -496.5t-409.5 -150.5q-215 0 -330.5 118.5t-119.5 327.5 q-1 21 -1 42q0 63 9 126l108 827z" />
<glyph unicode="V" horiz-adv-x="1210" d="M57 1440l9 82h491l-8 -82l-180 -21l143 -966l39 -312l121 312l426 966l-152 21l8 82h404l-8 -82l-117 -19l-651 -1431l-144 -10l-241 1439z" />
<glyph unicode="W" horiz-adv-x="1802" d="M31 1440l10 82h479l-6 -82l-182 -17l127 -985l41 -293l84 238l348 895l-17 143l-137 19l8 82h488l-17 -82l-176 -19l99 -983l20 -293l100 258l426 1016l-155 21l8 82h432l-12 -82l-139 -21l-621 -1429h-166l-108 1067l-424 -1067h-162l-203 1429z" />
<glyph unicode="X" horiz-adv-x="1298" d="M-63 0l8 72l135 22l508 674l-307 649l-150 23l8 82h510l-8 -82l-174 -19l229 -547l381 545l-170 21l8 82h467l-6 -82l-145 -19l-486 -645l338 -680l164 -24l-4 -72h-532l6 72l176 22l-258 572l-399 -570l178 -24l-8 -72h-469z" />
<glyph unicode="Y" horiz-adv-x="1181" d="M57 1440l6 82h492l-12 -82l-185 -21l240 -594l47 -137l80 137l362 594l-157 21l10 82h408l-11 -82l-110 -19l-531 -833l-63 -492l223 -24l-8 -72h-610l6 72l233 24l64 492l-367 831z" />
<glyph unicode="Z" horiz-adv-x="1198" d="M2 74l846 1147l174 206l-649 -6l-88 -266l-99 21l60 346h944l18 -70l-866 -1180l-143 -184l714 23l123 274l97 -29l-93 -356h-1015z" />
<glyph unicode="[" horiz-adv-x="856" d="M195 -70q0 59 2 93q8 117 46 380t79 527q59 373 88 596q14 117 53 160t131 43q74 0 170 -18.5t108 -20.5l-12 -72h-289l-233 -1690l295 -2l-8 -71q-152 -37 -293 -37q-74 0 -105.5 24.5t-31.5 87.5z" />
<glyph unicode="\" horiz-adv-x="854" d="M127 1599h139l578 -1961h-139z" />
<glyph unicode="]" horiz-adv-x="856" d="M33 -134l12 72h289l233 1690l-295 2l8 71q152 37 293 37q74 0 105.5 -24.5t31.5 -87.5q0 -59 -2 -93q-8 -117 -46 -380t-79 -527q-59 -373 -88 -596q-14 -117 -53 -160t-131 -43q-74 0 -170 18.5t-108 20.5z" />
<glyph unicode="^" horiz-adv-x="1363" d="M184 414l414 1118h162l418 -1118h-129l-369 940l-369 -940h-127z" />
<glyph unicode="_" horiz-adv-x="1335" d="M-143 -338l16 123h1376l-14 -123h-1378z" />
<glyph unicode="`" horiz-adv-x="540" d="M55 1610l121 119l301 -424l-53 -50q-76 45 -203 166t-166 189z" />
<glyph unicode="a" horiz-adv-x="1175" d="M86 412q0 166 78 341t224.5 292.5t340.5 117.5q43 0 100.5 -10t102.5 -25l112 33l-133 -985q-2 -10 -2 -24q0 -33 13.5 -47.5t27.5 -14.5q20 0 40 13.5t50 43.5l29 -45q-8 -16 -38 -45.5t-73 -53t-90 -23.5q-119 0 -119 118q0 8 1 17l12 84q-70 -90 -163 -154.5 t-193 -64.5q-162 0 -241 116.5t-79 315.5zM254 430q0 -158 46 -245t140 -87q92 0 183.5 73t152.5 161l90 686q-65 45 -159 45q-141 0 -244 -97.5t-156 -245t-53 -290.5z" />
<glyph unicode="b" horiz-adv-x="1177" d="M127 -4l203 1517l-99 35l19 70l213 33l41 -25l-86 -649q53 78 141 132t191 54q168 0 254 -117.5t86 -316.5q0 -164 -77 -339t-222.5 -292.5t-335.5 -117.5q-61 0 -131 16t-115 37zM303 129q59 -49 174 -49q141 0 242.5 100.5t153 250t51.5 288.5q0 154 -53.5 239.5 t-151.5 85.5t-186.5 -64.5t-135.5 -141.5z" />
<glyph unicode="c" horiz-adv-x="894" d="M76 436q0 164 69.5 333t202.5 281.5t314 112.5q57 0 119.5 -13t103.5 -36l-47 -164l-23 17q-45 32 -95 53.5t-95 21.5q-115 0 -201 -74.5t-132 -207.5t-46 -307q0 -176 62.5 -266.5t174.5 -90.5q84 0 146.5 31t142.5 94l33 -67q-53 -66 -146.5 -120t-222.5 -54 q-170 0 -265 121.5t-95 334.5z" />
<glyph unicode="d" horiz-adv-x="1179" d="M82 412q0 166 78 341t224 292.5t341 117.5q76 0 170 -26l59 376l-131 33l17 70l245 35l43 -25l-215 -1464q-2 -9 -2 -25q0 -23 7.5 -35t19.5 -12q37 0 96 53l27 -45q-23 -35 -79 -76.5t-126 -41.5q-104 0 -104 110v14v56q-57 -76 -145.5 -128t-190.5 -52 q-164 0 -249 117.5t-85 314.5zM250 424q0 -154 51 -240t145 -86q98 0 186.5 61.5t135.5 137.5l109 713q-62 53 -177 53q-143 0 -245.5 -101.5t-153.5 -250t-51 -287.5z" />
<glyph unicode="e" horiz-adv-x="1052" d="M90 418q0 193 78 364.5t212 276t298 104.5q139 0 211 -69.5t72 -180.5q0 -145 -123 -244.5t-289 -149.5t-287 -52q-2 -14 -2 -47q0 -131 61.5 -227.5t188.5 -96.5q88 0 182 41t174 121l39 -70q-53 -73 -168.5 -140.5t-251.5 -67.5q-135 0 -223 61t-130 160.5t-42 216.5z M266 559q117 4 241 46t208 118t84 176q-2 82 -43 125t-115 43q-104 0 -186 -80t-130.5 -197.5t-58.5 -230.5z" />
<glyph unicode="f" horiz-adv-x="700" d="M-213 -504l41 139q14 -8 69.5 -21t92.5 -13q63 0 98 69.5t49 196.5l152 1169h-142l17 64l143 49l15 98q18 115 78.5 212t146.5 153.5t178 56.5q98 0 160 -24l-45 -138q-63 43 -139 43h-7q-86 0 -141 -76.5t-74 -207.5l-12 -113h260l-12 -117h-262l-146 -1099 q-27 -207 -118 -328t-236 -125q-16 -1 -32 -1q-33 0 -64 3q-47 4 -70 10z" />
<glyph unicode="g" horiz-adv-x="1153" d="M82 412q0 166 78 341t225 292.5t342 117.5q109 0 217 -43l117 43l-191 -1241q-20 -149 -107 -245.5t-202 -140.5t-225 -44q-61 0 -125 10.5t-96 24.5l39 151q49 -23 116.5 -40t139.5 -17q139 0 206.5 54.5t88.5 193.5l43 287q-59 -74 -145.5 -125t-186.5 -51 q-164 0 -249 117.5t-85 314.5zM250 424q0 -154 51 -240t145 -86q98 0 185.5 60.5t136.5 136.5l106 717q-63 51 -172 51q-143 0 -245.5 -101.5t-154.5 -250t-52 -287.5z" />
<glyph unicode="h" horiz-adv-x="1243" d="M121 0l198 1513l-114 33l12 70l236 35l41 -25l-101 -754q88 125 208 208t241 83q113 0 171 -68.5t58 -228.5q0 -90 -43 -305q-2 -12 -4 -26.5t-6 -28.5q-8 -35 -10 -62q-39 -190 -45 -284q-2 -35 6 -53.5t24 -18.5q20 0 43 13.5t64 48.5l24 -46q-10 -18 -40.5 -47.5 t-78 -53t-98.5 -23.5q-112 0 -112 108q0 55 16 146.5t18 107.5q2 6 21 115q27 135 41 226t14 173q0 98 -31.5 137t-101.5 39q-92 0 -204.5 -85t-190.5 -206l-101 -741h-155z" />
<glyph unicode="i" horiz-adv-x="634" d="M164 1051l12 65l260 43l41 -20l-139 -977q-2 -9 -2 -25q0 -23 9 -35t22 -12q41 0 106 68l27 -45q-27 -41 -86.5 -87t-130.5 -46q-55 0 -87 28q-28 25 -28 78v14q4 53 27.5 215t35.5 244l66 449zM328 1495q0 53 37.5 92t80.5 39t69 -26.5t26 -69.5q0 -55 -36 -94t-85 -39 q-37 0 -64.5 27.5t-27.5 70.5z" />
<glyph unicode="j" horiz-adv-x="647" d="M-215 -481l29 71q14 -6 41.5 -11t50.5 -5q137 0 203.5 129t93.5 354l108 953l-141 41l14 65l267 43l41 -20l-134 -1137q-28 -250 -137.5 -385t-281.5 -135q-49 0 -93.5 10t-60.5 27zM344 1495q0 53 37.5 92t80.5 39t69 -26.5t26 -69.5q0 -55 -36 -94t-85 -39 q-37 0 -64.5 27.5t-27.5 70.5z" />
<glyph unicode="k" horiz-adv-x="1069" d="M111 0l198 1513l-114 33l12 70l235 35l43 -25l-219 -1626h-155zM373 610q59 43 133 86q92 55 151.5 99.5t104.5 105.5q49 66 57 154q8 47 38 70.5t69 23.5q37 0 60.5 -24.5t23.5 -65.5q0 -55 -45 -121q-49 -70 -144.5 -135.5t-226.5 -138.5l-76 -43l289 -428 q29 -41 60.5 -66t58.5 -25q20 0 40.5 9.5t49.5 38.5l35 -58q-27 -45 -80 -78.5t-123 -33.5q-102 0 -168 108z" />
<glyph unicode="l" horiz-adv-x="608" d="M147 96l7 76l190 1341l-123 33l17 70l237 35l39 -25l-205 -1464l-2 -21q0 -25 8.5 -38t20.5 -13q43 0 108 68l27 -45q-23 -41 -80 -87t-137 -46q-106 0 -107 116z" />
<glyph unicode="m" horiz-adv-x="1896" d="M133 0l133 999l-98 48l14 73l215 43l39 -20l-26 -258q88 121 207.5 199.5t234.5 78.5q109 0 165 -63.5t60 -200.5q80 115 187.5 189.5t216.5 74.5t171 -71.5t62 -225.5q0 -47 -11 -122.5t-24 -149.5l-14 -88l-8 -45q-37 -221 -43 -301l-2 -25q0 -45 24 -45 q25 0 51.5 15.5t63.5 52.5l25 -45q-25 -39 -86.5 -86t-135.5 -47q-53 0 -79.5 27.5t-26.5 84.5q0 45 11 121t24 147l16 101l12 69q39 217 39 326q0 98 -30.5 136t-100.5 38q-78 0 -173 -73.5t-173 -184.5q-10 -100 -35 -266l-67 -506h-164l65 457q20 129 33 224t13 175 q-2 102 -30 139t-106 37q-88 0 -199.5 -84t-189.5 -203l-100 -745h-160z" />
<glyph unicode="n" horiz-adv-x="1259" d="M133 0l133 999l-98 48l14 73l215 43l39 -20l-26 -258q88 121 207.5 199.5t236.5 78.5q111 0 170 -68.5t59 -226.5q0 -90 -43 -309l-10 -53q-2 -16 -10 -53q-37 -215 -43 -293v-16q0 -54 24 -54q41 0 97 53l26 -47q-20 -31 -79.5 -73.5t-129.5 -42.5q-108 0 -108 112 q0 47 12 123t27 150l18 92l13 63q23 125 33 196.5t10 139.5q0 100 -31 138t-107 38q-88 0 -199.5 -85t-189.5 -204l-100 -743h-160z" />
<glyph unicode="o" horiz-adv-x="1146" d="M88 438v10q0 179 72 341q74 167 205 270.5t297 103.5q192 0 294.5 -125t102.5 -350q0 -180 -73 -343t-203 -264t-294 -101q-188 0 -292.5 119.5t-108.5 338.5zM258 453q0 -180 67.5 -276.5t194.5 -96.5q115 0 199 91t127 230.5t43 280.5q0 184 -63.5 282.5t-192.5 98.5 q-119 0 -204 -92t-128 -233.5t-43 -284.5z" />
<glyph unicode="p" horiz-adv-x="1159" d="M47 -520l207 1534l-109 41l15 65l225 43l39 -20l-21 -164q58 78 142 131t186 53q168 0 255 -117.5t87 -316.5q0 -166 -77.5 -341t-223 -291.5t-336.5 -116.5q-59 0 -162 24l-71 -524h-156zM291 127q61 -47 170 -47q137 0 237.5 98t152.5 246.5t52 294.5q0 156 -54 240.5 t-149 84.5q-94 0 -178 -60t-131 -136z" />
<glyph unicode="q" horiz-adv-x="1155" d="M82 412q0 166 78 341t224 292.5t341 117.5q49 0 107.5 -12t103.5 -31l96 21l-196 -1477q-2 -29 6 -51.5t18 -22.5q45 0 113 70l26 -47q-12 -18 -45.5 -50t-82 -56.5t-99.5 -24.5q-100 0 -100 110v13l71 545q-57 -72 -143 -121t-184 -49q-164 0 -249 117.5t-85 314.5z M250 424q0 -158 53 -242t143 -84q94 0 179.5 57.5t136.5 131.5l96 733q-64 43 -158 43q-141 0 -243.5 -99.5t-154.5 -248t-52 -291.5z" />
<glyph unicode="r" horiz-adv-x="835" d="M135 0l129 995l-104 47l14 74l215 43l39 -18l-14 -183l-13 -84q27 62 84.5 128.5t136 112.5t166.5 46q49 0 66 -12l-37 -178q-29 16 -94 16q-94 0 -190.5 -71.5t-149.5 -200.5l-88 -715h-160z" />
<glyph unicode="s" horiz-adv-x="870" d="M41 43l27 125q39 -29 115.5 -53.5t160.5 -24.5q100 0 168 39t68 133q0 55 -30 100.5t-65.5 75t-105.5 78.5q-82 55 -149.5 139t-67.5 193q0 94 52 165.5t140 110.5t195 39q74 0 149.5 -13t106.5 -28l-33 -139q-8 10 -41 28.5t-83 32t-107 13.5q-104 0 -165 -44t-61 -130 q0 -72 47.5 -127.5t131.5 -118.5q80 -61 122.5 -100t79.5 -101.5t37 -140.5q0 -150 -113.5 -232.5t-281.5 -82.5q-92 0 -181 19t-116 44z" />
<glyph unicode="t" horiz-adv-x="731" d="M141 1024l19 72l125 39q43 55 114 280h80l-37 -278h283l-16 -113h-279l-92 -678q-14 -120 -14 -153q0 -53 21.5 -75t76.5 -22q41 0 104.5 29t98.5 57l16 -63q-39 -47 -131 -93t-174 -46q-176 0 -176 167q0 53 10 129l96 748h-125z" />
<glyph unicode="u" horiz-adv-x="1206" d="M154 1044l12 72l219 43l39 -20l-70 -541l-12 -92q-8 -59 -14 -118.5t-6 -108.5q0 -106 38.5 -145.5t114.5 -39.5q82 0 175 64.5t153 150.5l110 842h158l-131 -987q-2 -8 -2 -25q0 -49 27 -49q43 0 112 70l25 -47q-12 -18 -45 -50t-81 -56.5t-97 -24.5q-47 0 -74 28.5 t-27 75.5q0 20 2 31q6 25 11 76l-3 2q-72 -92 -169 -153.5t-209 -61.5q-119 0 -182.5 61t-63.5 211q0 102 35 354l55 389z" />
<glyph unicode="v" horiz-adv-x="1060" d="M31 1057q16 29 68.5 66.5t113.5 37.5q66 0 91.5 -33.5t35.5 -103.5l78 -666l22 -221l148 191q104 147 167.5 286.5t86.5 300.5q1 7 1 15q0 42 -20 88q-12 37 -12 53q0 45 21.5 67.5t56.5 22.5q53 0 81.5 -52t28.5 -138q0 -133 -89 -314.5t-214 -353.5l-235 -311l-121 -12 l-61 372l-103 623q-10 67 -47 67q-33 0 -76 -38z" />
<glyph unicode="w" horiz-adv-x="1699" d="M31 1057q16 29 69.5 66.5t114.5 37.5q66 0 92.5 -32.5t36.5 -104.5l78 -705l20 -192l78 176l363 850h143l76 -836l16 -190l131 188q72 100 150 277.5t84 322.5v12q1 28 -7 54q-10 31 -12 37q-12 37 -12 53q0 43 20.5 66.5t57.5 23.5q106 0 106 -198q0 -125 -84 -305.5 t-202 -354.5l-201 -311l-150 -10l-36 342l-48 471l-10 133l-43 -135l-237 -496l-144 -305l-139 -12l-57 346l-107 649q-8 37 -18 52t-31 15q-18 2 -33.5 -8t-42.5 -30z" />
<glyph unicode="x" horiz-adv-x="1015" d="M-25 0l457 596l-164 389q-14 33 -29.5 48.5t-41.5 15.5q-29 0 -57.5 -17.5t-43.5 -36.5l-30 47q18 33 76.5 75t127.5 42q66 0 97.5 -25.5t48.5 -78.5l106 -363l328 459h170l-451 -584l187 -411q14 -33 28.5 -48.5t36.5 -15.5q51 0 117 72l31 -47q-8 -18 -42 -51 t-83 -59.5t-101 -26.5q-59 0 -87.5 25.5t-47.5 80.5l-129 385l-336 -471h-168z" />
<glyph unicode="y" horiz-adv-x="1073" d="M-119 -475l39 131q78 -39 170 -39q86 0 185.5 73.5t177.5 229.5h-78l-185 1053q-8 39 -19 53t-30 14q-18 0 -37.5 -12t-50.5 -43l-24 53q18 33 76.5 77t119.5 44q63 0 90 -33.5t35 -103.5l107 -766l28 -279l166 318q33 70 51 102q88 176 130 294t42 245q0 27 -8 49.5 t-10 26.5q-16 41 -16 61q0 43 21.5 63.5t56.5 20.5q53 0 82.5 -47t29.5 -133q0 -131 -58.5 -274.5t-160.5 -335.5l-37 -70q-111 -223 -204 -381t-160 -240q-127 -182 -340 -182q-43 0 -100.5 9.5t-88.5 21.5z" />
<glyph unicode="z" horiz-adv-x="1032" d="M10 29l670 815l143 157q-237 9 -415 9q-66 0 -70 -2q-49 -2 -84 -62.5t-39 -136.5h-65q-1 15 -1 30q0 73 16 163q19 110 58 137q27 20 92 20q82 0 308 -16q186 -14 264 -15q57 0 96 29l43 -45l-489 -643l-308 -334l451 -8q78 0 119 49t55 146h66q-6 -111 -27 -203 t-62 -121q-37 -20 -100 -21q-63 0 -171.5 8.5t-141.5 10.5q-205 16 -256 16q-55 0 -99 -35z" />
<glyph unicode="{" horiz-adv-x="1021" d="M178 725l15 102q125 29 198 64q70 31 76 76l86 559q12 82 31.5 124t56.5 59t98 17q55 0 145.5 -15t119.5 -21q-2 -8 -5.5 -32t-5.5 -40h-276l-99 -647q-6 -41 -31.5 -72t-74.5 -55q-37 -16 -85 -37t-79 -31q119 -57 156 -90q55 -43 55 -92q0 -12 -2 -19l-96 -647h274 l-8 -73q-84 -18 -142.5 -27.5t-131.5 -9.5q-76 0 -108 24.5t-30 89.5q0 15 40 282t55 366q2 41 -62 75q-66 41 -170 70z" />
<glyph unicode="|" horiz-adv-x="854" d="M381 -186v1966h135v-1966h-135z" />
<glyph unicode="}" horiz-adv-x="1021" d="M55 -144q2 8 5.5 32t5.5 40h276l99 647q6 41 31.5 72t74.5 55q37 16 85 37t79 31q-119 57 -156 90q-55 43 -55 92q0 12 2 19l96 647h-274l8 73q84 18 142.5 27.5t131.5 9.5q76 0 108 -24.5t30 -89.5q0 -15 -40 -282t-55 -366q-2 -41 62 -75q66 -41 170 -70l-15 -102 q-125 -29 -198 -64q-70 -31 -76 -76l-86 -559q-12 -82 -31.5 -124t-56.5 -59t-98 -17q-55 0 -145.5 15t-119.5 21z" />
<glyph unicode="~" horiz-adv-x="1136" d="M154 848q14 43 59 90t109.5 79t136.5 32q53 0 94 -24t96 -71q49 -41 81 -60.5t71 -19.5q70 0 122 36t87 91l57 -63q-23 -78 -105.5 -140.5t-189.5 -62.5q-55 0 -97 24.5t-97 71.5q-49 41 -80 59.5t-68 18.5q-68 0 -124 -32.5t-97 -94.5z" />
<glyph unicode="&#xa2;" horiz-adv-x="1056" d="M147 432q0 147 58.5 303t170 271.5t263.5 146.5l41 244h119l-41 -236q47 -2 117.5 -23.5t115.5 -43.5l-45 -164l-45 2q-29 47 -84 78.5t-119 31.5q-115 0 -200.5 -74.5t-133 -208.5t-47.5 -306q0 -176 61.5 -266.5t176.5 -90.5q84 0 145.5 30t143.5 95l33 -67 q-49 -57 -132 -109.5t-196 -62.5l-51 -224h-117l53 230q-137 25 -212 141.5t-75 302.5z" />
<glyph unicode="&#xa3;" horiz-adv-x="1376" d="M6 59q4 31 39 64t87 55.5t108 22.5q51 61 94 284l45 263h-189l15 108h192l23 137q23 147 97.5 273.5t188 203t250.5 76.5q96 0 155.5 -16.5t107.5 -65.5l-89 -139q-27 35 -95 71t-152 36q-104 0 -188.5 -102.5t-116.5 -330.5q-2 -10 -15 -86l-10 -57h332l-13 -108h-340 q-4 -16 -8 -54l-10 -51q-31 -172 -67.5 -275.5t-98.5 -195.5q23 -6 109 -33q100 -33 169.5 -50t151.5 -17q319 0 320 243q0 51 -28 104.5t-60 80.5l110 106q63 -49 102.5 -120.5t39.5 -153.5q0 -145 -105.5 -251t-359.5 -106q-119 0 -222.5 26t-230.5 73l-65 22 q-33 -45 -95.5 -78.5t-115.5 -33.5q-31 0 -49.5 17t-12.5 58z" />
<glyph unicode="&#xa5;" horiz-adv-x="1449" d="M201 1440l8 82h498l-9 -82l-202 -15l247 -464l45 -144l91 150l335 458l-165 15l10 82h446l-8 -80l-127 -25l-455 -575h363l-10 -109h-424l-29 -246h422l-10 -106h-424l-33 -285l242 -24l-6 -72h-629l6 72l242 24l32 285h-424l13 106h424l28 246h-424l13 109h368l-325 581 z" />
<glyph unicode="&#xa8;" horiz-adv-x="808" d="M86 1499q2 53 36 90t81 37q43 0 68.5 -26.5t25.5 -69.5q-2 -55 -37 -93t-84 -38q-37 0 -63.5 28.5t-26.5 71.5zM510 1499q2 53 36 90t81 37q43 0 68.5 -26.5t25.5 -69.5q-2 -55 -37 -93t-86 -38q-37 0 -62.5 28.5t-25.5 71.5z" />
<glyph unicode="&#xa9;" horiz-adv-x="2148" d="M264 1004q0 239 116 440t315.5 318.5t439.5 117.5t439.5 -117.5t315 -318.5t115.5 -440q0 -240 -115.5 -443t-315.5 -320.5t-439 -117.5q-240 0 -439.5 117.5t-315.5 320.5t-116 443zM377 1004q0 -211 100.5 -390.5t274.5 -285t383 -105.5t382 106.5t273 286t100 388.5 t-100 388t-273.5 284.5t-381.5 105.5q-209 0 -383 -105.5t-274.5 -285t-100.5 -387.5zM692 993q0 139 65.5 254t181.5 181.5t259 66.5q74 0 151.5 -16.5t104.5 -42.5v-219h-100l-39 133q-27 16 -66 25t-112 9q-131 0 -205 -96t-74 -262q0 -172 93 -275.5t247 -103.5 q66 0 124 25.5t101 68.5l43 -73q-49 -59 -138 -105.5t-189 -46.5q-215 0 -331 131t-116 346z" />
<glyph unicode="&#xab;" horiz-adv-x="1361" d="M121 563l14 117l533 442l82 -65l-441 -451l277 -420l-80 -71zM655 563l13 117l542 442l84 -65l-450 -451l284 -420l-77 -71z" />
<glyph unicode="&#xad;" horiz-adv-x="1271" d="M225 592l19 129h827l-18 -129h-828z" />
<glyph unicode="&#xae;" horiz-adv-x="2148" d="M264 1004q0 239 116 440t315.5 318.5t439.5 117.5t439.5 -117.5t315 -318.5t115.5 -440q0 -240 -115.5 -443t-315.5 -320.5t-439 -117.5q-240 0 -439.5 117.5t-315.5 320.5t-116 443zM377 1004q0 -211 100.5 -390.5t274.5 -285t383 -105.5t382 106.5t273 286t100 388.5 t-100 388t-273.5 284.5t-381.5 105.5q-209 0 -383 -105.5t-274.5 -285t-100.5 -387.5zM739 518v78l97 22v756l-97 21v86h156q57 0 152 4l104 2q178 0 272.5 -65.5t94.5 -182.5t-61.5 -195.5t-164.5 -101.5q61 -29 92 -73t60 -115q27 -70 56.5 -105t90.5 -41v-90h-139 q-66 0 -94.5 43t-54.5 131q-27 90 -58 142.5t-94 78.5l-174 2v-301l110 -18v-78h-348zM977 1024q33 -6 180 -6q82 0 138.5 56t56.5 136q0 96 -55.5 138.5t-172.5 42.5q-88 0 -147 -11v-356z" />
<glyph unicode="&#xb4;" horiz-adv-x="475" d="M152 1362l323 424l113 -113q-20 -35 -92 -110.5t-154 -148.5t-139 -103z" />
<glyph unicode="&#xb8;" horiz-adv-x="479" d="M10 -436l13 121q12 -8 40.5 -13.5t61.5 -5.5q90 0 138 66.5t48 179.5q0 55 -16 108l39 5l43 -5q35 -59 35 -159q0 -162 -75 -245t-196 -83q-39 0 -76.5 9t-54.5 22z" />
<glyph unicode="&#xbb;" horiz-adv-x="1355" d="M80 186l442 437l-295 434l97 65l383 -463l-13 -114l-530 -430zM621 186l432 437l-287 434l98 65l375 -463l-14 -114l-523 -430z" />
<glyph unicode="&#x2c6;" horiz-adv-x="794" d="M53 1282l346 371h140l202 -373l-61 -45l-231 291l-347 -289z" />
<glyph unicode="&#x2da;" horiz-adv-x="722" d="M96 1487q0 98 51.5 164.5t129 97.5t161.5 31q127 0 197 -57.5t70 -161.5q0 -100 -48.5 -169t-124 -103t-161.5 -34q-131 0 -203 61.5t-72 170.5zM203 1503q0 -78 49 -128t129 -50q96 0 158.5 51t62.5 166q0 76 -48 122t-128 46q-94 0 -158.5 -50t-64.5 -157z" />
<glyph unicode="&#x2dc;" horiz-adv-x="815" d="M47 1460q35 68 102.5 117t139.5 49q47 0 78.5 -20.5t70.5 -59.5q31 -33 55.5 -49t55.5 -16q53 0 89 32.5t71 83.5l49 -77q-25 -74 -92.5 -125.5t-145.5 -51.5q-55 0 -90 21.5t-72 60.5q-31 35 -52 50.5t-56 15.5q-72 0 -164 -102z" />
<glyph unicode="&#x400;" horiz-adv-x="1226" d="M23 0l6 72l153 22l166 1325l-139 21l10 82h930l-8 -314h-90l-35 213l-502 13l-76 -592l480 8l-11 -131l-479 14l-84 -635l610 19l113 233l88 -26l-88 -324h-1044zM443 1905l104 96l274 -348l-55 -39q-84 47 -186.5 134t-136.5 157z" />
<glyph unicode="&#x401;" horiz-adv-x="1226" d="M23 0l6 72l153 22l166 1325l-139 21l10 82h930l-8 -314h-90l-35 213l-502 13l-76 -592l480 8l-11 -131l-479 14l-84 -635l610 19l113 233l88 -26l-88 -324h-1044zM453 1821q0 53 36.5 92t79.5 39t69 -28t24 -69q0 -55 -35 -92t-84 -37q-37 0 -63.5 28t-26.5 67zM879 1827 q0 53 36.5 89t79.5 36q41 0 67 -25.5t26 -66.5q0 -57 -34 -95.5t-85 -38.5q-39 0 -64.5 29t-25.5 72z" />
<glyph unicode="&#x402;" horiz-adv-x="1605" d="M88 1071l78 451h1253l-61 -449h-103l13 352l-443 13l-84 -664q225 96 424 96q221 0 301 -108.5t80 -251.5q0 -111 -56 -231.5t-161.5 -201.5t-241.5 -81q-39 0 -71 4l6 78q25 -4 90 6q82 12 141.5 71.5t89 141.5t29.5 154q0 147 -61.5 229t-218.5 82q-92 0 -170 -18.5 t-128.5 -36t-62.5 -21.5l-74 -588l209 -26l-6 -72h-575l10 72l205 26l168 1340l-381 -13l-94 -354h-105z" />
<glyph unicode="&#x403;" horiz-adv-x="1077" d="M8 0l8 72l166 24l164 1321l-172 25l10 80h926l-41 -471h-108l-7 372l-446 9l-166 -1336l328 -24l-6 -72h-656zM574 1706l303 307l100 -96q-43 -63 -146.5 -136t-191.5 -114z" />
<glyph unicode="&#x404;" horiz-adv-x="1226" d="M88 649q0 262 101.5 464t272.5 313.5t372 111.5q119 0 193.5 -12.5t158.5 -34.5l43 -14l-62 -365h-100l-8 277q-41 24 -96.5 37.5t-149.5 13.5q-150 0 -262.5 -84t-181 -220.5t-95.5 -295.5l658 16l-29 -141q-449 14 -637 35q-6 -57 -4 -107q4 -233 97.5 -396t285.5 -163 q84 0 172 25.5t125 70.5q37 119 66 223h100l-41 -329q-119 -41 -218 -65.5t-235 -24.5q-182 0 -299.5 96t-172 247.5t-54.5 321.5z" />
<glyph unicode="&#x405;" horiz-adv-x="1087" d="M51 66l41 280h98l13 -209q41 -29 113.5 -46t148.5 -17q86 0 167 31.5t132 96t51 160.5q0 111 -67.5 183.5t-196.5 150.5q-109 68 -179.5 123t-121.5 137t-51 189q0 115 64.5 206t173 141t237.5 50q131 0 224 -25.5t142 -60.5l-45 -262h-90l-10 195q-35 24 -96.5 40.5 t-139.5 16.5q-121 0 -211 -63.5t-90 -182.5q0 -84 40 -148.5t99.5 -110.5t151.5 -103q119 -78 177.5 -123t104.5 -120t46 -177q0 -133 -66.5 -233.5t-184.5 -154t-265 -53.5q-129 0 -249 29t-161 60z" />
<glyph unicode="&#x406;" horiz-adv-x="694" d="M43 0l6 72l150 24l168 1323l-138 21l11 82h450l-8 -82l-154 -21l-166 -1323l158 -24l-6 -72h-471z" />
<glyph unicode="&#x407;" horiz-adv-x="694" d="M43 0l6 72l150 24l168 1323l-138 21l11 82h450l-8 -82l-154 -21l-166 -1323l158 -24l-6 -72h-471zM195 1821q0 53 36.5 92t79.5 39t69 -28t24 -69q0 -55 -35 -92t-84 -37q-37 0 -63.5 28t-26.5 67zM621 1827q0 53 36.5 89t79.5 36q41 0 67 -25.5t26 -66.5 q0 -57 -34 -95.5t-85 -38.5q-39 0 -64.5 29t-25.5 72z" />
<glyph unicode="&#x408;" horiz-adv-x="694" d="M-158 -272q137 37 240.5 138t130.5 224q37 162 63.5 376t69.5 621q14 158 35 334l-166 19l10 82h494l-8 -82l-172 -19q-9 -76 -15 -121q-66 -594 -100.5 -879.5t-52.5 -344.5q-55 -188 -189.5 -289.5t-308.5 -130.5z" />
<glyph unicode="&#x409;" horiz-adv-x="1892" d="M-57 37l37 170q16 -18 54 -36.5t85 -18.5q86 0 166 152.5t139 408.5t90 557l16 143l-215 27l9 82h1089l-10 -82l-180 -21l-74 -590q116 27 231 27q219 0 336 -91t117 -259q0 -166 -78 -284t-211 -178t-297 -60q-39 0 -106 6q-154 10 -183 10h-233l6 72l164 24l168 1336 h-432l-21 -170q-33 -311 -101.5 -603t-170.5 -483.5t-229 -191.5q-53 0 -88 12t-78 41zM1055 94q10 -2 68.5 -10t136.5 -8q184 0 295.5 106.5t111.5 298.5q0 131 -88 201t-248 70q-117 0 -194 -21z" />
<glyph unicode="&#x40a;" horiz-adv-x="2004" d="M25 0l8 72l149 24l166 1323l-137 21l10 82h451l-10 -82l-150 -21l-76 -590h715l74 590l-150 21l8 82h455l-10 -82l-144 -21l-71 -590q122 27 233 27q219 0 335 -91t116 -259q0 -166 -78 -284t-210 -178t-298 -60q-37 0 -108 6q-154 10 -181 10h-231l6 72l164 24l76 627 h-715l-78 -627l156 -24l-6 -72h-469zM1219 94q10 -2 68.5 -10t135.5 -8q186 0 298 106.5t112 298.5q0 131 -88 201t-248 70q-119 0 -197 -21z" />
<glyph unicode="&#x40b;" horiz-adv-x="1552" d="M76 1057l78 465h1247l-68 -467h-98l14 370l-438 9l-82 -596q78 43 173 64.5t192 21.5q162 0 244.5 -68t82.5 -248q0 -63 -8 -123l-49 -389l147 -24l-8 -72h-463l9 72l151 24l37 273q16 135 16 209q0 131 -50 181t-179 50q-76 0 -165 -18.5t-144 -47.5l-90 -647l192 -24 l-6 -72h-563l6 72l213 24l180 1338l-385 -15l-94 -362h-92z" />
<glyph unicode="&#x40c;" horiz-adv-x="1329" d="M25 0l8 72l149 24l166 1323l-137 21l8 82h449l-9 -82l-151 -21l-78 -624h195l497 620l-164 25l11 82h444l-10 -82l-152 -23l-524 -637q57 -35 120.5 -136t156.5 -273q72 -135 108.5 -196.5t63.5 -70.5l90 -22l-11 -82h-202q-35 0 -79 76t-122 237q-90 190 -152.5 291 t-113.5 101h-168l-76 -609l156 -24l-6 -72h-467zM713 1706l303 307l100 -96q-43 -63 -146.5 -136t-191.5 -114z" />
<glyph unicode="&#x40d;" horiz-adv-x="1568" d="M25 0l8 72l149 24l166 1323l-137 21l10 82h451l-10 -82l-150 -21l-135 -1052l80 94l790 848l15 110l-148 21l8 82h455l-10 -82l-144 -21l-166 -1323l156 -24l-6 -72h-473l4 72l160 24l131 1061l-156 -174l-713 -764l-16 -123l156 -24l-6 -72h-469zM617 1905l104 96 l274 -348l-55 -39q-84 47 -186.5 134t-136.5 157z" />
<glyph unicode="&#x40e;" horiz-adv-x="1204" d="M98 1440l11 82h448l-6 -82l-164 -21l221 -755l58 -218l88 220l342 753l-148 21l10 82h375l-8 -82l-111 -21l-522 -1083l-18 -39q-43 -94 -81 -158.5t-101.5 -113t-149.5 -48.5q-88 0 -154 31l13 129h141q92 0 144.5 39t84.5 127l-352 1114zM373 1939q0 45 8 68h139 q21 0 21 -33q0 -18 -2 -39.5t-2 -44.5q0 -76 49 -113.5t158 -37.5q113 0 166 51t65 149q8 68 37 68h115q0 -20 -3 -33q-27 -160 -130 -238.5t-263 -78.5q-162 0 -260 70.5t-98 211.5z" />
<glyph unicode="&#x40f;" horiz-adv-x="1478" d="M16 0l9 72l157 24l166 1323l-149 21l10 82h473l-8 -82l-162 -21l-168 -1325h670l166 1325l-158 21l6 82h469l-8 -82l-148 -21l-165 -1323l165 -24l-6 -72h-573l-74 -340h-102l30 340h-600z" />
<glyph unicode="&#x410;" horiz-adv-x="1341" d="M-123 0l8 72l140 22l704 1428h166l260 -1424l168 -26l-4 -72h-514l4 72l182 22l-59 365h-586l-172 -363l184 -24l-6 -72h-475zM393 557h520l-114 707l-15 122z" />
<glyph unicode="&#x411;" horiz-adv-x="1241" d="M6 0l8 72l168 24l164 1323l-151 21l10 82h1012l-25 -367h-105l-24 275l-563 2l-66 -535q80 16 141.5 25.5t137.5 9.5q217 0 331.5 -98.5t114.5 -278.5q0 -164 -73.5 -294t-208 -203.5t-310.5 -73.5q-41 0 -121 6q-174 10 -196 10h-244zM334 92q106 -16 233 -16 q131 0 228.5 59.5t148.5 162.5t51 234q0 143 -88 219t-243 76q-88 0 -160 -12t-82 -14z" />
<glyph unicode="&#x412;" horiz-adv-x="1286" d="M25 0l8 72l149 24l166 1323l-137 21l8 82h246q41 0 71.5 2t51.5 4q106 8 164 8q225 0 334.5 -92t109.5 -236q0 -156 -84 -257t-235 -144q133 -16 222 -104.5t89 -219.5q0 -254 -188.5 -375.5t-483.5 -121.5q-43 0 -141 8q-29 2 -61.5 4t-67.5 2h-221zM344 104 q27 -8 95.5 -13t111.5 -5q213 0 339 90t126 287q0 272 -326 272q-166 0 -268 -4zM434 840h76h156q164 0 266 89t102 261q0 127 -75.5 189.5t-245.5 62.5q-41 0 -98.5 -3t-106.5 -9z" />
<glyph unicode="&#x413;" horiz-adv-x="1077" d="M8 0l8 72l166 24l164 1321l-172 25l10 80h926l-41 -471h-108l-7 372l-446 9l-166 -1336l328 -24l-6 -72h-656z" />
<glyph unicode="&#x414;" horiz-adv-x="1343" d="M-53 -342q8 84 28 252l21 190h137q47 51 120 192.5t147.5 391.5t115.5 586l16 149l-221 21l11 82h1048l-10 -82l-143 -21l-168 -1315h202q-18 -108 -71 -358l-19 -88h-100l8 98q14 168 14 205q0 29 -2 39h-946q-14 -41 -46 -169t-40 -173h-102zM266 100h621l170 1332 h-424l-21 -175q-34 -296 -100 -541t-133.5 -402.5t-112.5 -213.5z" />
<glyph unicode="&#x415;" horiz-adv-x="1226" d="M23 0l6 72l153 22l166 1325l-139 21l10 82h930l-8 -314h-90l-35 213l-502 13l-76 -592l480 8l-11 -131l-479 14l-84 -635l610 19l113 233l88 -26l-88 -324h-1044z" />
<glyph unicode="&#x416;" horiz-adv-x="2021" d="M-25 0l9 72l86 24q27 8 80 68.5t157 191.5q143 182 242.5 291t169.5 137l-406 633l-153 23l10 82h444l-8 -82l-164 -21l377 -624h162l80 624l-139 21l10 82h442l-8 -82l-152 -21l-77 -624h176l514 624l-158 21l10 82h443l-11 -82l-153 -23l-545 -631q60 -26 127.5 -127.5 t167.5 -281.5q76 -137 117 -201.5t71 -79.5l91 -24l-9 -72h-221q-35 0 -79 76t-122 237q-90 190 -152.5 291t-113.5 101h-166l-75 -609l153 -24l-4 -72h-463l8 72l150 24l78 606h-148q-51 0 -134 -98t-220 -291q-115 -162 -176.5 -237.5t-95.5 -75.5h-222z" />
<glyph unicode="&#x417;" d="M8 68l86 331h86l-16 -254q45 -25 123 -41t180 -16q121 0 217 48t151.5 140.5t55.5 219.5q0 117 -77 183t-245 66l-176 -8l10 105h150q82 0 162 43t133 129t53 209q0 109 -66.5 165t-193.5 56q-94 0 -170 -24.5t-106 -61.5l-41 -189h-97l23 301q35 2 125 25q160 43 258 43 q211 0 323.5 -78t112.5 -213q0 -184 -106.5 -293.5t-243.5 -140.5q172 -2 261 -88t89 -219q0 -158 -87 -275.5t-235.5 -180t-328.5 -62.5q-221 0 -410 80z" />
<glyph unicode="&#x418;" horiz-adv-x="1568" d="M25 0l8 72l149 24l166 1323l-137 21l10 82h451l-10 -82l-150 -21l-135 -1052l80 94l790 848l15 110l-148 21l8 82h455l-10 -82l-144 -21l-166 -1323l156 -24l-6 -72h-473l4 72l160 24l131 1061l-156 -174l-713 -764l-16 -123l156 -24l-6 -72h-469z" />
<glyph unicode="&#x419;" horiz-adv-x="1568" d="M25 0l8 72l149 24l166 1323l-137 21l10 82h451l-10 -82l-150 -21l-135 -1052l80 94l790 848l15 110l-148 21l8 82h455l-10 -82l-144 -21l-166 -1323l156 -24l-6 -72h-473l4 72l160 24l131 1061l-156 -174l-713 -764l-16 -123l156 -24l-6 -72h-469zM565 1939q0 45 8 68 h139q21 0 21 -33q0 -18 -2 -39.5t-2 -44.5q0 -76 49 -113.5t158 -37.5q113 0 166 51t65 149q8 68 37 68h115q0 -20 -3 -33q-27 -160 -130 -238.5t-263 -78.5q-162 0 -260 70.5t-98 211.5z" />
<glyph unicode="&#x41a;" horiz-adv-x="1329" d="M25 0l8 72l149 24l166 1323l-137 21l8 82h449l-9 -82l-151 -21l-78 -624h195l497 620l-164 25l11 82h444l-10 -82l-152 -23l-524 -637q57 -35 120.5 -136t156.5 -273q72 -135 108.5 -196.5t63.5 -70.5l90 -22l-11 -82h-202q-35 0 -79 76t-122 237q-90 190 -152.5 291 t-113.5 101h-168l-76 -609l156 -24l-6 -72h-467z" />
<glyph unicode="&#x41b;" horiz-adv-x="1351" d="M-55 35l37 174q18 -18 54 -36.5t83 -18.5q90 0 168 153q76 147 136 402.5t91 560.5l16 143l-217 27l11 82h1089l-10 -82l-182 -21l-166 -1323l155 -26l-6 -70h-479l6 72l164 24l168 1336h-432l-21 -170q-30 -273 -85.5 -534t-131.5 -443q-127 -301 -282 -301 q-53 0 -89 11t-77 40z" />
<glyph unicode="&#x41c;" horiz-adv-x="1882" d="M-51 0l8 72l172 24l332 1323l-189 21l11 82h413l174 -1047l29 -219l100 215q60 152 248 545q182 391 230 506h389l-11 -82l-180 -21l-39 -1323l170 -24l-6 -72h-520l8 72l187 22l41 922l28 420l-155 -371l-490 -1069l-90 -14l-178 1058l-68 396l-84 -404l-219 -936 l199 -24l-6 -72h-504z" />
<glyph unicode="&#x41d;" horiz-adv-x="1523" d="M25 0l8 72l149 24l166 1323l-137 21l10 82h451l-10 -82l-150 -21l-76 -590h715l74 590l-150 21l8 82h455l-10 -82l-144 -21l-163 -1323l155 -24l-8 -72h-477l6 72l164 24l76 627h-715l-78 -627l156 -24l-6 -72h-469z" />
<glyph unicode="&#x41e;" horiz-adv-x="1386" d="M113 637q0 256 91 463t250.5 324.5t356.5 117.5q166 0 279.5 -87t169 -234.5t55.5 -329.5q0 -256 -89 -464t-248 -327.5t-357 -119.5q-164 0 -278 86t-172 234.5t-58 336.5zM279 659q0 -264 96 -422.5t268 -158.5q141 0 255 100.5t179.5 278.5t65.5 401q0 266 -91 424 t-266 158q-143 0 -258.5 -100.5t-182 -278.5t-66.5 -402z" />
<glyph unicode="&#x41f;" horiz-adv-x="1466" d="M29 0l6 72l147 24l164 1315l-166 29l8 82h1303l-8 -82l-152 -21l-168 -1323l160 -24l-6 -72h-469l6 72l147 24l168 1323h-659l-166 -1323l156 -24l-6 -72h-465z" />
<glyph unicode="&#x420;" horiz-adv-x="1228" d="M25 0l8 72l149 24l166 1323l-137 21l8 82h234q55 0 153 8t152 8q463 0 463 -401q0 -186 -83 -320.5t-224.5 -204t-313.5 -69.5q-55 0 -203 8l-51 -455l186 -24l-6 -72h-501zM412 657q94 -16 194 -16q221 2 332 129t111 373q0 150 -70 224.5t-229 74.5q-47 0 -117 -6 t-121 -15z" />
<glyph unicode="&#x421;" horiz-adv-x="1236" d="M88 649q0 262 101.5 464t272.5 313.5t372 111.5q119 0 193.5 -12.5t158.5 -34.5l43 -14l-62 -365h-100l-8 277q-41 24 -96.5 37.5t-149.5 13.5q-178 0 -303 -117t-186.5 -295t-61.5 -360q0 -242 93.5 -413t289.5 -171q84 0 172 25.5t125 70.5q37 119 66 223h100l-41 -329 q-119 -41 -218 -65.5t-235 -24.5q-182 0 -299.5 96t-172 247.5t-54.5 321.5z" />
<glyph unicode="&#x422;" horiz-adv-x="1236" d="M84 1067l72 455h1151l-62 -455l-88 -2l14 352l-372 17l-174 -1338l252 -18l-7 -78h-657l4 78l246 18l172 1338l-369 -17l-90 -348z" />
<glyph unicode="&#x423;" horiz-adv-x="1204" d="M98 1440l11 82h448l-6 -82l-164 -21l221 -755l58 -218l88 220l342 753l-148 21l10 82h375l-8 -82l-111 -21l-522 -1083l-18 -39q-43 -94 -81 -158.5t-101.5 -113t-149.5 -48.5q-88 0 -154 31l13 129h141q92 0 144.5 39t84.5 127l-352 1114z" />
<glyph unicode="&#x424;" horiz-adv-x="1464" d="M63 664q0 182 81 332.5t238 243.5t374 110l18 139l-164 20l8 84h486l-8 -84l-168 -20l-19 -137q305 -13 426 -132.5t121 -318.5q0 -180 -83 -333.5t-240.5 -252t-372.5 -114.5l-19 -152l166 -24l-10 -80h-489l10 84l172 22l18 148q-303 10 -424 136t-121 329zM215 678 q0 -375 401 -406l132 1008q-287 -25 -410 -198t-123 -404zM770 274q281 25 407 199t126 422q0 162 -89.5 265.5t-312.5 119.5z" />
<glyph unicode="&#x425;" horiz-adv-x="1298" d="M-63 0l8 72l135 22l508 674l-307 649l-150 23l8 82h510l-8 -82l-174 -19l229 -547l381 545l-170 21l8 82h467l-6 -82l-145 -19l-486 -645l338 -680l164 -24l-4 -72h-532l6 72l176 22l-258 572l-399 -570l178 -24l-8 -72h-469z" />
<glyph unicode="&#x426;" horiz-adv-x="1515" d="M-20 0l8 72l194 24l164 1321l-139 23l8 82h477l-8 -82l-174 -23l-168 -1315h659l162 1317l-145 21l8 82h444l-8 -82l-145 -21l-166 -1315h250q-24 -149 -90 -446h-99l9 123q12 127 12 180q0 29 -2 39h-1251z" />
<glyph unicode="&#x427;" horiz-adv-x="1280" d="M82 1438l8 84h449l-9 -82l-149 -23l-35 -264q-16 -131 -16 -205q0 -131 54 -183t196 -52q80 0 171 20.5t144 54.5l80 631l-152 21l8 82h455l-12 -82l-137 -21l-166 -1323l159 -24l-6 -72h-506l7 72l184 24l74 596q-78 -47 -179.5 -70.5t-193.5 -23.5q-174 0 -262 67.5 t-88 252.5q0 61 8 118l49 383z" />
<glyph unicode="&#x428;" horiz-adv-x="2076" d="M29 0l6 72l147 26l166 1321l-139 21l8 82h498l-10 -82l-205 -23l-164 -1323h559l166 1323l-154 23l8 82h478l-9 -82l-167 -23l-168 -1323h536l168 1325l-166 21l8 82h496l-8 -82l-176 -21l-160 -1313l188 -24l-8 -82h-1898z" />
<glyph unicode="&#x429;" horiz-adv-x="2099" d="M29 0l6 72l147 26l166 1321l-139 21l8 82h494l-11 -82l-204 -23l-164 -1323h563l166 1323l-154 23l8 82h476l-9 -82l-170 -23l-163 -1323h540l168 1325l-166 21l8 82h492l-8 -82l-176 -21l-162 -1323h262q-14 -80 -61 -301l-29 -137h-100l8 98q14 168 14 205q0 29 -2 39 h-1808z" />
<glyph unicode="&#x42a;" horiz-adv-x="1525" d="M135 1051l82 471h838l-8 -82l-199 -23l-66 -520q47 12 127 23.5t148 11.5q215 0 327.5 -99.5t112.5 -279.5q0 -164 -72.5 -293t-207 -202.5t-306.5 -73.5q-39 0 -123 6q-178 10 -202 10h-240l8 72l164 24l168 1336l-348 -7l-98 -374h-105zM684 94q106 -18 223 -18 q133 0 229.5 59.5t146.5 161.5t50 233q0 143 -87 220t-240 77q-53 0 -123 -9t-111 -17z" />
<glyph unicode="&#x42b;" horiz-adv-x="1888" d="M25 0l8 72l149 24l166 1323l-135 21l8 82h465l-8 -82l-168 -21l-74 -596q143 33 264 33q219 0 336 -91t117 -259q0 -166 -78 -284t-211 -178t-299 -60q-41 0 -121 6q-174 10 -196 10h-223zM346 94q142 -18 234 -18q184 0 296.5 106.5t112.5 298.5q0 131 -89 201t-249 70 q-111 0 -227 -25zM1264 0l6 72l149 24l168 1323l-137 21l10 82h451l-8 -82l-154 -21l-166 -1323l158 -24l-6 -72h-471z" />
<glyph unicode="&#x42c;" horiz-adv-x="1220" d="M25 0l8 72l149 24l166 1323l-137 21l10 82h465l-8 -82l-168 -21l-74 -596q143 33 264 33q219 0 336 -92t117 -258t-78 -284t-211 -178t-299 -60q-41 0 -121 6q-174 10 -196 10h-223zM344 94q148 -18 236 -18q184 0 296.5 106.5t112.5 298.5q0 131 -89 201t-249 70 q-111 0 -227 -25z" />
<glyph unicode="&#x42d;" horiz-adv-x="1224" d="M59 346l101 10l35 -190q41 -31 69.5 -47.5t85 -31.5t137.5 -15q139 0 261 83t203 237.5t102 359.5q-143 -16 -523 -33q-66 0 -122 -4l-27 141l678 -16v45q0 246 -104.5 403.5t-311.5 157.5q-111 0 -175.5 -27.5t-131.5 -77.5l-60 -192h-104l49 309q33 2 71 13.5t44 13.5 q84 25 153.5 39t174.5 14q180 0 309 -81t197.5 -227.5t68.5 -340.5q0 -258 -107.5 -467t-290 -327t-397.5 -118q-82 0 -139 13.5t-121 36.5q-76 29 -123 28z" />
<glyph unicode="&#x42e;" horiz-adv-x="2039" d="M27 0l6 72l149 24l166 1323l-137 21l10 82h449l-8 -82l-150 -21l-76 -590h344q31 207 127.5 370t240.5 253t316 90q164 0 275.5 -84t168 -228.5t58.5 -322.5q4 -258 -84 -471t-247.5 -334.5t-360.5 -121.5q-160 0 -273.5 83.5t-172 229t-62.5 328.5q0 74 4 112h-346 l-78 -637l154 -24l-6 -72h-467zM934 659q0 -264 95 -422.5t267 -158.5q141 0 255 100.5t179.5 276.5t65.5 397q0 270 -90 429t-266 159q-142 0 -257.5 -100.5t-182 -278.5t-66.5 -402z" />
<glyph unicode="&#x42f;" horiz-adv-x="1310" d="M-90 0l8 70l84 26q35 6 82 68.5t129 191.5q86 137 143.5 216t112.5 114q-115 35 -185.5 129t-70.5 213q0 152 70.5 267.5t206 179t323.5 63.5q51 0 137 -8q90 -8 142 -8h249l-8 -82l-153 -21l-166 -1323l160 -24l-7 -72h-483l8 72l166 24l74 580q-25 -2 -197 -2 q-55 -2 -125 -2q-51 -37 -108.5 -126t-143.5 -245q-82 -150 -133 -225.5t-86 -75.5h-229zM381 1061q0 -133 93 -214t237 -81q193 0 233 4l80 649q-17 0 -74 8q-104 14 -172 15q-201 0 -299 -101.5t-98 -279.5z" />
<glyph unicode="&#x430;" horiz-adv-x="1175" d="M86 412q0 166 78 341t224.5 292.5t340.5 117.5q43 0 100.5 -10t102.5 -25l112 33l-133 -985q-2 -10 -2 -24q0 -33 13.5 -47.5t27.5 -14.5q20 0 40 13.5t50 43.5l29 -45q-8 -16 -38 -45.5t-73 -53t-90 -23.5q-127 0 -118 135l12 84q-70 -90 -163 -154.5t-193 -64.5 q-162 0 -241 116.5t-79 315.5zM254 430q0 -158 46 -245t140 -87q92 0 183.5 73t152.5 161l90 686q-65 45 -159 45q-141 0 -244 -97.5t-156 -245t-53 -290.5z" />
<glyph unicode="&#x431;" horiz-adv-x="1116" d="M74 514q0 338 122.5 593t317.5 390t404 135q23 0 40 29l54 104h82l-35 -211q-4 -36 -17.5 -48.5t-50.5 -12.5q-285 0 -490.5 -161t-287.5 -580q66 154 196 257t287 103q184 0 269.5 -109.5t85.5 -304.5q0 -190 -75 -354t-208 -262t-295 -98q-197 0 -298 151.5t-101 378.5 zM236 479q0 -178 65.5 -290.5t194.5 -112.5q127 0 214 89t129 223t42 271q0 346 -232 347q-108 0 -203.5 -82t-152.5 -205t-57 -240z" />
<glyph unicode="&#x432;" horiz-adv-x="1105" d="M84 451q0 227 97.5 385.5t237.5 236.5t267 78q158 0 235.5 -56.5t77.5 -131.5q0 -109 -66.5 -186t-213.5 -124q137 2 206.5 -67.5t69.5 -167.5q0 -119 -60.5 -218.5t-179 -158.5t-286.5 -59q-102 0 -190.5 57t-141.5 163.5t-53 248.5zM250 399q0 -137 70.5 -229 t185.5 -92q145 0 235 85t90 220q0 92 -56 151.5t-173 59.5q-35 0 -55 -2l-291 -43q-6 -25 -6 -84v-66zM268 633l232 35q162 26 243.5 86.5t81.5 163.5q0 63 -48 99t-138 36q-66 0 -147.5 -48.5t-145 -143.5t-78.5 -228z" />
<glyph unicode="&#x433;" horiz-adv-x="841" d="M47 244q0 88 39 152.5t97.5 108.5t156.5 105q12 10 41 27q121 78 178 140.5t57 144.5q0 55 -42 94t-107 39q-86 0 -165 -30t-101 -54l-19 84q47 39 129 72.5t187 33.5q129 0 209.5 -60.5t80.5 -162.5q0 -84 -39.5 -149.5t-96 -109.5t-144.5 -99l-66 -43 q-12 -8 -87.5 -59.5t-109.5 -102.5t-34 -109q0 -76 48 -125t142 -49q82 0 140.5 25.5t128.5 79.5l22 -82q-51 -59 -151.5 -97t-192.5 -38q-86 0 -154.5 35.5t-107.5 97t-39 131.5z" />
<glyph unicode="&#x434;" horiz-adv-x="1163" d="M104 422q0 186 81 351t219.5 265.5t302.5 100.5q119 0 206 -66q-12 252 -94 380t-248 128q-137 0 -254 -84l-47 59q76 64 175.5 94.5t183.5 30.5q250 0 350 -200.5t100 -505.5q0 -236 -61.5 -464t-198.5 -382t-354 -154q-174 0 -267.5 125t-93.5 322zM270 446 q0 -162 48.5 -264t175.5 -102q219 0 319 243.5t102 651.5q-86 76 -215 76q-110 0 -209.5 -82t-160 -221.5t-60.5 -301.5z" />
<glyph unicode="&#x435;" horiz-adv-x="1052" d="M90 418q0 193 78 364.5t212 276t298 104.5q139 0 211 -69.5t72 -180.5q0 -145 -123 -244.5t-289 -149.5t-287 -52q-2 -14 -2 -47q0 -131 61.5 -227.5t188.5 -96.5q88 0 182 41t174 121l39 -70q-53 -73 -168.5 -140.5t-251.5 -67.5q-135 0 -223 61t-130 160.5t-42 216.5z M266 559q117 4 241 46t208 118t84 176q-2 82 -43 125t-115 43q-104 0 -186 -80t-130.5 -197.5t-58.5 -230.5z" />
<glyph unicode="&#x436;" horiz-adv-x="1835" d="M-39 14l55 154q8 -4 35 -31q10 -8 40 -34.5t40 -28.5q66 0 135.5 79.5t115.5 219t46 309.5t-45 254t-119 84q-57 0 -100 -27.5t-103 -91.5l-36 43q137 203 288 203q123 0 199 -118t76 -320q0 -29 -4 -78h256l59 506h160l-62 -506h250q33 141 101.5 259t164 187.5 t205.5 69.5q86 0 129 -37l-55 -152q-10 8 -56 50.5t-57 44.5q-68 0 -137 -80t-115.5 -219.5t-46.5 -309.5t44 -254t118 -84q57 0 103.5 28t103.5 91l35 -45q-49 -74 -122 -137t-167 -63q-123 0 -197.5 116.5t-74.5 321.5q0 74 8 129h-242l-65 -547h-160l67 547h-260 q-27 -152 -95 -282t-167.5 -207.5t-216.5 -77.5q-86 0 -131 34z" />
<glyph unicode="&#x437;" horiz-adv-x="1005" d="M25 72l59 157l88 -96q43 -31 96.5 -43t124.5 -12q174 0 266.5 75.5t92.5 204.5q0 92 -72 143.5t-215 49.5l-111 -23l21 111l63 6q307 35 307 264q0 76 -53 117t-166 41q-92 0 -142 -16.5t-105 -42.5l-56 -199h-92l37 297q61 -1 147 22q57 16 111.5 24.5t134.5 8.5 q166 0 259 -63.5t93 -175.5q0 -119 -80.5 -201t-218.5 -107q141 -2 221 -66.5t80 -170.5q0 -117 -68.5 -207t-186 -138t-261.5 -48q-213 0 -374 88z" />
<glyph unicode="&#x438;" horiz-adv-x="1206" d="M154 1044l12 72l219 43l39 -20l-70 -541l-12 -92q-8 -59 -14 -118.5t-6 -108.5q0 -106 38.5 -145.5t114.5 -39.5q82 0 175 64.5t153 150.5l110 842h158l-131 -987q-2 -8 -2 -25q0 -49 27 -49q43 0 112 70l25 -47q-12 -18 -45 -50t-81 -56.5t-97 -24.5q-47 0 -74 28.5 t-27 75.5q0 20 2 31q6 25 11 76l-3 2q-72 -92 -169 -153.5t-209 -61.5q-119 0 -182.5 61t-63.5 211q0 102 35 354l55 389z" />
<glyph unicode="&#x439;" horiz-adv-x="1206" d="M154 1044l12 72l219 43l39 -20l-70 -541l-12 -92q-8 -59 -14 -118.5t-6 -108.5q0 -106 38.5 -145.5t114.5 -39.5q82 0 175 64.5t153 150.5l110 842h158l-131 -987q-2 -8 -2 -25q0 -49 27 -49q43 0 112 70l25 -47q-12 -18 -45 -50t-81 -56.5t-97 -24.5q-47 0 -74 28.5 t-27 75.5q0 20 2 31q6 25 11 76l-3 2q-72 -92 -169 -153.5t-209 -61.5q-119 0 -182.5 61t-63.5 211q0 102 35 354l55 389zM362 1620q0 41 9 72h137q22 0 22 -43q0 -20 -3 -39t-3 -35q0 -76 47 -114t152 -38q109 0 160 50.5t63 148.5q8 70 37 70h115q0 -20 -2 -33 q-27 -160 -128.5 -239t-254.5 -79q-158 0 -254.5 71t-96.5 208z" />
<glyph unicode="&#x43a;" horiz-adv-x="1112" d="M133 0l133 995l-98 47l14 74l215 43l45 -22l-65 -498h176q82 61 142.5 115.5t127.5 132.5q18 16 38 47t24 57v8q0 12 -2 25.5t-2 34.5q0 41 32.5 68.5t75.5 27.5q33 0 54.5 -18.5t21.5 -57.5q0 -100 -98.5 -199.5t-280.5 -234.5l-63 -47q41 -45 131 -199 q90 -145 143 -215.5t98 -79.5l72 -28l-8 -76h-166q-59 0 -112.5 75t-127.5 218q-68 131 -111.5 196.5t-90.5 65.5h-84l-74 -555h-160z" />
<glyph unicode="&#x43b;" horiz-adv-x="1142" d="M-55 8l37 180q8 -6 55 -18t67 -12q43 0 97 82q92 115 181 349t134 439l-248 25l11 84h729l-119 -975q-2 -9 -2 -25q0 -47 24 -47q43 0 99 53l24 -47q-20 -31 -84.5 -73.5t-132.5 -42.5q-51 0 -80.5 24.5t-29.5 75.5l2 22l125 930h-230q-131 -641 -334 -889 q-100 -160 -235 -159q-23 0 -54.5 9t-35.5 15z" />
<glyph unicode="&#x43c;" horiz-adv-x="1624" d="M-72 10l41 180q14 -8 70.5 -21t77.5 -11q70 160 122 361.5t101 434.5l16 74l-180 25l8 84h400l161 -744l29 -182l68 182l352 744h197l-11 -932q0 -47 14.5 -82t37.5 -35q51 0 118 64l29 -48q-12 -16 -48 -46.5t-86 -54t-102 -23.5q-61 0 -91.5 30.5t-32.5 100.5l16 634 l14 297l-129 -294l-368 -762h-74l-176 768l-56 270l-71 -334q-80 -381 -174 -590q-27 -61 -67 -88.5t-120 -27.5q-16 0 -50 9t-36 17z" />
<glyph unicode="&#x43d;" horiz-adv-x="1304" d="M133 0l133 995l-98 47l14 74l215 43l45 -22l-65 -502h571l66 502h153l-116 -975q-2 -9 -2 -25q0 -47 24 -47q45 0 98 53l27 -47q-25 -33 -84 -74.5t-127 -41.5q-49 0 -79.5 23.5t-30.5 70.5q0 16 2 26l57 437h-574l-69 -537h-160z" />
<glyph unicode="&#x43e;" horiz-adv-x="1146" d="M88 438q-2 184 71.5 351t205 270.5t297.5 103.5q192 0 294.5 -125t102.5 -350q0 -180 -73 -343t-203 -264t-294 -101q-188 0 -292.5 119.5t-108.5 338.5zM258 453q0 -180 67.5 -276.5t194.5 -96.5q115 0 199 91t127 230.5t43 280.5q0 184 -63.5 282.5t-192.5 98.5 q-119 0 -204 -92t-128 -233.5t-43 -284.5z" />
<glyph unicode="&#x43f;" horiz-adv-x="1259" d="M133 0l133 999l-98 48l14 73l215 43l39 -20l-26 -258q88 121 207.5 199.5t236.5 78.5q111 0 170 -68.5t59 -226.5q0 -90 -43 -309l-10 -53q-2 -16 -10 -53q-37 -215 -43 -293q-4 -70 24 -70q41 0 97 53l26 -47q-20 -31 -79.5 -73.5t-129.5 -42.5q-109 0 -108 114 q0 45 12 121t27 150l18 92l13 63q23 125 33 196.5t10 139.5q0 100 -31 138t-107 38q-88 0 -199.5 -85t-189.5 -204l-100 -743h-160z" />
<glyph unicode="&#x440;" horiz-adv-x="1159" d="M47 -520l207 1534l-109 41l15 65l225 43l39 -20l-21 -164q58 78 142 131t186 53q168 0 255 -117.5t87 -316.5q0 -166 -77.5 -341t-223 -291.5t-336.5 -116.5q-59 0 -162 24l-71 -524h-156zM291 127q61 -47 170 -47q137 0 237.5 98t152.5 246.5t52 294.5q0 156 -54 240.5 t-149 84.5q-94 0 -178 -60t-131 -136z" />
<glyph unicode="&#x441;" horiz-adv-x="894" d="M76 436q0 164 69.5 333t202.5 281.5t314 112.5q57 0 119.5 -13t103.5 -36l-47 -164l-23 17q-45 32 -95 53.5t-95 21.5q-115 0 -201 -74.5t-132 -207.5t-46 -307q0 -176 62.5 -266.5t174.5 -90.5q84 0 146.5 31t142.5 94l33 -67q-53 -66 -146.5 -120t-222.5 -54 q-170 0 -265 121.5t-95 334.5z" />
<glyph unicode="&#x442;" horiz-adv-x="1896" d="M133 0l133 999l-98 48l14 73l215 43l39 -20l-26 -258q88 121 207.5 199.5t234.5 78.5q109 0 165 -63.5t60 -200.5q80 115 187.5 189.5t216.5 74.5t171 -71.5t62 -225.5q0 -47 -11 -122.5t-24 -149.5l-14 -88l-8 -45q-37 -221 -43 -301l-2 -25q0 -45 24 -45 q25 0 51.5 15.5t63.5 52.5l25 -45q-25 -39 -86.5 -86t-135.5 -47q-53 0 -79.5 27.5t-26.5 84.5q0 45 11 121t24 147l16 101l12 69q39 217 39 326q0 98 -30.5 136t-100.5 38q-78 0 -173 -73.5t-173 -184.5q-10 -100 -35 -266l-67 -506h-164l65 457q20 129 33 224t13 175 q-2 102 -30 139t-106 37q-88 0 -199.5 -84t-189.5 -203l-100 -745h-160z" />
<glyph unicode="&#x443;" horiz-adv-x="1073" d="M-119 -475l39 131q78 -39 170 -39q86 0 185.5 73.5t177.5 229.5h-78l-185 1053q-8 39 -19 53t-30 14q-18 0 -37.5 -12t-50.5 -43l-24 53q18 33 76.5 77t119.5 44q63 0 90 -33.5t35 -103.5l107 -766l28 -279l166 318q33 70 51 102q88 176 130 294t42 245q0 27 -8 49.5 t-10 26.5q-16 41 -16 61q0 43 21.5 63.5t56.5 20.5q53 0 82.5 -47t29.5 -133q0 -131 -58.5 -274.5t-160.5 -335.5l-37 -70q-111 -223 -204 -381t-160 -240q-127 -182 -340 -182q-43 0 -100.5 9.5t-88.5 21.5z" />
<glyph unicode="&#x444;" horiz-adv-x="1667" d="M82 412q0 166 73.5 341t213 292.5t323.5 117.5q74 0 152 -39l57 389l-123 33l19 70l231 35l45 -25l-86 -575q49 49 116.5 80.5t145.5 31.5q164 0 248 -118.5t84 -315.5q0 -164 -73.5 -339t-211 -292.5t-319.5 -117.5q-61 0 -141 30l-52 -346q-2 -8 -2 -22 q0 -27 9.5 -39.5t21.5 -12.5q47 0 111 70l26 -47q-23 -39 -83 -85t-134 -46q-51 0 -85 24.5t-34 73.5q0 14 2 23l72 499q-49 -53 -122.5 -87.5t-159.5 -34.5q-160 0 -242 117.5t-82 314.5zM250 424q0 -154 49 -241t137 -87q82 0 154 40t119 91l114 770q-53 66 -153 66 q-133 0 -228.5 -101.5t-143.5 -250t-48 -287.5zM854 131q53 -51 145 -51q131 0 224.5 101.5t140.5 250t47 287.5q0 154 -50 241t-142 87q-72 0 -137.5 -36t-112.5 -85z" />
<glyph unicode="&#x445;" horiz-adv-x="1015" d="M-25 0l457 596l-164 389q-14 33 -29.5 48.5t-41.5 15.5q-29 0 -57.5 -17.5t-43.5 -36.5l-30 47q18 33 76.5 75t127.5 42q66 0 97.5 -25.5t48.5 -78.5l106 -363l328 459h170l-451 -584l187 -411q14 -33 28.5 -48.5t36.5 -15.5q51 0 117 72l31 -47q-8 -18 -42 -51 t-83 -59.5t-101 -26.5q-59 0 -87.5 25.5t-47.5 80.5l-129 385l-336 -471h-168z" />
<glyph unicode="&#x446;" horiz-adv-x="1210" d="M154 1044l12 72l219 43l39 -20l-70 -541l-12 -92q-8 -59 -14 -118.5t-6 -108.5q0 -106 38.5 -145.5t114.5 -39.5q82 0 175 64.5t153 150.5l110 842h158l-131 -987q-2 -8 -2 -25q0 -49 27 -49q43 0 112 70l25 -47q-12 -20 -49 -54t-84 -57q-51 -25 -78 -44t-27 -56 q0 -20 17 -70q23 -63 22 -98q0 -72 -74.5 -136.5t-164.5 -84.5l-43 53q49 14 91 54t42 83q0 31 -13 72q-14 35 -14 78q0 80 96 143q-49 27 -49 98q0 35 14 99l-4 2q-76 -92 -171 -153.5t-203 -61.5q-119 0 -182.5 61t-63.5 211q0 102 35 354l55 389z" />
<glyph unicode="&#x447;" d="M84 1044l14 72l217 43l43 -22l-34 -277q-15 -133 -15 -182q0 -76 20.5 -114t67.5 -52t138 -14q150 0 256 51l73 588h148l-111 -975l-2 -21q0 -25 8 -38t21 -13q45 0 98 53l27 -47q-20 -33 -82 -74.5t-129 -41.5q-51 0 -81 24.5t-30 75.5l2 22l45 351q-150 -72 -336 -72 q-152 0 -219 55.5t-67 204.5q0 49 10 135l27 217z" />
<glyph unicode="&#x448;" horiz-adv-x="1826" d="M156 1028l12 74l217 43l39 -23l-70 -544l-8 -62q-2 -12 -13 -98t-11 -158q0 -109 38.5 -147.5t114.5 -38.5q78 0 170 66.5t148 152.5q6 59 13 111.5t11 95.5l12 88l74 549h156q-12 -92 -25.5 -190.5t-25.5 -198.5q-29 -205 -43.5 -322t-14.5 -166q0 -106 40 -146t116 -40 t166 64.5t149 150.5l109 848h158l-132 -992q-2 -10 -2 -24q0 -51 29 -51q41 0 111 71l24 -47q-23 -37 -86 -84t-137 -47q-47 0 -72.5 25.5t-25.5 70.5q0 27 4 41l4 70q-72 -90 -165 -149.5t-204 -59.5q-113 0 -173 54.5t-68 179.5h-2q-74 -100 -171.5 -167t-211.5 -67 q-119 0 -182.5 61.5t-63.5 210.5q0 102 35 353l55 393z" />
<glyph unicode="&#x449;" horiz-adv-x="1824" d="M156 1049l12 71l217 43l39 -20l-70 -545q-4 -41 -8 -59q-2 -14 -13 -101.5t-11 -158.5q0 -106 38.5 -145.5t114.5 -39.5q78 0 169 66.5t149 150.5q12 127 36 299l74 545h156l-74 -563l-12 -80q-23 -150 -23 -233q0 -106 40 -145.5t116 -39.5q78 0 167 64.5t148 148.5 l109 848h158l-132 -991q-2 -8 -2 -25q0 -49 29 -49q41 0 111 70l24 -47q-12 -18 -40.5 -46t-67.5 -51q-14 -10 -45 -26.5t-49.5 -38t-18.5 -51.5q0 -18 16 -68q23 -59 23 -94q0 -74 -75 -139.5t-165 -85.5l-43 53q49 16 91 56t42 87q0 31 -12 68q-14 35 -14 76q0 76 84 141 q-41 37 -41 121q0 31 6 73l-4 2q-72 -90 -166 -150t-203 -60q-113 0 -173 54t-68 181h-2q-72 -98 -169.5 -166.5t-213.5 -68.5q-119 0 -182.5 61t-63.5 211q0 96 35 354l55 393z" />
<glyph unicode="&#x44a;" horiz-adv-x="1251" d="M111 815q0 92 20.5 197.5t58.5 130.5q33 20 101 20q66 0 148.5 -8t101.5 -10q152 -16 204 -17q23 0 62 11.5t53 23.5q6 4 20.5 -6t23.5 -24.5t1 -22.5q-289 -248 -352 -563q131 205 383 205q119 0 182.5 -82t63.5 -230q0 -111 -63.5 -218t-175.5 -176t-247 -69 q-147 0 -239 103.5t-92 271.5q0 195 76.5 355.5t220.5 298.5l-322 8q-39 0 -76 -18.5t-57 -49.5q-18 -20 -29.5 -58t-13.5 -73h-53zM535 375q0 -127 44 -216t132 -89t159.5 49t111.5 129t40 168q0 102 -33 161.5t-127 59.5q-96 0 -191.5 -64.5t-133.5 -150.5q-2 -14 -2 -47z " />
<glyph unicode="&#x44b;" horiz-adv-x="1546" d="M135 322q0 74 19 165l102 514l-98 46l12 73l215 43l45 -20l-102 -576q45 62 147.5 123.5t222.5 61.5q258 0 258 -301q0 -106 -67.5 -217t-183 -184t-252.5 -73q-147 0 -232.5 87.5t-85.5 257.5zM289 293q0 -104 47 -163.5t133 -59.5q92 0 166 53t116 135t42 164 q0 100 -36 157.5t-136 57.5q-93 0 -189 -69.5t-131 -153.5q-8 -49 -10 -74q-2 -16 -2 -47zM1087 92q0 20 3 31l131 1028h157l-129 -987q-2 -11 -2 -27q0 -47 29 -47q39 0 110 70l25 -47q-10 -18 -44 -50t-81 -56.5t-98 -24.5q-49 0 -75 28.5t-26 81.5z" />
<glyph unicode="&#x44c;" horiz-adv-x="1046" d="M137 317q0 76 19 170l100 514l-98 46l12 73l217 43l45 -20l-102 -576q47 62 147.5 123.5t220.5 61.5q260 0 260 -301q0 -106 -67.5 -217t-183 -184t-254.5 -73q-147 0 -231.5 86.5t-84.5 253.5zM291 285q2 -100 49 -157.5t131 -57.5q90 0 165 53t117 135t42 164 q0 100 -37 157.5t-137 57.5q-91 0 -187 -68.5t-133 -154.5q-12 -72 -10 -129z" />
<glyph unicode="&#x44d;" horiz-adv-x="1011" d="M23 90l26 205h90l6 -170q96 -51 236 -51q172 0 277.5 137t136.5 340q-190 -16 -424 -21q-70 -4 -88 -4l-25 123h547v35q0 197 -86 296t-225 99q-70 0 -129.5 -13t-94.5 -38l-57 -166h-84l33 260q43 21 148.5 35t201.5 14q213 0 336 -123.5t123 -361.5q0 -211 -83 -371.5 t-219.5 -249t-291.5 -88.5q-121 0 -210 31t-144 82z" />
<glyph unicode="&#x44e;" horiz-adv-x="1691" d="M133 0l133 999l-98 48l14 73l215 43l47 -20l-65 -500h272q35 145 113 263t190.5 187.5t245.5 69.5q195 0 297 -122.5t102 -348.5q0 -180 -72.5 -345t-202.5 -266t-294 -101q-190 0 -292.5 119.5t-106.5 338.5q-2 37 6 107h-275l-69 -545h-160zM799 453 q0 -180 66.5 -276.5t193.5 -96.5q115 0 198.5 92t128 233.5t44.5 282.5q0 180 -65 277.5t-191 97.5q-119 0 -204 -92t-128 -233.5t-43 -284.5z" />
<glyph unicode="&#x44f;" horiz-adv-x="1202" d="M-31 0l8 82l74 22q49 13 92 66t105 154q31 49 63.5 97t61.5 77q-106 31 -158.5 101.5t-52.5 170.5q0 188 138 283.5t376 95.5q86 0 196 -8q74 -4 99 -4h90l-111 -1000v-6q0 -20 9.5 -30.5t21.5 -10.5q20 0 45 16.5t61 53.5l25 -47q-23 -37 -85 -84t-136 -47 q-51 0 -77 28.5t-23 81.5l43 383l-334 2q-35 -35 -69 -91t-81 -153q-57 -117 -96 -175t-78 -58h-207zM322 791q0 -104 70.5 -164t215.5 -60h123q100 0 115 2l57 480l-51 2q-141 6 -190 6q-158 0 -249 -60.5t-91 -205.5z" />
<glyph unicode="&#x450;" horiz-adv-x="1052" d="M90 418q0 193 78 364.5t212 276t298 104.5q139 0 211 -69.5t72 -180.5q0 -145 -123 -244.5t-289 -149.5t-287 -52q-2 -14 -2 -47q0 -131 61.5 -227.5t188.5 -96.5q88 0 182 41t174 121l39 -70q-53 -73 -168.5 -140.5t-251.5 -67.5q-135 0 -223 61t-130 160.5t-42 216.5z M266 559q117 4 241 46t208 118t84 176q-2 82 -43 125t-115 43q-104 0 -186 -80t-130.5 -197.5t-58.5 -230.5zM368 1665l121 121l301 -424l-53 -51q-74 45 -202 166.5t-167 187.5z" />
<glyph unicode="&#x451;" horiz-adv-x="1052" d="M90 418q0 193 78 364.5t212 276t298 104.5q139 0 211 -69.5t72 -180.5q0 -145 -123 -244.5t-289 -149.5t-287 -52q-2 -14 -2 -47q0 -131 61.5 -227.5t188.5 -96.5q88 0 182 41t174 121l39 -70q-53 -73 -168.5 -140.5t-251.5 -67.5q-135 0 -223 61t-130 160.5t-42 216.5z M266 559q117 4 241 46t208 118t84 176q-2 82 -43 125t-115 43q-104 0 -186 -80t-130.5 -197.5t-58.5 -230.5zM383 1454q0 55 34.5 93t81.5 38q43 0 69 -25.5t26 -66.5q0 -57 -35 -96t-86 -39q-37 0 -63.5 27.5t-26.5 68.5zM804 1454q0 55 34 93t83 38q43 0 68.5 -25.5 t25.5 -66.5q0 -57 -34.5 -96t-85.5 -39q-37 0 -64 27.5t-27 68.5z" />
<glyph unicode="&#x452;" horiz-adv-x="1234" d="M121 0l170 1298h-170l12 88h168l18 127l-114 33l12 70l236 35l41 -25l-31 -240h332l-13 -88h-331l-58 -426q88 125 208 208t241 83q227 0 227 -274q0 -41 -68 -578l-34 -295q-33 -258 -131.5 -389t-255.5 -131q-90 0 -107 17l6 81q8 -2 29 -2q37 0 84 11 q100 20 151.5 135t73.5 307q4 12 46 407.5t42 417.5q-2 88 -31.5 125t-101.5 37q-92 0 -203.5 -85t-191.5 -208l-101 -739h-155z" />
<glyph unicode="&#x453;" horiz-adv-x="841" d="M47 244q0 88 39 152.5t97.5 108.5t156.5 105q12 10 41 27q121 78 178 140.5t57 144.5q0 55 -42 94t-107 39q-86 0 -165 -30t-101 -54l-19 84q47 39 129 72.5t187 33.5q129 0 209.5 -60.5t80.5 -162.5q0 -84 -39.5 -149.5t-96 -109.5t-144.5 -99l-66 -43 q-12 -8 -87.5 -59.5t-109.5 -102.5t-34 -109q0 -76 48 -125t142 -49q82 0 140.5 25.5t128.5 79.5l22 -82q-51 -59 -151.5 -97t-192.5 -38q-86 0 -154.5 35.5t-107.5 97t-39 131.5zM527 1362l323 424l113 -113q-20 -35 -92 -110.5t-154 -148.5t-139 -103z" />
<glyph unicode="&#x454;" horiz-adv-x="1032" d="M78 455q0 197 82 361.5t226 259.5t319 95q100 0 187 -18t132 -45l-33 -250h-80l-22 160q-66 61 -209 61q-162 0 -268.5 -117.5t-145.5 -302.5l561 3l-24 -138q-20 2 -46 2t-50 2q-328 10 -457 25q-4 -31 -4 -90q0 -193 84 -292t221 -99q61 0 131 12t111 31l49 168h90 l-29 -207q-61 -43 -160.5 -71t-212.5 -28q-221 0 -336.5 124t-115.5 354z" />
<glyph unicode="&#x455;" horiz-adv-x="870" d="M41 43l27 125q39 -29 115.5 -53.5t160.5 -24.5q100 0 168 39t68 133q0 55 -30 100.5t-65.5 75t-105.5 78.5q-82 55 -149.5 139t-67.5 193q0 94 52 165.5t140 110.5t195 39q74 0 149.5 -13t106.5 -28l-33 -139q-8 10 -41 28.5t-83 32t-107 13.5q-104 0 -165 -44t-61 -130 q0 -72 47.5 -127.5t131.5 -118.5q80 -61 122.5 -100t79.5 -101.5t37 -140.5q0 -150 -113.5 -232.5t-281.5 -82.5q-92 0 -181 19t-116 44z" />
<glyph unicode="&#x456;" horiz-adv-x="634" d="M164 1051l12 65l260 43l41 -20l-139 -977q-2 -9 -2 -25q0 -23 9 -35t22 -12q41 0 106 68l27 -45q-27 -41 -86.5 -87t-130.5 -46q-55 0 -87 28.5t-28 91.5q4 53 27.5 215t35.5 244l66 449zM328 1495q0 53 37.5 92t80.5 39t69 -26.5t26 -69.5q0 -55 -36 -94t-85 -39 q-37 0 -64.5 27.5t-27.5 70.5z" />
<glyph unicode="&#x457;" horiz-adv-x="634" d="M111 1456q0 55 34.5 93t81.5 38q43 0 69 -25.5t26 -66.5q0 -57 -35 -96t-86 -39q-37 0 -63.5 27.5t-26.5 68.5zM164 1051l12 65l260 43l41 -20l-139 -977q-2 -9 -2 -25q0 -23 9 -35t22 -12q41 0 106 68l27 -45q-27 -41 -86.5 -87t-130.5 -46q-55 0 -87 28.5t-28 91.5 q4 53 27.5 215t35.5 244l66 449zM532 1456q0 55 34 93t83 38q43 0 68.5 -25.5t25.5 -66.5q0 -57 -34.5 -96t-85.5 -39q-37 0 -64 27.5t-27 68.5z" />
<glyph unicode="&#x458;" horiz-adv-x="647" d="M-215 -481l29 71q14 -6 41.5 -11t50.5 -5q137 0 203.5 129t93.5 354l108 953l-141 41l14 65l267 43l41 -20l-134 -1137q-28 -250 -137.5 -385t-281.5 -135q-49 0 -93.5 10t-60.5 27zM344 1495q0 53 37.5 92t80.5 39t69 -26.5t26 -69.5q0 -55 -36 -94t-85 -39 q-37 0 -64.5 27.5t-27.5 70.5z" />
<glyph unicode="&#x459;" horiz-adv-x="1658" d="M-55 10l37 180q12 -8 58 -20t64 -12q39 0 62.5 28.5t44.5 83.5q43 111 86 325t70 433l-191 25l12 84h811l-71 -590q43 80 151.5 142.5t237.5 62.5t191.5 -83t62.5 -227q0 -102 -65.5 -210.5t-180.5 -181.5t-252 -73q-145 0 -235 98.5t-90 272.5q0 41 6 84q6 39 28 246 l43 354h-370l-15 -135q-25 -205 -70.5 -421t-90.5 -310q-43 -90 -93.5 -136t-150.5 -46q-23 0 -54.5 9t-35.5 17zM905 317q0 -115 44 -181t138 -66q92 0 167 53t117 135t42 164q0 111 -35 163t-137 52q-115 0 -203 -65.5t-125 -157.5l-2 -8q-6 -46 -6 -89z" />
<glyph unicode="&#x45a;" horiz-adv-x="1820" d="M133 0l133 995l-98 47l14 74l215 43l45 -22l-65 -502h569l62 504h157l-75 -590q26 47 91.5 94t146.5 78t151 31q129 0 191.5 -84t62.5 -226q0 -102 -65.5 -210.5t-180.5 -181.5t-252 -73q-143 0 -231.5 95.5t-88.5 261.5q0 51 9 98l10 105h-572l-69 -537h-160zM1065 305 q0 -109 46 -172t138 -63t166 53t116 135t42 164q0 102 -35 158.5t-137 56.5q-60 0 -128.5 -33t-123.5 -84t-76 -100q-6 -33 -6 -72q-2 -14 -2 -43z" />
<glyph unicode="&#x45b;" horiz-adv-x="1243" d="M121 0l168 1286h-148l2 90h156l20 137l-114 33l12 70l236 35l41 -25l-33 -250h256v-90h-268l-56 -414q88 125 208 208t241 83q113 0 171 -68.5t58 -228.5q0 -90 -43 -305q-2 -12 -4 -26.5t-6 -28.5q-8 -35 -10 -62q-39 -190 -45 -284q-2 -35 6 -53.5t24 -18.5 q20 0 43 13.5t64 48.5l24 -46q-10 -18 -40.5 -47.5t-78 -53t-98.5 -23.5q-113 0 -112 110q0 53 16 144.5t18 107.5q2 6 21 115q27 135 41 226t14 173q0 98 -31.5 137t-101.5 39q-92 0 -204.5 -85t-190.5 -206l-101 -741h-155z" />
<glyph unicode="&#x45c;" horiz-adv-x="1112" d="M133 0l133 995l-98 47l14 74l215 43l45 -22l-65 -498h176q82 61 142.5 115.5t127.5 132.5q18 16 38 47t24 57v8q0 12 -2 25.5t-2 34.5q0 41 32.5 68.5t75.5 27.5q33 0 54.5 -18.5t21.5 -57.5q0 -100 -98.5 -199.5t-280.5 -234.5l-63 -47q41 -45 131 -199 q90 -145 143 -215.5t98 -79.5l72 -28l-8 -76h-166q-59 0 -112.5 75t-127.5 218q-68 131 -111.5 196.5t-90.5 65.5h-84l-74 -555h-160zM590 1366l324 424l112 -115q-20 -35 -90.5 -110.5t-153.5 -148.5t-141 -103z" />
<glyph unicode="&#x45d;" horiz-adv-x="1206" d="M154 1044l12 72l219 43l39 -20l-70 -541l-12 -92q-8 -59 -14 -118.5t-6 -108.5q0 -106 38.5 -145.5t114.5 -39.5q82 0 175 64.5t153 150.5l110 842h158l-131 -987q-2 -8 -2 -25q0 -49 27 -49q43 0 112 70l25 -47q-12 -18 -45 -50t-81 -56.5t-97 -24.5q-47 0 -74 28.5 t-27 75.5q0 20 2 31q6 25 11 76l-3 2q-72 -92 -169 -153.5t-209 -61.5q-119 0 -182.5 61t-63.5 211q0 102 35 354l55 389zM403 1667l121 121l301 -424l-53 -51q-74 45 -202 166.5t-167 187.5z" />
<glyph unicode="&#x45e;" horiz-adv-x="1073" d="M-119 -475l39 131q78 -39 170 -39q86 0 185.5 73.5t177.5 229.5h-78l-185 1053q-8 39 -19 53t-30 14q-18 0 -37.5 -12t-50.5 -43l-24 53q18 33 76.5 77t119.5 44q63 0 90 -33.5t35 -103.5l107 -766l28 -279l166 318q33 70 51 102q88 176 130 294t42 245q0 27 -8 49.5 t-10 26.5q-16 41 -16 61q0 43 21.5 63.5t56.5 20.5q53 0 82.5 -47t29.5 -133q0 -131 -58.5 -274.5t-160.5 -335.5l-37 -70q-111 -223 -204 -381t-160 -240q-127 -182 -340 -182q-43 0 -100.5 9.5t-88.5 21.5zM274 1620q0 41 9 72h137q22 0 22 -43q0 -20 -3 -39t-3 -35 q0 -76 47 -114t152 -38q109 0 160 50.5t63 148.5q8 70 37 70h115q0 -20 -2 -33q-27 -160 -128.5 -239t-254.5 -79q-158 0 -254.5 71t-96.5 208z" />
<glyph unicode="&#x45f;" horiz-adv-x="1251" d="M154 1044l12 72l219 43l39 -20l-70 -541l-12 -92q-8 -59 -14 -118.5t-6 -108.5q0 -106 38.5 -145.5t114.5 -39.5q82 0 175 64.5t153 150.5l41 307q68 524 69 535h158l-131 -987q-2 -8 -2 -25q0 -49 27 -49q43 0 112 70l25 -47q-12 -18 -45 -50t-81 -56.5t-97 -24.5 t-75 31.5t-26 90.5q0 39 13 89q-84 -100 -183.5 -156.5t-197.5 -56.5q-119 0 -182.5 61t-63.5 211q0 102 35 354l55 389zM408 -440q8 2 47 13t58 31.5t19 51.5t-10 65q-10 51 -10 84q0 68 53 112t107 52l37 -39q-29 -14 -46.5 -36.5t-15.5 -65.5q0 -18 12 -64q14 -57 15 -92 q0 -68 -60.5 -105.5t-162.5 -62.5z" />
<glyph unicode="&#x462;" horiz-adv-x="1388" d="M8 1004l58 256h471l22 167l-135 25l8 70h465l-8 -70l-164 -29l-25 -163h584l-63 -256h-88l18 155l-461 15l-59 -422q151 22 262 22q217 0 327.5 -91t110.5 -249q0 -219 -156.5 -334.5t-422.5 -115.5q-39 0 -111 6q-160 10 -184 10h-250l8 82l164 22l145 1072l-360 -17 l-62 -155h-94zM541 92q115 -18 211 -18q193 0 303 92t110 246q0 115 -83 189.5t-232 74.5q-53 0 -122 -6t-110 -15z" />
<glyph unicode="&#x463;" horiz-adv-x="1744" d="M133 0l133 999l-98 48l14 73l215 43l39 -20l-26 -258q88 121 207.5 199.5t234.5 78.5q113 0 172 -68.5t59 -226.5q0 -74 -43 -305q20 31 78 76t137.5 79t165.5 34q127 0 188.5 -83t61.5 -227q0 -102 -64.5 -210.5t-178 -181.5t-248.5 -73q-143 0 -233.5 94.5t-90.5 258.5 q0 53 8 102l8 47q47 264 48 377q0 100 -31 138t-107 38q-88 0 -199.5 -84t-191.5 -205l-100 -743h-158zM1008 309q0 -109 47 -174t139 -65q90 0 164 53t116 135t42 164q0 100 -36 157.5t-137 57.5q-59 0 -126.5 -32t-122 -84t-74.5 -107l-4 -6q-8 -48 -8 -99z" />
<glyph unicode="&#x46a;" horiz-adv-x="2002" d="M-43 0l10 72l86 24q27 10 80 70.5t160 193.5q139 178 234.5 284t160.5 134q35 16 109 17h110l-426 637l23 90h1282l-2 -90l-604 -637h120q66 0 105 -19q61 -18 130 -121.5t167 -285.5q63 -123 105 -190.5t73 -82.5l90 -24l-8 -72h-223q-33 0 -78 77t-119 232 q-96 199 -156.5 297.5t-113.5 98.5h-166l-76 -609l156 -24l-4 -72h-465l8 72l152 24l75 606h-147q-51 0 -134 -98t-218 -289q-117 -164 -178.5 -239.5t-96.5 -75.5h-221zM666 1401l378 -606l545 606h-923z" />
<glyph unicode="&#x46b;" horiz-adv-x="1767" d="M-29 0l13 92l79 21q29 8 70 53t113 133q123 156 216 244t177 88h172l-369 424l23 82h1116l-2 -82l-487 -424h172q84 0 151.5 -88t149.5 -246q51 -94 78.5 -137t54.5 -49l71 -19l-14 -92h-137q-51 0 -93 63.5t-100 190.5q-66 143 -117 217t-118 74h-164l-74 -545h-170 l76 545h-166q-68 0 -139.5 -74t-175.5 -215q-94 -129 -154.5 -192.5t-113.5 -63.5h-138zM614 1024l334 -393h6l443 393h-783z" />
<glyph unicode="&#x472;" horiz-adv-x="1386" d="M115 641q0 256 91 462t249.5 322.5t355.5 116.5q166 0 279.5 -88t169 -236.5t55.5 -330.5q0 -254 -89 -462t-248 -326.5t-357 -118.5q-164 0 -278 87t-171 236.5t-57 337.5zM279 641q4 -256 100 -409.5t264 -153.5q133 0 242.5 90t177 251t78.5 363q-106 -127 -260 -127 q-57 0 -105.5 20.5t-107.5 57.5q-49 31 -82 46.5t-68 15.5q-61 0 -124.5 -35t-114.5 -82v-37zM283 778q117 129 266 129q55 0 101 -19.5t106 -56.5q51 -31 84.5 -46t70.5 -15q74 0 129.5 36t102.5 85q-6 252 -97.5 400.5t-259.5 148.5q-129 0 -237.5 -84t-179 -234.5 t-86.5 -343.5z" />
<glyph unicode="&#x473;" horiz-adv-x="1146" d="M84 442q0 184 72.5 350t204 268.5t294.5 102.5q193 0 296.5 -124t103.5 -347q0 -180 -73 -344t-203 -266t-294 -102q-193 0 -297 120.5t-104 341.5zM254 440q2 -174 68.5 -267t191.5 -93q129 0 220 117.5t128 289.5q-63 -63 -155 -63q-57 0 -92 21.5t-78 64.5 q-33 37 -57.5 54.5t-63.5 17.5q-43 0 -82 -30t-80 -77v-35zM268 623q37 43 85 67.5t100 24.5q49 0 80.5 -20.5t78.5 -65.5q37 -37 62.5 -54.5t60.5 -17.5q53 0 84 30.5t66 86.5v26q-2 174 -66.5 268.5t-189.5 94.5q-141 0 -233.5 -127t-127.5 -313z" />
<glyph unicode="&#x474;" horiz-adv-x="1275" d="M86 1440l8 82h506l-10 -82l-205 -21l190 -987l50 -293l94 291l303 842q45 133 128 192.5t169 59.5q35 0 63.5 -4t36.5 -9l-14 -114q-18 6 -43 6q-76 0 -152.5 -57.5t-122.5 -188.5l-442 -1171l-129 -2l-291 1435z" />
<glyph unicode="&#x475;" horiz-adv-x="1048" d="M29 1057q23 31 73 68.5t111 37.5q63 0 90 -33.5t37 -103.5l78 -668l20 -213l101 211l249 529q66 137 144 206.5t147 69.5q57 0 82 -12l-12 -131q-20 4 -33 4q-131 0 -258 -248l-395 -788l-123 -2l-164 991q-12 70 -47 69q-31 0 -76 -40z" />
<glyph unicode="&#x48a;" horiz-adv-x="1568" d="M25 0l8 72l149 24l166 1323l-137 21l10 82h451l-10 -82l-150 -21l-135 -1052l80 94l790 848l15 110l-148 21l8 82h455l-10 -82l-144 -21l-163 -1315h251q-12 -72 -65 -337l-23 -109h-98q6 82 8 113q2 27 6 88t4 98q0 31 -2 43h-407l4 72l160 24l131 1061l-156 -174 l-713 -764l-16 -123l156 -24l-6 -72h-469zM565 1939q0 45 8 68h140q20 0 20 -33q0 -18 -2 -39.5t-2 -44.5q0 -76 49 -113.5t158 -37.5q113 0 166 51t65 149q8 68 37 68h115q0 -20 -2 -33q-27 -160 -130.5 -238.5t-262.5 -78.5q-162 0 -260.5 70.5t-98.5 211.5z" />
<glyph unicode="&#x48b;" horiz-adv-x="1210" d="M154 1044l12 72l219 43l39 -20l-70 -541l-12 -92q-8 -59 -14 -118.5t-6 -108.5q0 -106 38.5 -145.5t114.5 -39.5q82 0 175 64.5t153 150.5l110 842h158l-131 -987q-2 -8 -2 -25q0 -49 27 -49q43 0 112 70l25 -47q-12 -20 -49 -54t-84 -57q-51 -25 -78 -44t-27 -56 q0 -20 17 -70q23 -63 22 -98q0 -72 -74.5 -136.5t-164.5 -84.5l-43 53q49 14 91 54t42 83q0 31 -13 72q-14 35 -14 78q0 80 96 143q-49 27 -49 98q0 35 14 99l-4 2q-76 -92 -171 -153.5t-203 -61.5q-119 0 -182.5 61t-63.5 211q0 102 35 354l55 389zM340 1620q0 41 9 72h137 q22 0 22 -43q0 -20 -3 -39t-3 -35q0 -76 47 -114t152 -38q109 0 160 50.5t63 148.5q8 70 37 70h115q0 -20 -2 -33q-27 -160 -128.5 -239t-254.5 -79q-158 0 -254.5 71t-96.5 208z" />
<glyph unicode="&#x48c;" horiz-adv-x="1200" d="M25 0l8 72l149 24l121 977h-151l10 88h153l33 258l-137 21l10 82h465l-8 -82l-168 -21l-33 -258h328l-10 -88h-328l-31 -250q143 33 264 33q219 0 336 -92t117 -258t-78 -284t-211 -178t-299 -60q-41 0 -121 6q-174 10 -196 10h-223zM344 94q148 -18 236 -18 q184 0 296.5 106.5t112.5 298.5q0 131 -89 201t-249 70q-111 0 -227 -25z" />
<glyph unicode="&#x48d;" horiz-adv-x="1085" d="M78 1034l10 88h191l53 391l-117 33l12 70l240 35l41 -25l-70 -504h391l-12 -88h-389l-66 -485q27 49 90.5 96t143.5 77t149 30q131 0 195 -83t64 -227q0 -102 -65 -210.5t-177.5 -181.5t-249.5 -73q-147 0 -239.5 99.5t-92.5 271.5q0 41 6 84l80 602h-188zM340 326 q0 -119 46 -187.5t140 -68.5q92 0 166 53t115 135t41 164q0 100 -37 156.5t-141 56.5q-62 0 -129.5 -33t-120.5 -83t-74 -101q-6 -49 -6 -92z" />
<glyph unicode="&#x48e;" horiz-adv-x="1230" d="M25 0l8 72l149 24l166 1323l-137 21l8 82h234q55 0 153 8t152 8q463 0 463 -401q0 -172 -73 -301t-200 -203l168 -256l-72 -49l-174 266q-121 -51 -270 -51q-55 0 -203 8l-51 -455l186 -24l-6 -72h-501zM412 657q94 -16 194 -16q123 0 209 39l-131 201l74 47l131 -203 q160 121 160 418q0 150 -70 224.5t-229 74.5q-47 0 -117 -6t-121 -15z" />
<glyph unicode="&#x48f;" horiz-adv-x="1159" d="M47 -520l207 1534l-109 41l15 65l225 43l39 -20l-21 -164q58 78 142 131t186 53q168 0 255 -117.5t87 -316.5q0 -152 -66.5 -314.5t-183.5 -273.5l178 -209l-63 -57l-180 211q-145 -106 -322 -106q-59 0 -162 24l-71 -524h-156zM291 127q61 -47 170 -47q123 0 225 88 l-176 209l61 55l177 -201q73 95 114 228t41 260q0 156 -54 240.5t-149 84.5q-94 0 -178 -60t-131 -136z" />
<glyph unicode="&#x490;" horiz-adv-x="1001" d="M-35 0l8 72l209 24l164 1321l-201 25l9 80h835l98 358h111l-78 -473l-614 25l-164 -1336l305 -24l-8 -72h-674z" />
<glyph unicode="&#x491;" horiz-adv-x="802" d="M98 1053l11 84h616l86 325h92l-57 -422h-459l-131 -1040h-150l127 1026z" />
<glyph unicode="&#x492;" horiz-adv-x="1077" d="M8 0l8 72l166 24l76 602h-174l2 93h182l78 626l-172 25l10 80h926l-41 -471h-108l-7 372l-446 9l-80 -641h430v-93h-442l-74 -602l328 -24l-6 -72h-656z" />
<glyph unicode="&#x493;" horiz-adv-x="899" d="M43 446l10 91h166l64 489l-138 27l11 84h770l-64 -349h-80l4 250l-352 2l-65 -503h301l-11 -91h-303l-55 -446h-147l55 446h-166z" />
<glyph unicode="&#x494;" horiz-adv-x="1179" d="M8 0l8 72l166 24l164 1321l-172 25l10 80h926l-41 -467h-108l-7 368l-446 9l-84 -670q65 39 174 67.5t184 28.5q205 0 287 -97t82 -276q0 -205 -68.5 -395t-195.5 -310t-291 -120q-25 0 -57.5 4t-44.5 10l10 97q18 -4 84 -4q119 0 211 91t142 248.5t50 346.5 q0 154 -59.5 227.5t-198.5 73.5q-82 0 -140 -15.5t-132 -44.5l-47 -18l-72 -580l227 -24l-8 -72h-553z" />
<glyph unicode="&#x495;" horiz-adv-x="1128" d="M131 1053l10 84h768l-61 -349h-82l8 250l-356 2l-68 -546q58 63 151 107t187 44q190 0 269 -93t79 -263q0 -184 -77.5 -344t-213 -254t-301.5 -94q-25 0 -57.5 4t-44.5 10l10 96q18 -4 84 -4q121 0 222.5 67.5t161 192.5t59.5 291q0 152 -53.5 218.5t-192.5 66.5 q-82 0 -162 -41t-133 -92l-49 -406h-150l127 1026z" />
<glyph unicode="&#x496;" horiz-adv-x="2021" d="M-25 0l9 72l86 24q27 8 80 68.5t157 191.5q143 182 242.5 291t169.5 137l-406 633l-153 23l10 82h444l-8 -82l-164 -21l377 -624h162l80 624l-139 21l10 82h442l-8 -82l-152 -21l-77 -624h176l514 624l-158 21l10 82h443l-11 -82l-153 -23l-545 -631q60 -26 127.5 -127.5 t167.5 -281.5q76 -137 117 -201.5t71 -79.5h103q-8 -51 -55 -276l-33 -162h-101l7 82q14 172 14 217q0 31 -2 43h-72q-35 0 -79 76t-122 237q-90 190 -152.5 291t-113.5 101h-166l-75 -609l153 -24l-4 -72h-463l8 72l150 24l78 606h-148q-51 0 -134 -98t-220 -291 q-115 -162 -176.5 -237.5t-95.5 -75.5h-222z" />
<glyph unicode="&#x497;" horiz-adv-x="1835" d="M-39 14l55 154l115 -94q66 0 135.5 79.5t115.5 219t46 309.5t-45 254t-119 84q-57 0 -100 -27.5t-103 -91.5l-36 43q137 203 288 203q123 0 199 -118t76 -320q0 -29 -4 -78h256l59 504h160l-62 -504h250q33 141 101.5 259t164 187.5t205.5 69.5q86 0 129 -37l-55 -152 l-113 95q-68 0 -137 -80t-115.5 -219.5t-46.5 -309.5t44 -254t118 -84q57 0 103.5 28t103.5 91l35 -45q-82 -127 -182 -174q-43 -27 -64.5 -47t-21.5 -57q0 -18 8 -43t10 -33q23 -53 22 -88q0 -74 -74.5 -139.5t-164.5 -85.5l-43 53q49 16 90 56t41 87q0 31 -12 68 q-14 35 -15 76q0 74 72 131q-104 23 -165.5 136t-61.5 298q0 74 8 129h-242l-65 -547h-160l67 547h-260q-27 -152 -95 -282t-167.5 -207.5t-216.5 -77.5q-86 0 -131 34z" />
<glyph unicode="&#x498;" d="M8 68l86 331h86l-16 -254q45 -25 123 -41t180 -16q121 0 217 48t151.5 140.5t55.5 219.5q0 117 -77 183t-245 66l-176 -8l10 105h150q82 0 162 43t133 129t53 209q0 109 -66.5 165t-193.5 56q-94 0 -170 -24.5t-106 -61.5l-41 -189h-97l23 301q35 2 125 25q160 43 258 43 q211 0 323.5 -78t112.5 -213q0 -184 -106.5 -293.5t-243.5 -140.5q172 -2 261 -88t89 -219q0 -201 -139 -335t-359 -171q25 -59 25 -139q0 -162 -75 -245t-195 -83q-39 0 -78 9t-55 22q6 45 14 121q12 -8 40.5 -13.5t59.5 -5.5q92 0 140.5 66.5t48.5 179.5q0 37 -9 78 l-77 -2q-219 2 -402 80z" />
<glyph unicode="&#x499;" horiz-adv-x="1013" d="M25 72l59 157l88 -96q43 -31 96.5 -43t124.5 -12q174 0 266.5 75.5t92.5 204.5q0 92 -72 143.5t-215 49.5l-111 -23l21 111l63 6q96 12 171 52t116 96.5t41 115.5q0 76 -58.5 117t-181.5 41q-92 0 -142 -16.5t-105 -42.5l-56 -199h-92l37 297q61 -1 147 22 q57 16 111.5 24.5t134.5 8.5q174 0 270.5 -63.5t96.5 -175.5q0 -90 -96.5 -179.5t-217.5 -128.5q141 -4 225.5 -67.5t84.5 -169.5q0 -141 -99.5 -239.5t-261.5 -135.5q-41 -20 -65.5 -42.5t-24.5 -57.5q0 -25 19 -72q8 -23 15 -47.5t7 -46.5q0 -74 -74.5 -138.5 t-165.5 -84.5l-43 53q49 16 90 56t41 87q0 23 -4 39t-6 21q-14 35 -14 84q0 39 20.5 72.5t55.5 60.5l-15 -2q-213 0 -374 88z" />
<glyph unicode="&#x49a;" horiz-adv-x="1329" d="M25 0l8 72l149 24l166 1323l-137 21l8 82h449l-9 -82l-151 -21l-78 -624h195l497 620l-164 25l11 82h444l-10 -82l-152 -23l-524 -637q59 -35 123.5 -137t155.5 -276q66 -123 102.5 -185.5t62.5 -75.5h105q-6 -72 -40 -229.5t-50 -218.5h-101l11 127q12 127 12 180 q0 25 -2 35h-53q-35 0 -79 76t-122 237q-90 190 -152.5 291t-113.5 101h-168l-76 -609l156 -24l-6 -72h-467z" />
<glyph unicode="&#x49b;" horiz-adv-x="1112" d="M133 0l133 995l-98 47l14 74l215 43l45 -22l-65 -498h176q82 61 142.5 115.5t127.5 132.5q18 16 38 47t24 57v8q0 12 -2 25.5t-2 34.5q0 41 32.5 68.5t75.5 27.5q33 0 54.5 -18.5t21.5 -57.5q0 -100 -98.5 -199.5t-280.5 -234.5l-63 -47q41 -45 131 -199 q90 -145 143 -215.5t98 -79.5l72 -28l-8 -76q-43 -4 -82 -27.5t-39 -70.5q0 -23 16 -72q20 -61 21 -92q0 -74 -74 -139.5t-164 -85.5l-43 53q49 16 90 56t41 87q0 16 -4 33.5t-6 26.5q-14 53 -14 84q0 92 104 147h-12q-59 0 -112.5 75t-127.5 218q-68 131 -111.5 196.5 t-90.5 65.5h-84l-74 -555h-160z" />
<glyph unicode="&#x49c;" horiz-adv-x="1458" d="M25 0l8 72l149 24l166 1323l-137 21l8 82h449l-9 -82l-151 -21l-78 -624h188l50 342h94l-49 -342h84l454 620l-164 25l11 82h442l-10 -82l-152 -23l-479 -635q59 -30 119.5 -135.5t140.5 -279.5q66 -137 97.5 -195.5t58.5 -67.5l80 -22l-11 -82h-204q-35 0 -76 77 t-107 236q-80 190 -134 289.5t-105 102.5h-58l-47 -334h-96l47 334h-186l-76 -609l156 -24l-6 -72h-467z" />
<glyph unicode="&#x49d;" horiz-adv-x="1251" d="M133 0l133 995l-98 47l14 74l215 43l45 -22l-65 -498h139l29 240h104l-31 -240h62q76 59 129 116.5t119 147.5q20 18 36.5 45t18.5 51v13l-2 53q0 43 31.5 66.5t77.5 23.5q31 0 53 -19.5t22 -58.5q0 -78 -59 -158.5t-138 -147t-212 -169.5q27 -31 60.5 -87t66.5 -116 q76 -137 128 -211.5t99 -83.5l72 -28l-8 -76h-166q-59 0 -111.5 77t-118.5 220q-57 119 -95 180.5t-77 75.5l-33 -285h-104l35 287h-137l-74 -555h-160z" />
<glyph unicode="&#x49e;" horiz-adv-x="1329" d="M25 0l8 72l149 24l123 985h-137v88h149l31 250l-137 21l8 82h449l-9 -82l-151 -21l-31 -250h201v-88h-213l-35 -286h195l497 620l-164 25l11 82h444l-10 -82l-152 -23l-524 -637q57 -35 120.5 -136t156.5 -273q72 -135 108.5 -196.5t63.5 -70.5l90 -22l-11 -82h-202 q-35 0 -79 76t-122 237q-90 190 -152.5 291t-113.5 101h-168l-76 -609l156 -24l-6 -72h-467z" />
<glyph unicode="&#x49f;" horiz-adv-x="1081" d="M98 1235l15 90h172l24 188l-114 33l12 70l235 35l43 -25l-41 -301h224l-15 -90h-219l-168 -1235h-155l161 1235h-174zM373 610q53 39 121 80q104 68 163.5 115t104.5 108q49 66 57 156q8 45 38 69.5t69 24.5q35 0 59.5 -23.5t24.5 -60.5q4 -59 -45 -127 q-51 -74 -150.5 -144.5t-247.5 -158.5l-49 -28l289 -428q29 -41 61.5 -68t57.5 -27q47 0 106 58l27 -52q-27 -45 -90.5 -84.5t-130.5 -39.5q-92 0 -158 108z" />
<glyph unicode="&#x4a0;" horiz-adv-x="1622" d="M94 1038l80 484h787l-11 -82l-151 -21l-78 -624h197l497 620l-166 25l11 82h444l-10 -82l-152 -23l-522 -635q59 -32 128 -137.5t159 -277.5q61 -119 103 -186.5t67 -76.5l79 -22l-10 -82h-203q-35 0 -78.5 76t-121.5 237q-90 190 -152.5 291t-113.5 101h-168l-76 -609 l158 -24l-7 -72h-467l7 72l147 24l170 1334l-334 -7l-102 -385h-111z" />
<glyph unicode="&#x4a1;" horiz-adv-x="1333" d="M59 729l60 406h532l-65 -496h176q86 66 147.5 125t120.5 139q23 18 41.5 45t20.5 51v13l-2 53q0 43 31.5 66.5t74.5 23.5q35 0 56.5 -18.5t21.5 -57.5q0 -98 -97.5 -196.5t-275.5 -231.5l-67 -51q43 -47 145 -205q86 -135 143.5 -208.5t102.5 -82.5l71 -28l-8 -76h-166 q-59 0 -115.5 76t-134.5 219q-76 135 -119.5 197.5t-90.5 62.5h-89l-73 -555h-158l141 1049l-241 -19l-82 -301h-101z" />
<glyph unicode="&#x4a2;" horiz-adv-x="1523" d="M25 0l8 72l149 24l166 1323l-137 21l10 82h451l-10 -82l-150 -21l-76 -590h715l74 590l-150 21l8 82h455l-10 -82l-144 -21l-163 -1323h165q-12 -100 -65 -342q-20 -100 -21 -96h-100l8 119q12 127 13 178q0 33 -2 45h-328l6 72l164 24l76 627h-715l-78 -627l156 -24 l-6 -72h-469z" />
<glyph unicode="&#x4a3;" horiz-adv-x="1304" d="M133 0l133 995l-98 47l14 74l215 43l45 -22l-65 -502h571l66 502h153l-116 -975q-2 -9 -2 -25q0 -47 24 -47q45 0 98 53l27 -47q-10 -16 -35.5 -39.5t-58.5 -42.5q-12 -8 -44 -24.5t-50.5 -38t-18.5 -49.5q0 -27 19 -74q20 -53 20 -90q0 -74 -73.5 -139.5t-163.5 -85.5 l-43 53q49 16 90 56t41 87q0 23 -13 60q-14 53 -14 84q0 74 80 135q-57 20 -57 86q0 18 2 26l57 437h-574l-69 -537h-160z" />
<glyph unicode="&#x4a4;" horiz-adv-x="1908" d="M25 0l8 72l149 24l166 1323l-137 21l10 82h451l-10 -82l-150 -21l-76 -590h715l74 590l-150 21l8 82h873l-39 -473h-109l-8 376l-411 11l-168 -1340l161 -24l-8 -72h-483l6 72l164 24l76 627h-715l-78 -627l156 -24l-6 -72h-469z" />
<glyph unicode="&#x4a5;" horiz-adv-x="1587" d="M133 0l133 995l-98 47l14 74l215 43l45 -22l-65 -502h571q2 8 27 209q35 272 39 293h602l-62 -406h-98l10 307l-309 2l-106 -878q-2 -8 -2 -25q0 -47 24 -47q45 0 98 53l27 -47q-25 -33 -84 -74.5t-127 -41.5q-49 0 -79.5 23.5t-30.5 70.5q0 16 2 26l57 437h-574 l-69 -537h-160z" />
<glyph unicode="&#x4a6;" horiz-adv-x="2041" d="M29 0l6 72l147 24l164 1315l-166 29l8 82h1303l-8 -82l-152 -21l-80 -616q66 26 170.5 46.5t157.5 20.5q211 0 294 -93t83 -265q0 -219 -68.5 -428t-194.5 -341t-288 -132q-25 0 -56.5 4t-45.5 10l10 94q29 -6 84 -6q119 0 210 104.5t140 279.5t49 382q0 147 -62.5 216 t-205.5 69q-74 0 -138.5 -13.5t-148.5 -37.5l-78 -617l160 -24l-6 -72h-469l6 72l147 24l168 1323h-659l-166 -1323l156 -24l-6 -72h-465z" />
<glyph unicode="&#x4a7;" horiz-adv-x="1667" d="M133 0l133 999l-98 48l14 73l215 43l39 -20l-26 -258q88 121 207.5 199.5t236.5 78.5q111 0 170 -68.5t59 -226.5q0 -78 -51 -419l-8 -56q160 164 334 164q152 0 206 -86t54 -233q0 -137 -65.5 -293t-179 -261.5t-251.5 -105.5q-41 0 -65 6l6 76l22 -2q106 0 189.5 82 t127.5 207t44 252q0 121 -32 185.5t-124 64.5q-68 0 -136.5 -41t-143.5 -113l-43 -295h-162l18 115l51 327q45 293 46 414q0 100 -31 138t-107 38q-88 0 -199.5 -85t-189.5 -204l-100 -743h-160z" />
<glyph unicode="&#x4a8;" horiz-adv-x="1662" d="M117 639q0 254 97 459t270 322.5t390 117.5q98 0 157 -27.5t108 -72.5l-43 -64q-19 25 -76 44.5t-162 19.5q-164 0 -292 -118t-197.5 -301t-69.5 -370q0 -252 111.5 -415.5t332.5 -163.5q86 0 172 28q-115 82 -182 212t-67 294q0 227 80.5 391t209.5 247t273 83 q162 0 263 -105.5t101 -287.5q0 -147 -59 -304t-165.5 -294t-242.5 -228q88 -39 183 -38q23 2 57.5 6t58.5 10l-8 -76q-37 -8 -86 -14t-71 -6q-133 0 -250 55q-137 -66 -287 -66q-188 0 -325.5 86.5t-209 237t-71.5 338.5zM834 625q0 -152 56 -274t152 -193 q170 104 273.5 302.5t103.5 409.5q0 358 -227 359q-98 0 -180 -72t-130 -208t-48 -324z" />
<glyph unicode="&#x4a9;" horiz-adv-x="1323" d="M88 469q0 197 83 356.5t221 250.5t294 91q68 0 119 -17t67 -36l-34 -80q-25 19 -56.5 28t-91.5 9q-123 0 -221 -72.5t-154.5 -210t-56.5 -321.5q0 -180 75 -290.5t228 -110.5q96 0 164 14q-76 57 -114 145t-38 199q0 135 52.5 245.5t141.5 173t194 62.5q125 0 202.5 -81 t77.5 -220q0 -166 -81 -301t-220 -219q61 -20 156 -21q51 0 100 5l-10 -76q-16 -4 -48 -8t-63 -4q-141 0 -256 47q-141 -49 -282 -50q-221 0 -335 137.5t-114 354.5zM731 424q0 -211 131 -301q104 53 167 184t63 309q0 98 -37 151.5t-103 53.5q-106 0 -163.5 -121.5 t-57.5 -275.5z" />
<glyph unicode="&#x4aa;" horiz-adv-x="1236" d="M88 649q0 262 101.5 464t272.5 313.5t372 111.5q119 0 193.5 -12.5t158.5 -34.5l43 -14l-62 -365h-100l-8 277q-41 24 -96.5 37.5t-149.5 13.5q-178 0 -303 -117t-186.5 -295t-61.5 -360q0 -242 93.5 -413t289.5 -171q84 0 172 25.5t125 70.5q37 119 66 223h100l-41 -329 q-119 -41 -218 -65.5t-235 -24.5q-182 0 -299.5 96t-172 247.5t-54.5 321.5zM311 -434l13 121q12 -8 40.5 -13.5t61.5 -5.5q90 0 138 66.5t48 179.5q0 55 -16 108l39 5l43 -5q35 -59 35 -159q0 -162 -75 -245t-196 -83q-39 0 -76.5 9t-54.5 22z" />
<glyph unicode="&#x4ab;" horiz-adv-x="894" d="M76 436q0 164 69.5 333t202.5 281.5t314 112.5q57 0 119.5 -13t103.5 -36l-47 -164q-4 4 -11.5 8.5t-11.5 8.5q-45 33 -95 54t-95 21q-115 0 -201 -74.5t-132 -207.5t-46 -307q0 -176 62.5 -266.5t174.5 -90.5q84 0 146.5 31t142.5 94l33 -67q-51 -57 -133 -109.5 t-191 -62.5q-55 -31 -55 -80q0 -27 18 -72q20 -61 21 -94q0 -74 -74 -138.5t-164 -84.5l-45 53q51 16 93 56t42 87q0 20 -12 58q-16 49 -16 86q0 39 21.5 73.5t56.5 59.5q-141 25 -216 142.5t-75 307.5z" />
<glyph unicode="&#x4ac;" horiz-adv-x="1239" d="M84 1067l72 455h1151l-62 -455l-88 -2l14 352l-372 17l-174 -1338h266q-10 -73 -38 -211.5t-46 -226.5h-100l10 127q12 127 12 180q0 25 -2 35h-514l4 78l246 18l172 1338l-369 -17l-90 -348z" />
<glyph unicode="&#x4ad;" horiz-adv-x="1886" d="M133 0l133 999l-98 48l14 73l215 43l39 -20l-26 -258q88 121 207.5 199.5t234.5 78.5q109 0 165 -63.5t60 -200.5q80 115 187.5 189.5t216.5 74.5t171 -71.5t62 -225.5q0 -47 -11 -122.5t-24 -149.5l-14 -88l-8 -45q-37 -221 -43 -301l-2 -25q0 -45 24 -45 q25 0 51.5 15.5t63.5 52.5l25 -45q-14 -23 -50 -56.5t-81 -56.5q-45 -25 -68 -43t-23 -55q0 -27 19 -72q20 -61 20 -92q0 -74 -74.5 -139.5t-162.5 -85.5l-45 53q49 16 91 56t42 87q0 18 -12 60q-14 53 -15 84q0 74 82 139q-51 20 -51 96q0 45 11 121t24 149q12 70 16 103 l12 69q39 217 39 326q0 98 -30.5 136t-100.5 38q-78 0 -173 -73.5t-173 -184.5q-10 -100 -35 -266l-67 -506h-164l65 457q20 129 33 224t13 175q-2 102 -30 139t-106 37q-88 0 -199.5 -84t-189.5 -203l-100 -745h-160z" />
<glyph unicode="&#x4ae;" horiz-adv-x="1181" d="M57 1440l6 82h492l-12 -82l-185 -21l240 -594l47 -137l80 137l362 594l-157 21l10 82h408l-11 -82l-110 -19l-531 -833l-63 -492l223 -24l-8 -72h-610l6 72l233 24l64 492l-367 831z" />
<glyph unicode="&#x4af;" d="M25 1040q23 35 78 78t118 43t87 -31.5t40 -105.5l141 -711l29 -180l117 156q125 170 210 334.5t85 318.5q0 23 -19 74q-14 37 -14 57q0 43 22.5 64.5t59.5 21.5q51 0 81 -48t30 -132q0 -274 -365 -739l-88 -111l-82 -102l-80 -346q-6 -23 -6 -37q0 -51 45 -52 q31 0 63.5 20.5t73.5 61.5l25 -47q-10 -18 -49 -53t-92.5 -62.5t-108.5 -27.5q-57 0 -88 28.5t-31 81.5q0 20 6 46l101 413l-228 922q-10 39 -21 53t-28 14q-18 0 -37.5 -12t-52.5 -43z" />
<glyph unicode="&#x4b0;" horiz-adv-x="1179" d="M57 1440l6 82h490l-10 -82l-185 -21l240 -594l47 -137l80 137l362 594l-159 21l10 82h408l-9 -82l-110 -19l-529 -829h400l-15 -88h-397l-53 -408l223 -24l-8 -72h-610l6 72l233 24l53 408h-383l15 88h377l-365 827z" />
<glyph unicode="&#x4b1;" d="M25 1040q23 35 78 78t118 43t87 -31.5t40 -105.5l141 -711l29 -180l117 156q125 170 210 334.5t85 318.5q0 23 -19 74q-14 37 -14 57q0 43 22.5 64.5t59.5 21.5q51 0 81 -48t30 -132q0 -274 -365 -739l-39 -47l-82 -105h373l-10 -88h-416l-76 -319q-6 -23 -6 -37 q0 -51 45 -52q31 0 63.5 20.5t73.5 61.5l25 -47q-10 -18 -49 -53t-92.5 -62.5t-108.5 -27.5q-57 0 -88 28.5t-31 81.5q0 20 6 46l86 360h-317l8 88h316l-220 887q-10 39 -21 53t-28 14q-18 0 -37.5 -12t-52.5 -43z" />
<glyph unicode="&#x4b2;" horiz-adv-x="1298" d="M-63 0l8 72l135 22l508 674l-307 649l-150 23l8 82h510l-8 -82l-174 -19l229 -547l381 545l-170 21l8 82h467l-6 -82l-145 -19l-486 -645l338 -680h179q-14 -92 -80 -395l-11 -43h-100l10 106q14 162 15 201q0 25 -2 35h-383l6 72l176 22l-258 572l-399 -570l178 -24 l-8 -72h-469z" />
<glyph unicode="&#x4b3;" horiz-adv-x="1009" d="M-25 0l457 596l-164 389q-14 33 -29.5 48.5t-41.5 15.5q-29 0 -57.5 -17.5t-43.5 -36.5l-30 47q18 33 76.5 75t127.5 42q66 0 97.5 -25.5t48.5 -78.5l106 -361l328 457h170l-451 -584l187 -411q14 -33 28.5 -48.5t36.5 -15.5q51 0 117 72l31 -47q-8 -20 -48 -57t-90 -60 q-43 -23 -65.5 -42t-22.5 -56q0 -27 19 -72q20 -61 20 -92q0 -74 -73.5 -139.5t-163.5 -85.5l-45 53q51 16 93 56t42 87q0 18 -12 60q-14 53 -15 84q0 80 80 137q-31 10 -48 32.5t-32 63.5l-129 383l-336 -469h-168z" />
<glyph unicode="&#x4b4;" horiz-adv-x="1859" d="M104 1057l86 465h945l-43 -465h-101v360l-262 2l-164 -1319h762l162 1317l-162 23l8 82h492l-8 -82l-177 -23l-163 -1311l256 -2q-16 -110 -90 -446h-99l8 98q14 168 15 205q0 29 -2 39h-1311l8 72l148 24l166 1323l-269 -2l-100 -360h-105z" />
<glyph unicode="&#x4b5;" horiz-adv-x="1210" d="M154 1044l12 72l219 43l39 -20l-70 -541l-12 -92q-8 -59 -14 -118.5t-6 -108.5q0 -106 38.5 -145.5t114.5 -39.5q82 0 175 64.5t153 150.5l110 842h158l-131 -987q-2 -8 -2 -25q0 -49 27 -49q43 0 112 70l25 -47q-12 -20 -49 -54t-84 -57q-51 -25 -78 -44t-27 -56 q0 -20 17 -70q23 -63 22 -98q0 -72 -74.5 -136.5t-164.5 -84.5l-43 53q49 14 91 54t42 83q0 31 -13 72q-14 35 -14 78q0 80 96 143q-49 27 -49 98q0 35 14 99l-4 2q-76 -92 -171 -153.5t-203 -61.5q-119 0 -182.5 61t-63.5 211q0 102 35 354l55 389zM441 1382l16 125h516 l-16 -125h-516z" />
<glyph unicode="&#x4b6;" horiz-adv-x="1275" d="M82 1438l8 84h449l-9 -82l-149 -23l-35 -264q-16 -131 -16 -205q0 -131 54 -183t196 -52q80 0 171 20.5t144 54.5l80 631l-152 21l8 82h455l-12 -82l-137 -21l-166 -1323h266q-18 -84 -54 -228t-57 -220h-100l18 200q12 137 15 152h-441l7 72l184 24l74 596 q-78 -47 -179.5 -70.5t-193.5 -23.5q-174 0 -262 67.5t-88 252.5q0 61 8 118l49 383z" />
<glyph unicode="&#x4b7;" d="M84 1044l14 72l217 43l43 -22l-34 -277q-15 -133 -15 -182q0 -76 20.5 -114t67.5 -52t138 -14q150 0 256 51l73 588h148l-111 -975l-2 -21q0 -25 8 -38t21 -13q45 0 98 53l27 -47q-12 -18 -45 -47t-72 -49q-43 -20 -67.5 -40.5t-24.5 -57.5q0 -27 18 -72q20 -61 21 -92 q0 -74 -74 -139.5t-164 -85.5l-45 53q49 16 91 56t42 87q0 18 -12 60q-14 53 -14 84q0 78 81 137q-57 20 -57 90q0 14 2 22l45 351q-150 -72 -336 -72q-152 0 -219 55.5t-67 204.5q0 49 10 135l27 217z" />
<glyph unicode="&#x4b8;" horiz-adv-x="1275" d="M82 1438l8 84h449l-9 -82l-149 -23l-35 -264q-14 -143 -14 -205q0 -127 49 -180t178 -55l41 317h84l-39 -313q72 6 139.5 24.5t110.5 46.5l80 631l-152 21l8 82h455l-12 -82l-137 -21l-166 -1323l159 -24l-6 -72h-506l7 72l184 24l74 596q-103 -61 -250 -84l-29 -237h-86 l29 227h-37q-174 0 -262 67.5t-88 252.5q0 61 8 118l49 383z" />
<glyph unicode="&#x4b9;" horiz-adv-x="1163" d="M84 1044l14 72l217 43l43 -22l-32 -254q-15 -107 -15 -189q0 -106 42 -149t153 -47l39 313h82l-37 -311q125 6 207 49l73 588h146l-109 -975l-2 -21q0 -25 8.5 -38t20.5 -13q45 0 98 53l27 -47q-20 -33 -82 -74.5t-129 -41.5q-51 0 -81 24.5t-30 75.5l2 22l45 351 q-104 -47 -209 -66l-28 -235h-84l26 229h-34q-162 0 -229.5 63.5t-67.5 217.5q0 82 10 153l25 178z" />
<glyph unicode="&#x4ba;" horiz-adv-x="1280" d="M47 0l12 82l137 21l166 1323l-159 24l6 72h506l-7 -72l-184 -24l-74 -596q78 47 179.5 70.5t193.5 23.5q174 0 262 -67.5t88 -252.5q0 -61 -8 -118l-49 -383l135 -19l-8 -84h-449l9 82l149 23l35 264q16 131 16 205q0 131 -54 183t-196 52q-80 0 -171 -20.5t-144 -54.5 l-80 -631l152 -21l-8 -82h-455z" />
<glyph unicode="&#x4bb;" horiz-adv-x="1243" d="M121 0l198 1513l-114 33l12 70l236 35l41 -25l-101 -754q88 125 208 208t241 83q113 0 171 -68.5t58 -228.5q0 -90 -43 -305q-2 -12 -4 -26.5t-6 -28.5q-8 -35 -10 -62q-39 -190 -45 -284q-2 -35 6 -53.5t24 -18.5q20 0 43 13.5t64 48.5l24 -46q-10 -18 -40.5 -47.5 t-78 -53t-98.5 -23.5q-113 0 -112 110q0 53 16 144.5t18 107.5q2 6 21 115q27 135 41 226t14 173q0 98 -31.5 137t-101.5 39q-92 0 -204.5 -85t-190.5 -206l-101 -741h-155z" />
<glyph unicode="&#x4bc;" horiz-adv-x="1472" d="M14 936q0 43 24.5 106.5t47.5 77.5l125 -24q-16 -20 -36.5 -71.5t-20.5 -78.5q0 -47 44 -77.5t134 -32.5q41 207 145.5 366.5t250.5 247.5t312 88q195 0 300.5 -131t105.5 -371q0 -84 -11.5 -164.5t-27.5 -126.5l-934 -2q-6 -68 -6 -139q0 -170 49 -290.5t135 -182 t197 -61.5q209 0 340 104l59 176h88l-47 -295q-39 -1 -125 -24q-82 -25 -163.5 -39.5t-196.5 -14.5q-154 0 -266.5 76t-171 214.5t-58.5 322.5q0 70 10 151q-135 2 -219 50.5t-84 144.5zM481 836h781q30 127 30 227q0 98 -32.5 185t-100 141.5t-166.5 54.5 q-123 0 -228.5 -69.5t-179 -206t-104.5 -332.5z" />
<glyph unicode="&#x4bd;" horiz-adv-x="1259" d="M25 696q0 41 18 94.5t39 65.5l131 -31q-14 -14 -29.5 -58t-15.5 -73q0 -49 40 -81.5t122 -41.5q29 164 110.5 299.5t202.5 214t262 78.5q139 0 211 -68.5t74 -181.5q0 -145 -124 -244.5t-290 -149.5t-289 -52q-6 -88 15.5 -173t79 -141.5t153.5 -56.5q90 0 184.5 40 t174.5 122l36 -70q-53 -74 -167.5 -141t-247.5 -67q-135 0 -224.5 62t-131.5 163.5t-42 218.5q0 37 2 55q-133 8 -213.5 62.5t-80.5 154.5zM492 559q117 4 241.5 46t207.5 118t83 176q0 82 -41 125t-115 43q-104 0 -185 -79t-130 -196.5t-61 -232.5z" />
<glyph unicode="&#x4be;" horiz-adv-x="1472" d="M14 936q0 43 24.5 106.5t47.5 77.5l125 -24q-16 -20 -36.5 -71.5t-20.5 -78.5q0 -47 44 -77.5t134 -32.5q41 207 145.5 366.5t250.5 247.5t312 88q195 0 300.5 -131t105.5 -371q0 -84 -11.5 -164.5t-27.5 -126.5l-934 -2q-6 -68 -6 -139q0 -170 49 -290.5t135 -182 t197 -61.5q209 0 340 104l59 176h88l-47 -295q-39 -1 -125 -24q-82 -25 -163.5 -39.5t-196.5 -14.5q-154 0 -266.5 76t-171 214.5t-58.5 322.5q0 70 10 151q-135 2 -219 50.5t-84 144.5zM481 836h781q30 127 30 227q0 98 -32.5 185t-100 141.5t-166.5 54.5 q-123 0 -228.5 -69.5t-179 -206t-104.5 -332.5zM524 -436l13 121q12 -8 40.5 -13.5t61.5 -5.5q90 0 138 66.5t48 179.5q0 55 -16 108l39 5l43 -5q35 -59 35 -159q0 -162 -75 -245t-196 -83q-39 0 -76.5 9t-54.5 22z" />
<glyph unicode="&#x4bf;" horiz-adv-x="1259" d="M25 696q0 41 18 94.5t39 65.5l131 -31q-14 -14 -29.5 -58t-15.5 -73q0 -49 40 -81.5t122 -41.5q29 164 110.5 299.5t202.5 214t262 78.5q139 0 211 -68.5t74 -181.5q0 -145 -124 -244.5t-290 -149.5t-289 -52q-6 -88 15.5 -173t79 -141.5t153.5 -56.5q90 0 184.5 40 t174.5 122l36 -70q-39 -57 -121.5 -114.5t-185.5 -79.5q-35 -18 -54 -40t-19 -52q0 -18 16 -68q8 -23 15 -47.5t7 -48.5q0 -74 -74.5 -139.5t-162.5 -85.5l-45 53q49 16 91 56t42 87q0 31 -12 68q-14 35 -15 76q0 72 72 129q-184 10 -275.5 137t-91.5 305q0 37 2 55 q-133 8 -213.5 62.5t-80.5 154.5zM492 559q117 4 241.5 46t207.5 118t83 176q0 82 -41 125t-115 43q-104 0 -185 -79t-130 -196.5t-61 -232.5z" />
<glyph unicode="&#x4c0;" horiz-adv-x="694" d="M43 0l6 72l150 24l168 1323l-138 21l11 82h450l-8 -82l-154 -21l-166 -1323l158 -24l-6 -72h-471z" />
<glyph unicode="&#x4c1;" horiz-adv-x="2021" d="M-25 0l9 72l86 24q27 8 80 68.5t157 191.5q143 182 242.5 291t169.5 137l-406 633l-153 23l10 82h444l-8 -82l-164 -21l377 -624h162l80 624l-139 21l10 82h442l-8 -82l-152 -21l-77 -624h176l514 624l-158 21l10 82h443l-11 -82l-153 -23l-545 -631q60 -26 127.5 -127.5 t167.5 -281.5q76 -137 117 -201.5t71 -79.5l91 -24l-9 -72h-221q-35 0 -79 76t-122 237q-90 190 -152.5 291t-113.5 101h-166l-75 -609l153 -24l-4 -72h-463l8 72l150 24l78 606h-148q-51 0 -134 -98t-220 -291q-115 -162 -176.5 -237.5t-95.5 -75.5h-222zM815 1939 q0 45 8 68h139q21 0 21 -33q0 -18 -2 -39.5t-2 -44.5q0 -76 49 -113.5t158 -37.5q113 0 166 51t65 149q8 68 37 68h115q0 -20 -3 -33q-27 -160 -130 -238.5t-263 -78.5q-162 0 -260 70.5t-98 211.5z" />
<glyph unicode="&#x4c2;" horiz-adv-x="1835" d="M-39 14l55 154q8 -4 35 -31q10 -8 40 -34.5t40 -28.5q66 0 135.5 79.5t115.5 219t46 309.5t-45 254t-119 84q-57 0 -100 -27.5t-103 -91.5l-36 43q137 203 288 203q123 0 199 -118t76 -320q0 -29 -4 -78h256l59 506h160l-62 -506h250q33 141 101.5 259t164 187.5 t205.5 69.5q86 0 129 -37l-55 -152q-10 8 -56 50.5t-57 44.5q-68 0 -137 -80t-115.5 -219.5t-46.5 -309.5t44 -254t118 -84q57 0 103.5 28t103.5 91l35 -45q-49 -74 -122 -137t-167 -63q-123 0 -197.5 116.5t-74.5 321.5q0 74 8 129h-242l-65 -547h-160l67 547h-260 q-27 -152 -95 -282t-167.5 -207.5t-216.5 -77.5q-86 0 -131 34zM653 1620q0 41 9 72h137q22 0 22 -43q0 -20 -3 -39t-3 -35q0 -76 47 -114t152 -38q109 0 160 50.5t63 148.5q8 70 37 70h115q0 -20 -2 -33q-27 -160 -128.5 -239t-254.5 -79q-158 0 -254.5 71t-96.5 208z" />
<glyph unicode="&#x4c3;" horiz-adv-x="1363" d="M25 0l8 72l149 24l166 1323l-137 21l8 82h451l-8 -82l-152 -21l-78 -628q43 20 112.5 38.5t127.5 20.5l450 565l-164 25l11 82h444l-10 -82l-152 -23l-471 -571q213 -27 331 -195t118 -442q0 -174 -81 -314.5t-220.5 -219t-304.5 -78.5q-25 0 -58 4t-45 10l15 80 q33 -4 77 -4q123 0 228.5 61.5t169 176t63.5 268.5q0 279 -112.5 415.5t-313.5 136.5q-115 0 -227 -45l-78 -604l158 -24l-6 -72h-469z" />
<glyph unicode="&#x4c4;" horiz-adv-x="1185" d="M133 0l133 995l-98 47l14 74l215 43l45 -22l-73 -566q53 31 168 39q100 76 160.5 136.5t113.5 140.5q23 18 46.5 51t27.5 61v9q0 10 -2 23t-2 34q0 43 31.5 66.5t76.5 23.5q33 0 54.5 -18.5t21.5 -57.5q0 -74 -60.5 -154.5t-138.5 -147t-211 -169.5q135 -16 244 -94 t170 -197.5t61 -255.5q0 -127 -75.5 -233.5t-204.5 -168.5t-283 -62q-25 0 -56.5 4t-43.5 10l10 80q41 -4 82 -4q111 0 206 42t153.5 119.5t58.5 182.5q0 133 -59.5 246.5t-163 181t-228.5 67.5q-86 0 -168 -28l-65 -498h-160z" />
<glyph unicode="&#x4c5;" horiz-adv-x="1318" d="M-57 37l37 170q16 -18 54 -36.5t85 -18.5q86 0 166 152.5t139 408.5t90 557l16 143l-215 27l9 82h1089l-10 -82l-180 -21l-168 -1325l155 -22l-2 -9q-8 -86 -66.5 -183t-144.5 -174t-172 -103l-41 45q47 29 102.5 89t95.5 132t44 131h-301l6 72l164 24l168 1336h-432 l-21 -170q-33 -311 -101.5 -603t-170.5 -483.5t-229 -191.5q-53 0 -88 12t-78 41z" />
<glyph unicode="&#x4c6;" horiz-adv-x="1142" d="M-55 8l37 180q8 -6 55 -18t67 -12q43 0 97 82q92 115 181 349t134 439l-248 25l11 84h729l-119 -975q-2 -9 -2 -25q0 -47 24 -47q43 0 99 53l24 -47q-2 -88 -67.5 -197.5t-166 -199.5t-200.5 -125l-35 45q80 45 168 156.5t109 206.5q-8 -2 -25 -2q-51 0 -80.5 24.5 t-29.5 75.5l2 22l125 930h-230q-131 -641 -334 -889q-100 -160 -235 -159q-23 0 -54.5 9t-35.5 15z" />
<glyph unicode="&#x4c7;" horiz-adv-x="1533" d="M27 0l6 72l149 24l166 1323l-137 21l10 82h449l-8 -82l-150 -21l-76 -590h729q44 418 64 592l-168 19l10 82h494l-9 -82l-172 -19q-63 -596 -104 -939t-61 -406q-57 -188 -191.5 -289.5t-308.5 -130.5l-29 72q137 37 239.5 138t131.5 224q43 201 90 633h-729l-76 -627 l154 -24l-6 -72h-467z" />
<glyph unicode="&#x4c8;" horiz-adv-x="1347" d="M133 0l133 995l-98 47l14 74l215 43l45 -22l-65 -502h610l64 502h149l-127 -977q-37 -299 -148.5 -442.5t-314.5 -143.5q-35 0 -68.5 5t-45.5 13l14 97q41 -10 90 -11q104 0 167.5 50.5t101.5 164t63 318.5l43 326h-613l-71 -537h-158z" />
<glyph unicode="&#x4c9;" horiz-adv-x="1523" d="M25 0l8 72l149 24l166 1323l-137 21l10 82h451l-10 -82l-150 -21l-76 -590h715l74 590l-150 21l8 82h455l-10 -82l-144 -21l-163 -1323l155 -24l-10 -72q-41 -78 -120 -179.5t-142 -158.5l-84 41q43 51 101.5 143.5t82.5 153.5h-313l6 72l164 24l76 627h-715l-78 -627 l156 -24l-6 -72h-469z" />
<glyph unicode="&#x4ca;" horiz-adv-x="1302" d="M133 0l133 995l-98 47l14 74l215 43l45 -22l-65 -502h571l64 502h155l-118 -975l-2 -23q0 -23 7 -36t19 -13q43 0 98 53l27 -47q-4 -90 -70.5 -199.5t-166 -199.5t-195.5 -123l-37 45q80 45 170 157.5t113 205.5q-8 -2 -25 -2q-51 0 -82 23.5t-31 72.5q0 16 3 24l59 437 h-574l-71 -537h-158z" />
<glyph unicode="&#x4cb;" horiz-adv-x="1275" d="M82 1438l8 84h449l-9 -82l-149 -23l-35 -264q-16 -131 -16 -205q0 -131 54 -183t196 -52q80 0 171 20.5t144 54.5l80 631l-152 21l8 82h455l-12 -82l-137 -21l-166 -1323l159 -24l-6 -72h-374q-19 -49 -47.5 -166t-40.5 -176h-105q23 186 33 264l20 174h199l74 596 q-78 -47 -179.5 -70.5t-193.5 -23.5q-174 0 -262 67.5t-88 252.5q0 61 8 118l49 383z" />
<glyph unicode="&#x4cc;" d="M84 1044l14 72l217 43l43 -22l-34 -277q-15 -133 -15 -182q0 -76 20.5 -114t67.5 -52t138 -14q150 0 256 51l73 588h148l-111 -975l-2 -21q0 -25 8 -38t21 -13q45 0 98 53l27 -47q-20 -33 -82 -74.5t-129 -41.5q-51 0 -81 24.5t-30 75.5l2 22l45 351q-150 -72 -336 -72 q-152 0 -219 55.5t-67 204.5q0 49 10 135l27 217zM268 -434q51 16 94.5 53t43.5 80q0 25 -13 65q-16 41 -16 82q0 55 43 102.5t99 77t85 33.5l31 -41q-14 -8 -48 -24.5t-54.5 -38t-20.5 -51.5q0 -25 18 -72q23 -68 23 -104q0 -72 -75 -133.5t-167 -81.5z" />
<glyph unicode="&#x4cd;" horiz-adv-x="1882" d="M-51 0l8 72l172 24l332 1323l-189 21l11 82h413l174 -1047l29 -219l100 215l478 1051h389l-11 -82l-180 -21l-39 -1323l170 -24l-12 -72q-45 -82 -123 -182.5t-139 -155.5l-82 41q43 51 100.5 143.5t83.5 153.5h-354l8 72l187 22l41 922l28 420l-155 -371l-490 -1069 l-90 -14l-178 1058l-68 396l-84 -404l-219 -936l199 -24l-6 -72h-504z" />
<glyph unicode="&#x4ce;" horiz-adv-x="1624" d="M-72 10l41 180q14 -8 70.5 -21t77.5 -11q70 160 122 361.5t101 434.5l16 74l-180 25l8 84h400l161 -744l29 -182l68 182l352 744h197l-11 -932q0 -47 14.5 -82t37.5 -35q51 0 118 64l29 -48q-20 -90 -94 -200.5t-174.5 -200.5t-190.5 -127l-33 43q74 43 165 155.5 t128 207.5q-12 -2 -37 -2q-61 0 -91.5 30.5t-32.5 100.5l16 634l14 297l-129 -294l-368 -762h-74l-176 768l-56 270l-71 -334q-80 -381 -174 -590q-27 -61 -67 -88.5t-120 -27.5q-16 0 -50 9t-36 17z" />
<glyph unicode="&#x4cf;" horiz-adv-x="694" d="M43 0l6 72l150 24l168 1323l-138 21l11 82h450l-8 -82l-154 -21l-166 -1323l158 -24l-6 -72h-471z" />
<glyph unicode="&#x4d0;" horiz-adv-x="1341" d="M-123 0l8 72l140 22l704 1428h166l260 -1424l168 -26l-4 -72h-514l4 72l182 22l-59 365h-586l-172 -363l184 -24l-6 -72h-475zM393 557h520l-114 707l-15 122zM479 1939q0 45 8 68h139q21 0 21 -33q0 -18 -2 -39.5t-2 -44.5q0 -76 49 -113.5t158 -37.5q113 0 166 51 t65 149q8 68 37 68h115q0 -20 -3 -33q-27 -160 -130 -238.5t-263 -78.5q-162 0 -260 70.5t-98 211.5z" />
<glyph unicode="&#x4d1;" horiz-adv-x="1175" d="M86 412q0 166 78 341t224.5 292.5t340.5 117.5q43 0 100.5 -10t102.5 -25l112 33l-133 -985q-2 -10 -2 -24q0 -33 13.5 -47.5t27.5 -14.5q20 0 40 13.5t50 43.5l29 -45q-8 -16 -38 -45.5t-73 -53t-90 -23.5q-127 0 -118 135l12 84q-70 -90 -163 -154.5t-193 -64.5 q-162 0 -241 116.5t-79 315.5zM254 430q0 -158 46 -245t140 -87q92 0 183.5 73t152.5 161l90 686q-65 45 -159 45q-141 0 -244 -97.5t-156 -245t-53 -290.5zM399 1618q0 41 9 72h137q22 0 22 -43q0 -20 -3 -39t-3 -35q0 -76 47 -114t152 -38q109 0 160 50.5t63 148.5 q8 70 37 70h115q0 -20 -2 -33q-27 -160 -128.5 -239t-254.5 -79q-158 0 -254.5 71t-96.5 208z" />
<glyph unicode="&#x4d2;" horiz-adv-x="1341" d="M-123 0l8 72l140 22l704 1428h166l260 -1424l168 -26l-4 -72h-514l4 72l182 22l-59 365h-586l-172 -363l184 -24l-6 -72h-475zM393 557h520l-114 707l-15 122zM541 1821q0 53 36.5 92t79.5 39t69 -28t24 -69q0 -55 -35 -92t-84 -37q-37 0 -63.5 28t-26.5 67zM967 1827 q0 53 36.5 89t79.5 36q41 0 67 -25.5t26 -66.5q0 -57 -34 -95.5t-85 -38.5q-39 0 -64.5 29t-25.5 72z" />
<glyph unicode="&#x4d3;" horiz-adv-x="1175" d="M86 412q0 166 78 341t224.5 292.5t340.5 117.5q43 0 100.5 -10t102.5 -25l112 33l-133 -985q-2 -10 -2 -24q0 -33 13.5 -47.5t27.5 -14.5q20 0 40 13.5t50 43.5l29 -45q-8 -16 -38 -45.5t-73 -53t-90 -23.5q-127 0 -118 135l12 84q-70 -90 -163 -154.5t-193 -64.5 q-162 0 -241 116.5t-79 315.5zM254 430q0 -158 46 -245t140 -87q92 0 183.5 73t152.5 161l90 686q-65 45 -159 45q-141 0 -244 -97.5t-156 -245t-53 -290.5zM455 1454q0 55 34.5 93t81.5 38q43 0 69 -25.5t26 -66.5q0 -57 -35 -96t-86 -39q-37 0 -63.5 27.5t-26.5 68.5z M876 1454q0 55 34 93t83 38q43 0 68.5 -25.5t25.5 -66.5q0 -57 -34.5 -96t-85.5 -39q-37 0 -64 27.5t-27 68.5z" />
<glyph unicode="&#x4d4;" horiz-adv-x="1830" d="M-164 0l12 72l164 22l715 1327l-311 19l10 82h1343l-10 -297h-90l-33 196l-473 11l-76 -596l447 22l-12 -139l-445 12l-78 -635l586 21l96 215l88 -23l-71 -309h-1004l8 72l134 22l47 402h-504l-203 -400l225 -24l-6 -72h-559zM430 596h465l98 819l-141 4z" />
<glyph unicode="&#x4d5;" horiz-adv-x="1736" d="M86 408q0 166 79 342t226.5 293.5t341.5 117.5q94 0 203 -35l115 35l-29 -157q78 75 168 116t188 41q131 0 200 -71.5t69 -180.5q0 -143 -122 -242.5t-286 -148.5t-285 -51l-2 -53q0 -317 232 -318q92 0 189 41t179 121l39 -70q-33 -45 -96 -93t-151.5 -81.5 t-184.5 -33.5q-166 0 -256 89t-110 244q-63 -133 -172 -233t-232 -100q-154 0 -228.5 112.5t-74.5 315.5zM254 428q0 -330 166 -330q109 0 208 103.5t154 216.5l99 592q-61 53 -170 53q-141 0 -246 -99.5t-158 -247t-53 -288.5zM958 559q115 4 237 46t204 118t82 176 q0 82 -39 125t-115 43q-100 0 -180 -79t-128 -197.5t-61 -231.5z" />
<glyph unicode="&#x4d6;" horiz-adv-x="1226" d="M23 0l6 72l153 22l166 1325l-139 21l10 82h930l-8 -314h-90l-35 213l-502 13l-76 -592l480 8l-11 -131l-479 14l-84 -635l610 19l113 233l88 -26l-88 -324h-1044zM391 1939q0 45 8 68h139q21 0 21 -33q0 -18 -2 -39.5t-2 -44.5q0 -76 49 -113.5t158 -37.5q113 0 166 51 t65 149q8 68 37 68h115q0 -20 -3 -33q-27 -160 -130 -238.5t-263 -78.5q-162 0 -260 70.5t-98 211.5z" />
<glyph unicode="&#x4d7;" horiz-adv-x="1052" d="M90 418q0 193 78 364.5t212 276t298 104.5q139 0 211 -69.5t72 -180.5q0 -145 -123 -244.5t-289 -149.5t-287 -52q-2 -14 -2 -47q0 -131 61.5 -227.5t188.5 -96.5q88 0 182 41t174 121l39 -70q-53 -73 -168.5 -140.5t-251.5 -67.5q-135 0 -223 61t-130 160.5t-42 216.5z M266 559q117 4 241 46t208 118t84 176q-2 82 -43 125t-115 43q-104 0 -186 -80t-130.5 -197.5t-58.5 -230.5zM346 1620q0 41 9 72h137q22 0 22 -43q0 -20 -3 -39t-3 -35q0 -76 47 -114t152 -38q109 0 160 50.5t63 148.5q8 70 37 70h115q0 -20 -2 -33q-27 -160 -128.5 -239 t-254.5 -79q-158 0 -254.5 71t-96.5 208z" />
<glyph unicode="&#x4d8;" horiz-adv-x="1302" d="M74 479q0 86 11 166t28 123l946 2q4 94 4 148q0 168 -47 286.5t-131 180t-193 61.5q-123 0 -217 -32t-143 -73l-62 -176h-88l47 293q47 2 131 27q100 27 180.5 40t196.5 13q154 0 265.5 -76t170 -214t58.5 -322q0 -268 -99.5 -485.5t-268.5 -340.5t-365 -123 q-201 0 -312.5 131.5t-111.5 370.5zM233 453q0 -160 82 -270.5t232 -110.5q186 0 322.5 156.5t177.5 451.5h-783q-31 -131 -31 -227z" />
<glyph unicode="&#x4d9;" horiz-adv-x="1052" d="M92 229q0 145 123 244.5t289 150t289 52.5q2 14 2 47q0 129 -61.5 226.5t-188.5 97.5q-90 0 -183.5 -40t-173.5 -122l-38 69q53 74 168.5 141.5t248.5 67.5q135 0 224.5 -62.5t131.5 -163.5t42 -218q0 -190 -78 -361.5t-213 -274.5t-297 -103q-139 0 -211 68.5t-74 180.5 zM258 244q0 -82 41 -125t115 -43q104 0 185 78.5t130 196.5t62 233q-117 -4 -242 -46t-208 -118t-83 -176z" />
<glyph unicode="&#x4da;" horiz-adv-x="1302" d="M74 479q0 86 11 166t28 123l946 2q4 94 4 148q0 168 -47 286.5t-131 180t-193 61.5q-123 0 -217 -32t-143 -73l-62 -176h-88l47 293q47 2 131 27q100 27 180.5 40t196.5 13q154 0 265.5 -76t170 -214t58.5 -322q0 -268 -99.5 -485.5t-268.5 -340.5t-365 -123 q-201 0 -312.5 131.5t-111.5 370.5zM233 453q0 -160 82 -270.5t232 -110.5q186 0 322.5 156.5t177.5 451.5h-783q-31 -131 -31 -227zM488 1821q0 53 36.5 92t79.5 39t69 -28t24 -69q0 -55 -35 -92t-84 -37q-37 0 -63.5 28t-26.5 67zM914 1827q0 53 36.5 89t79.5 36 q41 0 67 -25.5t26 -66.5q0 -57 -34 -95.5t-85 -38.5q-39 0 -64.5 29t-25.5 72z" />
<glyph unicode="&#x4db;" horiz-adv-x="1052" d="M92 229q0 145 123 244.5t289 150t289 52.5q2 14 2 47q0 129 -61.5 226.5t-188.5 97.5q-90 0 -183.5 -40t-173.5 -122l-38 69q53 74 168.5 141.5t248.5 67.5q135 0 224.5 -62.5t131.5 -163.5t42 -218q0 -190 -78 -361.5t-213 -274.5t-297 -103q-139 0 -211 68.5t-74 180.5 zM258 244q0 -82 41 -125t115 -43q104 0 185 78.5t130 196.5t62 233q-117 -4 -242 -46t-208 -118t-83 -176zM291 1456q0 55 34.5 93t81.5 38q43 0 69 -25.5t26 -66.5q0 -57 -35 -96t-86 -39q-37 0 -63.5 27.5t-26.5 68.5zM712 1456q0 55 34 93t83 38q43 0 68.5 -25.5 t25.5 -66.5q0 -57 -34.5 -96t-85.5 -39q-37 0 -64 27.5t-27 68.5z" />
<glyph unicode="&#x4dc;" horiz-adv-x="2021" d="M-25 0l9 72l86 24q27 8 80 68.5t157 191.5q143 182 242.5 291t169.5 137l-406 633l-153 23l10 82h444l-8 -82l-164 -21l377 -624h162l80 624l-139 21l10 82h442l-8 -82l-152 -21l-77 -624h176l514 624l-158 21l10 82h443l-11 -82l-153 -23l-545 -631q60 -26 127.5 -127.5 t167.5 -281.5q76 -137 117 -201.5t71 -79.5l91 -24l-9 -72h-221q-35 0 -79 76t-122 237q-90 190 -152.5 291t-113.5 101h-166l-75 -609l153 -24l-4 -72h-463l8 72l150 24l78 606h-148q-51 0 -134 -98t-220 -291q-115 -162 -176.5 -237.5t-95.5 -75.5h-222zM877 1821 q0 53 36.5 92t79.5 39t69 -28t24 -69q0 -55 -35 -92t-84 -37q-37 0 -63.5 28t-26.5 67zM1303 1827q0 53 36.5 89t79.5 36q41 0 67 -25.5t26 -66.5q0 -57 -34 -95.5t-85 -38.5q-39 0 -64.5 29t-25.5 72z" />
<glyph unicode="&#x4dd;" horiz-adv-x="1835" d="M-39 14l55 154q8 -4 35 -31q10 -8 40 -34.5t40 -28.5q66 0 135.5 79.5t115.5 219t46 309.5t-45 254t-119 84q-57 0 -100 -27.5t-103 -91.5l-36 43q137 203 288 203q123 0 199 -118t76 -320q0 -29 -4 -78h256l59 506h160l-62 -506h250q33 141 101.5 259t164 187.5 t205.5 69.5q86 0 129 -37l-55 -152q-10 8 -56 50.5t-57 44.5q-68 0 -137 -80t-115.5 -219.5t-46.5 -309.5t44 -254t118 -84q57 0 103.5 28t103.5 91l35 -45q-49 -74 -122 -137t-167 -63q-123 0 -197.5 116.5t-74.5 321.5q0 74 8 129h-242l-65 -547h-160l67 547h-260 q-27 -152 -95 -282t-167.5 -207.5t-216.5 -77.5q-86 0 -131 34zM709 1499q2 53 36 90t81 37q43 0 68.5 -26.5t25.5 -69.5q-2 -55 -37 -93t-84 -38q-37 0 -63.5 28.5t-26.5 71.5zM1133 1499q2 53 36 90t81 37q43 0 68.5 -26.5t25.5 -69.5q-2 -55 -37 -93t-86 -38 q-37 0 -62.5 28.5t-25.5 71.5z" />
<glyph unicode="&#x4de;" d="M8 68l86 331h86l-16 -254q45 -25 123 -41t180 -16q121 0 217 48t151.5 140.5t55.5 219.5q0 117 -77 183t-245 66l-176 -8l10 105h150q82 0 162 43t133 129t53 209q0 109 -66.5 165t-193.5 56q-94 0 -170 -24.5t-106 -61.5l-41 -189h-97l23 301q35 2 125 25q160 43 258 43 q211 0 323.5 -78t112.5 -213q0 -184 -106.5 -293.5t-243.5 -140.5q172 -2 261 -88t89 -219q0 -158 -87 -275.5t-235.5 -180t-328.5 -62.5q-221 0 -410 80zM404 1821q0 53 36.5 92t79.5 39t69 -28t24 -69q0 -55 -35 -92t-84 -37q-37 0 -63.5 28t-26.5 67zM830 1827 q0 53 36.5 89t79.5 36q41 0 67 -25.5t26 -66.5q0 -57 -34 -95.5t-85 -38.5q-39 0 -64.5 29t-25.5 72z" />
<glyph unicode="&#x4df;" horiz-adv-x="1005" d="M25 72l59 157l88 -96q43 -31 96.5 -43t124.5 -12q174 0 266.5 75.5t92.5 204.5q0 92 -72 143.5t-215 49.5l-111 -23l21 111l63 6q307 35 307 264q0 76 -53 117t-166 41q-92 0 -142 -16.5t-105 -42.5l-56 -199h-92l37 297q61 -1 147 22q57 16 111.5 24.5t134.5 8.5 q166 0 259 -63.5t93 -175.5q0 -119 -80.5 -201t-218.5 -107q141 -2 221 -66.5t80 -170.5q0 -117 -68.5 -207t-186 -138t-261.5 -48q-213 0 -374 88zM291 1456q0 55 34.5 93t81.5 38q43 0 69 -25.5t26 -66.5q0 -57 -35 -96t-86 -39q-37 0 -63.5 27.5t-26.5 68.5zM712 1456 q0 55 34 93t83 38q43 0 68.5 -25.5t25.5 -66.5q0 -57 -34.5 -96t-85.5 -39q-37 0 -64 27.5t-27 68.5z" />
<glyph unicode="&#x4e0;" horiz-adv-x="1189" d="M49 66l82 333h86l2 -252q2 -2 28.5 -16t90 -27.5t143.5 -13.5q145 0 245.5 58.5t151 151.5t50.5 200q0 127 -83 199.5t-233 74.5q-57 0 -103 -7t-58 -9l-27 33l524 602h-551l-57 -226h-96l28 355h879l-10 -84l-559 -611q81 17 153 17q162 0 266.5 -76t104.5 -248 q0 -152 -81 -272.5t-230.5 -190t-343.5 -69.5q-96 0 -182.5 18.5t-174.5 44.5q-23 10 -45 15z" />
<glyph unicode="&#x4e1;" horiz-adv-x="1028" d="M47 -262l12 98q115 -45 211 -45q135 0 238.5 55.5t161 151.5t57.5 213q0 102 -57.5 164.5t-175.5 62.5q-57 0 -119 -12l-19 55l432 525h-507l-64 -191h-92l43 320h778l21 -82l-473 -561q41 10 104 10q145 0 223 -87t78 -214q0 -137 -82 -255t-220 -186.5t-296 -68.5 q-70 0 -119 10t-85 21.5t-50 15.5z" />
<glyph unicode="&#x4e2;" horiz-adv-x="1568" d="M25 0l8 72l149 24l166 1323l-137 21l10 82h451l-10 -82l-150 -21l-135 -1052l80 94l790 848l15 110l-148 21l8 82h455l-10 -82l-144 -21l-166 -1323l156 -24l-6 -72h-473l4 72l160 24l131 1061l-156 -174l-713 -764l-16 -123l156 -24l-6 -72h-469zM674 1743l16 125h512 l-16 -125h-512z" />
<glyph unicode="&#x4e3;" horiz-adv-x="1206" d="M154 1044l12 72l219 43l39 -20l-70 -541l-12 -92q-8 -59 -14 -118.5t-6 -108.5q0 -106 38.5 -145.5t114.5 -39.5q82 0 175 64.5t153 150.5l110 842h158l-131 -987q-2 -8 -2 -25q0 -49 27 -49q43 0 112 70l25 -47q-12 -18 -45 -50t-81 -56.5t-97 -24.5q-47 0 -74 28.5 t-27 75.5q0 20 2 31q6 25 11 76l-3 2q-72 -92 -169 -153.5t-209 -61.5q-119 0 -182.5 61t-63.5 211q0 102 35 354l55 389zM463 1382l16 125h516l-16 -125h-516z" />
<glyph unicode="&#x4e4;" horiz-adv-x="1568" d="M25 0l8 72l149 24l166 1323l-137 21l10 82h451l-10 -82l-150 -21l-135 -1052l80 94l790 848l15 110l-148 21l8 82h455l-10 -82l-144 -21l-166 -1323l156 -24l-6 -72h-473l4 72l160 24l131 1061l-156 -174l-713 -764l-16 -123l156 -24l-6 -72h-469zM627 1821q0 53 36.5 92 t79.5 39t69 -28t24 -69q0 -55 -35 -92t-84 -37q-37 0 -63.5 28t-26.5 67zM1053 1827q0 53 36.5 89t79.5 36q41 0 67 -25.5t26 -66.5q0 -57 -34 -95.5t-85 -38.5q-39 0 -64.5 29t-25.5 72z" />
<glyph unicode="&#x4e5;" horiz-adv-x="1206" d="M154 1044l12 72l219 43l39 -20l-70 -541l-12 -92q-8 -59 -14 -118.5t-6 -108.5q0 -106 38.5 -145.5t114.5 -39.5q82 0 175 64.5t153 150.5l110 842h158l-131 -987q-2 -8 -2 -25q0 -49 27 -49q43 0 112 70l25 -47q-12 -18 -45 -50t-81 -56.5t-97 -24.5q-47 0 -74 28.5 t-27 75.5q0 20 2 31q6 25 11 76l-3 2q-72 -92 -169 -153.5t-209 -61.5q-119 0 -182.5 61t-63.5 211q0 102 35 354l55 389zM385 1456q0 55 34.5 93t81.5 38q43 0 69 -25.5t26 -66.5q0 -57 -35 -96t-86 -39q-37 0 -63.5 27.5t-26.5 68.5zM806 1456q0 55 34 93t83 38 q43 0 68.5 -25.5t25.5 -66.5q0 -57 -34.5 -96t-85.5 -39q-37 0 -64 27.5t-27 68.5z" />
<glyph unicode="&#x4e6;" horiz-adv-x="1386" d="M113 637q0 256 91 463t250.5 324.5t356.5 117.5q166 0 279.5 -87t169 -234.5t55.5 -329.5q0 -256 -89 -464t-248 -327.5t-357 -119.5q-164 0 -278 86t-172 234.5t-58 336.5zM279 659q0 -264 96 -422.5t268 -158.5q141 0 255 100.5t179.5 278.5t65.5 401q0 266 -91 424 t-266 158q-143 0 -258.5 -100.5t-182 -278.5t-66.5 -402zM549 1821q0 53 36.5 92t79.5 39t69 -28t24 -69q0 -55 -35 -92t-84 -37q-37 0 -63.5 28t-26.5 67zM975 1827q0 53 36.5 89t79.5 36q41 0 67 -25.5t26 -66.5q0 -57 -34 -95.5t-85 -38.5q-39 0 -64.5 29t-25.5 72z" />
<glyph unicode="&#x4e7;" horiz-adv-x="1146" d="M88 438q-2 184 71.5 351t205 270.5t297.5 103.5q192 0 294.5 -125t102.5 -350q0 -180 -73 -343t-203 -264t-294 -101q-188 0 -292.5 119.5t-108.5 338.5zM258 453q0 -180 67.5 -276.5t194.5 -96.5q115 0 199 91t127 230.5t43 280.5q0 184 -63.5 282.5t-192.5 98.5 q-119 0 -204 -92t-128 -233.5t-43 -284.5zM387 1458q0 55 34.5 93t81.5 38q43 0 69 -25.5t26 -66.5q0 -57 -35 -96t-86 -39q-37 0 -63.5 27.5t-26.5 68.5zM808 1458q0 55 34 93t83 38q43 0 68.5 -25.5t25.5 -66.5q0 -57 -34.5 -96t-85.5 -39q-37 0 -64 27.5t-27 68.5z" />
<glyph unicode="&#x4e8;" horiz-adv-x="1386" d="M115 641q0 256 91 462t249.5 322.5t355.5 116.5q166 0 279.5 -88t169 -236.5t55.5 -330.5q0 -254 -89 -462t-248 -326.5t-357 -118.5q-164 0 -278 87t-171 236.5t-57 337.5zM279 641q4 -256 100 -409.5t264 -153.5q127 0 232.5 82t174 228.5t87.5 334.5h-856 q-2 -27 -2 -82zM287 811h856v72q-4 256 -95.5 406.5t-261.5 150.5q-125 0 -231 -79t-177 -222.5t-91 -327.5z" />
<glyph unicode="&#x4e9;" horiz-adv-x="1146" d="M84 442q0 184 72.5 350t204 268.5t294.5 102.5q193 0 296.5 -124t103.5 -347q0 -180 -73 -344t-203 -266t-294 -102q-193 0 -297 120.5t-104 341.5zM254 440q2 -174 68.5 -267t191.5 -93q143 0 237.5 138t120.5 333h-612q-6 -58 -6 -111zM272 639h611l2 61 q-2 174 -66.5 268.5t-189.5 94.5q-137 0 -229.5 -122t-127.5 -302z" />
<glyph unicode="&#x4ea;" horiz-adv-x="1386" d="M115 641q0 256 91 462t249.5 322.5t355.5 116.5q166 0 279.5 -88t169 -236.5t55.5 -330.5q0 -254 -89 -462t-248 -326.5t-357 -118.5q-164 0 -278 87t-171 236.5t-57 337.5zM279 641q4 -256 100 -409.5t264 -153.5q127 0 232.5 82t174 228.5t87.5 334.5h-856 q-2 -27 -2 -82zM287 811h856v72q-4 256 -95.5 406.5t-261.5 150.5q-125 0 -231 -79t-177 -222.5t-91 -327.5zM537 1821q0 53 36.5 92t79.5 39t69 -28t24 -69q0 -55 -35 -92t-84 -37q-37 0 -63.5 28t-26.5 67zM963 1827q0 53 36.5 89t79.5 36q41 0 67 -25.5t26 -66.5 q0 -57 -34 -95.5t-85 -38.5q-39 0 -64.5 29t-25.5 72z" />
<glyph unicode="&#x4eb;" horiz-adv-x="1146" d="M84 442q0 184 72.5 350t204 268.5t294.5 102.5q193 0 296.5 -124t103.5 -347q0 -180 -73 -344t-203 -266t-294 -102q-193 0 -297 120.5t-104 341.5zM254 440q2 -174 68.5 -267t191.5 -93q143 0 237.5 138t120.5 333h-612q-6 -58 -6 -111zM272 639h611l2 61 q-2 174 -66.5 268.5t-189.5 94.5q-137 0 -229.5 -122t-127.5 -302zM387 1456q0 55 34.5 93t81.5 38q43 0 69 -25.5t26 -66.5q0 -57 -35 -96t-86 -39q-37 0 -63.5 27.5t-26.5 68.5zM808 1456q0 55 34 93t83 38q43 0 68.5 -25.5t25.5 -66.5q0 -57 -34.5 -96t-85.5 -39 q-37 0 -64 27.5t-27 68.5z" />
<glyph unicode="&#x4ec;" horiz-adv-x="1224" d="M59 346l101 10l35 -190q41 -31 69.5 -47.5t85 -31.5t137.5 -15q139 0 261 83t203 237.5t102 359.5q-143 -16 -523 -33q-66 0 -122 -4l-27 141l678 -16v45q0 246 -104.5 403.5t-311.5 157.5q-111 0 -175.5 -27.5t-131.5 -77.5l-60 -192h-104l49 309q33 2 71 13.5t44 13.5 q84 25 153.5 39t174.5 14q180 0 309 -81t197.5 -227.5t68.5 -340.5q0 -258 -107.5 -467t-290 -327t-397.5 -118q-82 0 -139 13.5t-121 36.5q-76 29 -123 28zM461 1821q0 53 36.5 92t79.5 39t69 -28t24 -69q0 -55 -35 -92t-84 -37q-37 0 -63.5 28t-26.5 67zM887 1827 q0 53 36.5 89t79.5 36q41 0 67 -25.5t26 -66.5q0 -57 -34 -95.5t-85 -38.5q-39 0 -64.5 29t-25.5 72z" />
<glyph unicode="&#x4ed;" horiz-adv-x="1011" d="M23 90l26 205h90l6 -170q96 -51 236 -51q172 0 277.5 137t136.5 340q-190 -16 -424 -21q-70 -4 -88 -4l-25 123h547v35q0 197 -86 296t-225 99q-70 0 -129.5 -13t-94.5 -38l-57 -166h-84l33 260q43 21 148.5 35t201.5 14q213 0 336 -123.5t123 -361.5q0 -211 -83 -371.5 t-219.5 -249t-291.5 -88.5q-121 0 -210 31t-144 82zM304 1454q0 55 34.5 93t81.5 38q43 0 69 -25.5t26 -66.5q0 -57 -35 -96t-86 -39q-37 0 -63.5 27.5t-26.5 68.5zM725 1454q0 55 34 93t83 38q43 0 68.5 -25.5t25.5 -66.5q0 -57 -34.5 -96t-85.5 -39q-37 0 -64 27.5 t-27 68.5z" />
<glyph unicode="&#x4ee;" horiz-adv-x="1204" d="M98 1440l11 82h448l-6 -82l-164 -21l221 -755l58 -218l88 220l342 753l-148 21l10 82h375l-8 -82l-111 -21l-522 -1083l-18 -39q-43 -94 -81 -158.5t-101.5 -113t-149.5 -48.5q-88 0 -154 31l13 129h141q92 0 144.5 39t84.5 127l-352 1114zM481 1743l16 125h512l-16 -125 h-512z" />
<glyph unicode="&#x4ef;" horiz-adv-x="1073" d="M-119 -475l39 131q78 -39 170 -39q86 0 185.5 73.5t177.5 229.5h-78l-185 1053q-8 39 -19 53t-30 14q-18 0 -37.5 -12t-50.5 -43l-24 53q18 33 76.5 77t119.5 44q63 0 90 -33.5t35 -103.5l107 -766l28 -279l166 318q33 70 51 102q88 176 130 294t42 245q0 27 -8 49.5 t-10 26.5q-16 41 -16 61q0 43 21.5 63.5t56.5 20.5q53 0 82.5 -47t29.5 -133q0 -131 -58.5 -274.5t-160.5 -335.5l-37 -70q-111 -223 -204 -381t-160 -240q-127 -182 -340 -182q-43 0 -100.5 9.5t-88.5 21.5zM375 1382l16 125h516l-16 -125h-516z" />
<glyph unicode="&#x4f0;" horiz-adv-x="1204" d="M98 1440l11 82h448l-6 -82l-164 -21l221 -755l58 -218l88 220l342 753l-148 21l10 82h375l-8 -82l-111 -21l-522 -1083l-18 -39q-43 -94 -81 -158.5t-101.5 -113t-149.5 -48.5q-88 0 -154 31l13 129h141q92 0 144.5 39t84.5 127l-352 1114zM434 1821q0 53 36.5 92 t79.5 39t69 -28t24 -69q0 -55 -35 -92t-84 -37q-37 0 -63.5 28t-26.5 67zM860 1827q0 53 36.5 89t79.5 36q41 0 67 -25.5t26 -66.5q0 -57 -34 -95.5t-85 -38.5q-39 0 -64.5 29t-25.5 72z" />
<glyph unicode="&#x4f1;" horiz-adv-x="1073" d="M-119 -475l39 131q78 -39 170 -39q86 0 185.5 73.5t177.5 229.5h-78l-185 1053q-8 39 -19 53t-30 14q-18 0 -37.5 -12t-50.5 -43l-24 53q18 33 76.5 77t119.5 44q63 0 90 -33.5t35 -103.5l107 -766l28 -279l166 318q33 70 51 102q88 176 130 294t42 245q0 27 -8 49.5 t-10 26.5q-16 41 -16 61q0 43 21.5 63.5t56.5 20.5q53 0 82.5 -47t29.5 -133q0 -131 -58.5 -274.5t-160.5 -335.5l-37 -70q-111 -223 -204 -381t-160 -240q-127 -182 -340 -182q-43 0 -100.5 9.5t-88.5 21.5zM330 1456q0 55 34.5 93t81.5 38q43 0 69 -25.5t26 -66.5 q0 -57 -35 -96t-86 -39q-37 0 -63.5 27.5t-26.5 68.5zM751 1456q0 55 34 93t83 38q43 0 68.5 -25.5t25.5 -66.5q0 -57 -34.5 -96t-85.5 -39q-37 0 -64 27.5t-27 68.5z" />
<glyph unicode="&#x4f2;" horiz-adv-x="1204" d="M98 1440l11 82h448l-6 -82l-164 -21l221 -755l58 -218l88 220l342 753l-148 21l10 82h375l-8 -82l-111 -21l-522 -1083l-18 -39q-43 -94 -81 -158.5t-101.5 -113t-149.5 -48.5q-88 0 -154 31l13 129h141q92 0 144.5 39t84.5 127l-352 1114zM417 1661l283 334l107 -94 q-61 -123 -324 -293zM852 1663l282 332l109 -92q-51 -82 -140.5 -161t-179.5 -132z" />
<glyph unicode="&#x4f3;" horiz-adv-x="1073" d="M-119 -475l39 131q78 -39 170 -39q86 0 185.5 73.5t177.5 229.5h-78l-185 1053q-8 39 -19 53t-30 14q-18 0 -37.5 -12t-50.5 -43l-24 53q18 33 76.5 77t119.5 44q63 0 90 -33.5t35 -103.5l107 -766l28 -279l166 318q33 70 51 102q88 176 130 294t42 245q0 27 -8 49.5 t-10 26.5q-16 41 -16 61q0 43 21.5 63.5t56.5 20.5q53 0 82.5 -47t29.5 -133q0 -131 -58.5 -274.5t-160.5 -335.5l-37 -70q-111 -223 -204 -381t-160 -240q-127 -182 -340 -182q-43 0 -100.5 9.5t-88.5 21.5zM344 1366l278 418l123 -88q-31 -74 -144.5 -202t-189.5 -181z M764 1366l297 418l118 -86q-35 -78 -153.5 -209t-192.5 -176z" />
<glyph unicode="&#x4f4;" horiz-adv-x="1280" d="M82 1438l8 84h449l-9 -82l-149 -23l-35 -264q-16 -131 -16 -205q0 -131 54 -183t196 -52q80 0 171 20.5t144 54.5l80 631l-152 21l8 82h455l-12 -82l-137 -21l-166 -1323l159 -24l-6 -72h-506l7 72l184 24l74 596q-78 -47 -179.5 -70.5t-193.5 -23.5q-174 0 -262 67.5 t-88 252.5q0 61 8 118l49 383zM430 1821q0 53 36.5 92t79.5 39t69 -28t24 -69q0 -55 -35 -92t-84 -37q-37 0 -63.5 28t-26.5 67zM856 1827q0 53 36.5 89t79.5 36q41 0 67 -25.5t26 -66.5q0 -57 -34 -95.5t-85 -38.5q-39 0 -64.5 29t-25.5 72z" />
<glyph unicode="&#x4f5;" d="M84 1044l14 72l217 43l43 -22l-34 -277q-15 -133 -15 -182q0 -76 20.5 -114t67.5 -52t138 -14q150 0 256 51l73 588h148l-111 -975l-2 -21q0 -25 8 -38t21 -13q45 0 98 53l27 -47q-20 -33 -82 -74.5t-129 -41.5q-51 0 -81 24.5t-30 75.5l2 22l45 351q-150 -72 -336 -72 q-152 0 -219 55.5t-67 204.5q0 49 10 135l27 217zM332 1454q0 55 34.5 93t81.5 38q43 0 69 -25.5t26 -66.5q0 -57 -35 -96t-86 -39q-37 0 -63.5 27.5t-26.5 68.5zM753 1454q0 55 34 93t83 38q43 0 68.5 -25.5t25.5 -66.5q0 -57 -34.5 -96t-85.5 -39q-37 0 -64 27.5t-27 68.5 z" />
<glyph unicode="&#x4f6;" horiz-adv-x="1120" d="M-25 0l11 72l196 24l164 1321l-190 25l12 80h983l-41 -471h-109l-6 372l-487 9l-166 -1336h285l-80 -334l-27 -114h-100l31 352h-476z" />
<glyph unicode="&#x4f7;" horiz-adv-x="841" d="M47 244q0 88 39 152.5t97.5 108.5t156.5 105q12 10 41 27q121 78 178 140.5t57 144.5q0 55 -42 94t-107 39q-86 0 -165 -30t-101 -54l-19 84q47 39 129 72.5t187 33.5q129 0 209.5 -60.5t80.5 -162.5q0 -84 -39.5 -149.5t-96 -109.5t-144.5 -99l-66 -43 q-12 -8 -87.5 -59.5t-109.5 -102.5t-34 -109q0 -76 48 -125t142 -49q82 0 140.5 25.5t128.5 79.5l22 -82q-61 -72 -196 -113q-35 -14 -60.5 -39.5t-25.5 -60.5q0 -23 18 -68q8 -23 15.5 -47.5t7.5 -48.5q0 -74 -75 -139.5t-165 -85.5l-45 53q51 14 93 55t42 88q0 20 -12 62 q-2 4 -8.5 27.5t-6.5 54.5q0 70 68 127q-84 0 -151.5 36.5t-105.5 97t-38 130.5z" />
<glyph unicode="&#x4f8;" horiz-adv-x="1888" d="M25 0l8 72l149 24l166 1323l-135 21l8 82h465l-8 -82l-168 -21l-74 -596q143 33 264 33q219 0 336 -91t117 -259q0 -166 -78 -284t-211 -178t-299 -60q-41 0 -121 6q-174 10 -196 10h-223zM346 94q142 -18 234 -18q184 0 296.5 106.5t112.5 298.5q0 131 -89 201t-249 70 q-111 0 -227 -25zM781 1821q0 53 36.5 92t79.5 39t69 -28t24 -69q0 -55 -35 -92t-84 -37q-37 0 -63.5 28t-26.5 67zM1207 1827q0 53 36.5 89t79.5 36q41 0 67 -25.5t26 -66.5q0 -57 -34 -95.5t-85 -38.5q-39 0 -64.5 29t-25.5 72zM1264 0l6 72l149 24l168 1323l-137 21 l10 82h451l-8 -82l-154 -21l-166 -1323l158 -24l-6 -72h-471z" />
<glyph unicode="&#x4f9;" horiz-adv-x="1546" d="M135 322q0 74 19 165l102 514l-98 46l12 73l215 43l45 -20l-102 -576q45 62 147.5 123.5t222.5 61.5q258 0 258 -301q0 -106 -67.5 -217t-183 -184t-252.5 -73q-147 0 -232.5 87.5t-85.5 257.5zM289 293q0 -104 47 -163.5t133 -59.5q92 0 166 53t116 135t42 164 q0 100 -36 157.5t-136 57.5q-93 0 -189 -69.5t-131 -153.5q-8 -49 -10 -74q-2 -16 -2 -47zM574 1456q0 55 34.5 93t81.5 38q43 0 69 -25.5t26 -66.5q0 -57 -35 -96t-86 -39q-37 0 -63.5 27.5t-26.5 68.5zM995 1456q0 55 34 93t83 38q43 0 68.5 -25.5t25.5 -66.5 q0 -57 -34.5 -96t-85.5 -39q-37 0 -64 27.5t-27 68.5zM1087 92q0 20 3 31l131 1028h157l-129 -987q-2 -11 -2 -27q0 -47 29 -47q39 0 110 70l25 -47q-10 -18 -44 -50t-81 -56.5t-98 -24.5q-49 0 -75 28.5t-26 81.5z" />
<glyph unicode="&#x4fa;" horiz-adv-x="1077" d="M8 0l8 72l166 24l76 602h-174l2 93h182l78 626l-172 25l10 80h926l-41 -471h-108l-7 372l-446 9l-80 -641h430v-93h-442l-72 -602l358 -22q33 -100 48.5 -158.5t15.5 -120.5q0 -80 -35 -140.5t-93 -92t-124 -31.5q-35 0 -83 10t-81 23l19 104q18 -6 45.5 -11t46.5 -5 q90 0 136 51t46 168q0 57 -16 129h-619z" />
<glyph unicode="&#x4fb;" horiz-adv-x="899" d="M-31 -438l17 106q18 -6 45.5 -11t46.5 -5q98 0 147 47t49 131q0 78 -36 170h-84l55 446h-166l10 91h166l64 489l-138 27l11 84h770l-64 -349h-80l4 250l-352 2l-65 -503h301l-11 -91h-303l-43 -354q82 -156 82 -287q0 -123 -73.5 -196.5t-210.5 -73.5q-35 0 -75 8t-67 19 z" />
<glyph unicode="&#x4fc;" horiz-adv-x="1298" d="M-63 0l8 72l135 22l508 674l-307 649l-150 23l8 82h510l-8 -82l-174 -19l229 -547l381 545l-170 21l8 82h467l-6 -82l-145 -19l-483 -641q149 -276 222.5 -459.5t73.5 -306.5q0 -27 -2 -39q-14 -129 -105 -222t-304 -156l-31 106q139 41 204.5 102.5t80.5 155.5 q2 10 2 33q0 213 -250 674l-403 -572l178 -24l-8 -72h-469z" />
<glyph unicode="&#x4fd;" horiz-adv-x="1017" d="M-25 0l457 596l-164 389q-14 33 -29.5 48.5t-41.5 15.5q-29 0 -57.5 -17.5t-43.5 -36.5l-30 47q18 33 76.5 75t127.5 42q66 0 97.5 -25.5t48.5 -78.5l106 -361l328 457h170l-440 -571q121 -240 171 -388.5t50 -279.5q0 -47 -6 -96q-14 -137 -107.5 -229.5t-243.5 -121.5 l-12 107q188 37 215 258q8 70 8 107q0 229 -159 548l-353 -485h-168z" />
<glyph unicode="&#x4fe;" horiz-adv-x="1298" d="M-63 0l8 72l135 22l479 637h-323l14 88h313l-282 598l-150 23l8 82h510l-8 -82l-174 -19l229 -547l381 545l-170 21l8 82h467l-6 -82l-145 -19l-453 -602h309l-14 -88h-305l315 -635l164 -24l-4 -72h-532l6 72l176 22l-258 572l-399 -570l178 -24l-8 -72h-469z" />
<glyph unicode="&#x4ff;" horiz-adv-x="1015" d="M-25 0l426 557h-319l10 88h320l-144 340q-14 33 -29.5 48.5t-41.5 15.5q-29 0 -57.5 -17.5t-43.5 -36.5l-30 47q18 33 76.5 75t127.5 42q66 0 97.5 -25.5t48.5 -78.5l106 -361l328 457h168l-391 -506h299l-11 -88h-344l183 -401q14 -33 28.5 -48.5t36.5 -15.5 q53 0 119 72l29 -47q-8 -18 -42 -51t-82 -59.5t-100 -26.5q-59 0 -87.5 25.5t-47.5 80.5l-129 383l-336 -469h-168z" />
<glyph unicode="&#x2000;" horiz-adv-x="1006" />
<glyph unicode="&#x2001;" horiz-adv-x="2013" />
<glyph unicode="&#x2002;" horiz-adv-x="1006" />
<glyph unicode="&#x2003;" horiz-adv-x="2013" />
<glyph unicode="&#x2004;" horiz-adv-x="671" />
<glyph unicode="&#x2005;" horiz-adv-x="503" />
<glyph unicode="&#x2006;" horiz-adv-x="335" />
<glyph unicode="&#x2007;" horiz-adv-x="335" />
<glyph unicode="&#x2008;" horiz-adv-x="251" />
<glyph unicode="&#x2009;" horiz-adv-x="402" />
<glyph unicode="&#x200a;" horiz-adv-x="111" />
<glyph unicode="&#x2010;" horiz-adv-x="1271" d="M225 592l19 129h827l-18 -129h-828z" />
<glyph unicode="&#x2011;" horiz-adv-x="1271" d="M225 592l19 129h827l-18 -129h-828z" />
<glyph unicode="&#x2012;" horiz-adv-x="1271" d="M225 592l19 129h827l-18 -129h-828z" />
<glyph unicode="&#x2013;" horiz-adv-x="1556" d="M225 592l19 129h1112l-19 -129h-1112z" />
<glyph unicode="&#x2014;" horiz-adv-x="2308" d="M225 592l19 129h1880l-19 -129h-1880z" />
<glyph unicode="&#x2018;" horiz-adv-x="684" d="M215 1212q0 180 111.5 311.5t269.5 198.5l33 -59v-18q-55 -18 -111.5 -73.5t-93.5 -132.5t-37 -157q0 -70 33 -125t92 -65l-4 -33l-115 -123q-92 25 -135 103.5t-43 172.5z" />
<glyph unicode="&#x2019;" horiz-adv-x="684" d="M233 993v18q55 18 111.5 73.5t93.5 132.5t37 157q0 70 -33 125t-92 65l4 33l115 123q92 -25 135 -103.5t43 -172.5q0 -180 -111.5 -311.5t-269.5 -198.5z" />
<glyph unicode="&#x201a;" horiz-adv-x="681" d="M51 -426q55 18 111.5 73.5t93.5 132.5t37 157q0 70 -33 125t-92 65l4 33l115 123q92 -25 135 -103.5t43 -172.5q0 -180 -111.5 -311.5t-269.5 -198.5l-33 59v18z" />
<glyph unicode="&#x201c;" horiz-adv-x="1163" d="M215 1212q0 180 111.5 311.5t269.5 198.5l33 -59v-18q-55 -18 -111.5 -73.5t-93.5 -132.5t-37 -157q0 -70 33 -125t92 -65l-4 -33l-115 -123q-92 25 -135 103.5t-43 172.5zM696 1212q0 180 111.5 311.5t269.5 198.5l33 -59v-18q-55 -18 -111.5 -73.5t-93.5 -132.5 t-37 -157q0 -70 33 -125t92 -65l-4 -33l-115 -123q-92 25 -135 103.5t-43 172.5z" />
<glyph unicode="&#x201d;" horiz-adv-x="1163" d="M233 993v18q55 18 111.5 73.5t93.5 132.5t37 157q0 70 -33 125t-92 65l4 33l115 123q92 -25 135 -103.5t43 -172.5q0 -180 -111.5 -311.5t-269.5 -198.5zM714 993v18q55 18 111.5 73.5t93.5 132.5t37 157q0 70 -33 125t-92 65l4 33l115 123q92 -25 135 -103.5t43 -172.5 q0 -180 -111.5 -311.5t-269.5 -198.5z" />
<glyph unicode="&#x201e;" horiz-adv-x="1163" d="M49 -426q55 18 111.5 73.5t93.5 132.5t37 157q0 70 -33 125t-92 65l4 33l115 123q92 -25 135 -103.5t43 -172.5q0 -180 -111.5 -311.5t-269.5 -198.5l-33 59v18zM528 -426q55 18 111.5 73.5t93.5 132.5t37 157q0 70 -33 125t-92 65l4 33l115 123q92 -25 135 -103.5 t43 -172.5q0 -180 -111.5 -311.5t-269.5 -198.5l-33 59v18z" />
<glyph unicode="&#x2022;" horiz-adv-x="858" d="M274 705q0 86 58.5 144t142.5 58q61 0 101 -43t40 -104q0 -88 -56 -148.5t-142 -60.5q-60 0 -102 46t-42 108z" />
<glyph unicode="&#x2026;" horiz-adv-x="1579" d="M111 74q0 61 38.5 103t90.5 42q47 0 70.5 -24.5t23.5 -65.5q0 -66 -41 -106.5t-94 -40.5q-39 0 -63.5 24.5t-24.5 67.5zM637 74q0 61 39 103t90 42q45 0 68.5 -24.5t23.5 -65.5q0 -66 -40 -106.5t-95 -40.5q-39 0 -62.5 24.5t-23.5 67.5zM1163 74q0 59 38 102t89 43 q47 0 70.5 -24.5t23.5 -65.5q0 -66 -39.5 -106.5t-95.5 -40.5q-39 0 -62.5 24.5t-23.5 67.5z" />
<glyph unicode="&#x202f;" horiz-adv-x="402" />
<glyph unicode="&#x2039;" horiz-adv-x="825" d="M113 565l22 115l522 442l84 -65l-442 -451l295 -420l-78 -71z" />
<glyph unicode="&#x203a;" horiz-adv-x="825" d="M100 186l441 437l-305 434l88 65l403 -442l-22 -135l-523 -430z" />
<glyph unicode="&#x205f;" horiz-adv-x="503" />
<glyph unicode="&#x20ac;" horiz-adv-x="1388" d="M27 565l12 111h197q2 121 28 239h-170l15 107h186q82 240 256 378t387 138q98 0 161.5 -13.5t147.5 -39.5q25 -8 74 -21l-57 -254h-86l-9 158q-84 72 -272 72q-156 0 -272.5 -110.5t-173.5 -307.5h577l-14 -107h-590q-20 -113 -25 -239h559l-10 -111h-549 q10 -225 94.5 -354t241.5 -129q90 0 178 28.5t125 69.5l64 164h94l-45 -274q-39 0 -127 -27q-86 -29 -155.5 -44t-155.5 -15q-221 0 -340 167.5t-135 413.5h-211z" />
<glyph unicode="&#x2122;" horiz-adv-x="2125" d="M143 1315l52 239h686l-31 -237l-53 -4v151l-203 11l-90 -621l149 -16l-8 -62h-428l8 62l146 14l90 621l-205 -9l-59 -147zM858 776l8 62l115 14l117 623l-103 8l11 71h290l121 -460l41 -142l307 602h291l-10 -71l-111 -8l-30 -621l110 -16l-8 -62h-350l8 62l117 16 l26 385l21 236l-45 -82l-320 -625h-86l-149 547l-47 164l-29 -170l-84 -457l109 -14l-9 -62h-311z" />
<glyph unicode="&#x25fc;" d="M0 0v1157h1157v-1157h-1157z" />
</font>
</defs>
</svg>
